0
SECTION
2
ENTITIES
0
LINE
8
BMD
10
0
20
0
11
-3.24275e-014
21
529.599
62
4
0
LINE
8
BMD
10
-3.24275e-014
20
529.599
11
10
21
-862.423
62
4
0
LINE
8
BMD
10
10
20
-862.423
11
10
21
0
62
4
0
LINE
8
BMD
10
10
20
0
11
10
21
-862.423
62
4
0
LINE
8
BMD
10
10
20
-862.423
11
20
21
529.599
62
4
0
LINE
8
BMD
10
20
20
529.599
11
20
21
0
62
4
0
LINE
8
BMD
10
0
20
0
11
529.599
21
0
62
4
0
LINE
8
BMD
10
529.599
20
0
11
-272.395
21
10
62
4
0
LINE
8
BMD
10
-272.395
20
10
11
0
21
10
62
4
0
LINE
8
BMD
10
10
20
0
11
-247.158
21
-257.158
62
4
0
LINE
8
BMD
10
-247.158
20
-257.158
11
219.348
21
229.348
62
4
0
LINE
8
BMD
10
219.348
20
229.348
11
0
21
10
62
4
0
LINE
8
BMD
10
10
20
0
11
267.158
21
-257.158
62
4
0
LINE
8
BMD
10
267.158
20
-257.158
11
-199.348
21
229.348
62
4
0
LINE
8
BMD
10
-199.348
20
229.348
11
20
21
10
62
4
0
LINE
8
BMD
10
20
20
0
11
-509.599
21
0
62
4
0
LINE
8
BMD
10
-509.599
20
0
11
292.395
21
10
62
4
0
LINE
8
BMD
10
292.395
20
10
11
20
21
10
62
4
0
LINE
8
BMD
10
0
20
10
11
2.31512e-015
21
-27.8101
62
4
0
LINE
8
BMD
10
2.31512e-015
20
-27.8101
11
20
21
-27.8101
62
4
0
LINE
8
BMD
10
20
20
-27.8101
11
20
21
10
62
4
0
LINE
8
Undeflected
10
0
20
0
11
10
21
0
62
0
0
LINE
8
Deflected
10
0
20
0
11
10
21
-4.98019
62
1
0
LINE
8
Undeflected
10
10
20
0
11
20
21
0
62
0
0
LINE
8
Deflected
10
10
20
-4.98019
11
20
21
0
62
1
0
LINE
8
Undeflected
10
0
20
0
11
0
21
10
62
0
0
LINE
8
Deflected
10
0
20
0
11
0.881955
21
9.05399
62
1
0
LINE
8
Undeflected
10
10
20
0
11
0
21
10
62
0
0
LINE
8
Deflected
10
10
20
-4.98019
11
0.881955
21
9.05399
62
1
0
LINE
8
Undeflected
10
10
20
0
11
20
21
10
62
0
0
LINE
8
Deflected
10
10
20
-4.98019
11
19.118
21
9.05399
62
1
0
LINE
8
Undeflected
10
20
20
0
11
20
21
10
62
0
0
LINE
8
Deflected
10
20
20
0
11
19.118
21
9.05399
62
1
0
LINE
8
Undeflected
10
0
20
10
11
20
21
10
62
0
0
LINE
8
Deflected
10
0.881955
20
9.05399
11
19.118
21
9.05399
62
1
0
CIRCLE
8
Undeflected
10
0
20
0
40
0.252241
62
0
0
CIRCLE
8
Deflected
10
0
20
0
40
0.252241
62
1
0
CIRCLE
8
Undeflected
10
10
20
0
40
0.252241
62
0
0
CIRCLE
8
Deflected
10
10
20
-4.98019
40
0.252241
62
1
0
CIRCLE
8
Undeflected
10
20
20
0
40
0.252241
62
0
0
CIRCLE
8
Deflected
10
20
20
0
40
0.252241
62
1
0
CIRCLE
8
Undeflected
10
0
20
10
40
0.252241
62
0
0
CIRCLE
8
Deflected
10
0.881955
20
9.05399
40
0.252241
62
1
0
CIRCLE
8
Undeflected
10
20
20
10
40
0.252241
62
0
0
CIRCLE
8
Deflected
10
19.118
20
9.05399
40
0.252241
62
1
0
TEXT
8
Information
1
0
10
5
20
0
40
0.630602
62
0
0
TEXT
8
Information
1
1
10
15
20
0
40
0.630602
62
0
0
TEXT
8
Information
1
2
10
0
20
5
40
0.630602
62
0
0
TEXT
8
Information
1
3
10
5
20
5
40
0.630602
62
0
0
TEXT
8
Information
1
4
10
15
20
5
40
0.630602
62
0
0
TEXT
8
Information
1
5
10
20
20
5
40
0.630602
62
0
0
TEXT
8
Information
1
6
10
10
20
10
40
0.630602
62
0
0
TEXT
8
Information
1
0
10
0.630602
20
0.630602
40
0.630602
62
5
0
TEXT
8
Information
1
1
10
10.6306
20
0.630602
40
0.630602
62
5
0
TEXT
8
Information
1
2
10
20.6306
20
0.630602
40
0.630602
62
5
0
TEXT
8
Information
1
3
10
0.630602
20
10.6306
40
0.630602
62
5
0
TEXT
8
Information
1
4
10
20.6306
20
10.6306
40
0.630602
62
5
0
LINE
8
Information
10
10
20
0
11
10
21
100
62
1
0
ENDSEC
0
EOF
