0
SECTION
2
ENTITIES
0
LINE
8
BMD
10
0
20
0
11
-5.24828
21
0
62
4
0
LINE
8
BMD
10
-5.24828
20
0
11
7.34978
21
250
62
4
0
LINE
8
BMD
10
7.34978
20
250
11
0
21
250
62
4
0
LINE
8
BMD
10
0
20
250
11
4.50029e-016
21
242.65
62
4
0
LINE
8
BMD
10
4.50029e-016
20
242.65
11
350
21
262.181
62
4
0
LINE
8
BMD
10
350
20
262.181
11
350
21
250
62
4
0
LINE
8
BMD
10
350
20
250
11
350
21
262.181
62
4
0
LINE
8
BMD
10
350
20
262.181
11
500
21
240.551
62
4
0
LINE
8
BMD
10
500
20
240.551
11
500
21
250
62
4
0
LINE
8
BMD
10
500
20
250
11
490.551
21
250
62
4
0
LINE
8
BMD
10
490.551
20
250
11
503.149
21
0
62
4
0
LINE
8
BMD
10
503.149
20
0
11
500
21
0
62
4
0
LINE
8
Undeflected
10
0
20
0
11
0
21
250
62
0
0
LINE
8
Deflected
10
0
20
0
11
8.19475
21
250.007
62
1
0
LINE
8
Undeflected
10
0
20
250
11
350
21
250
62
0
0
LINE
8
Deflected
10
8.19475
20
250.007
11
358.204
21
285.849
62
1
0
LINE
8
Undeflected
10
350
20
250
11
500
21
250
62
0
0
LINE
8
Deflected
10
358.204
20
285.849
11
508.207
21
250.018
62
1
0
LINE
8
Undeflected
10
500
20
250
11
500
21
0
62
0
0
LINE
8
Deflected
10
508.207
20
250.018
11
500
21
0
62
1
0
CIRCLE
8
Undeflected
10
0
20
0
40
5
62
0
0
CIRCLE
8
Deflected
10
0
20
0
40
5
62
1
0
CIRCLE
8
Undeflected
10
0
20
250
40
5
62
0
0
CIRCLE
8
Deflected
10
8.19475
20
250.007
40
5
62
1
0
CIRCLE
8
Undeflected
10
350
20
250
40
5
62
0
0
CIRCLE
8
Deflected
10
358.204
20
285.849
40
5
62
1
0
CIRCLE
8
Undeflected
10
500
20
250
40
5
62
0
0
CIRCLE
8
Deflected
10
508.207
20
250.018
40
5
62
1
0
CIRCLE
8
Undeflected
10
500
20
0
40
5
62
0
0
CIRCLE
8
Deflected
10
500
20
0
40
5
62
1
0
TEXT
8
Information
1
0
10
0
20
125
40
12.5
62
0
0
TEXT
8
Information
1
1
10
175
20
250
40
12.5
62
0
0
TEXT
8
Information
1
2
10
425
20
250
40
12.5
62
0
0
TEXT
8
Information
1
3
10
500
20
125
40
12.5
62
0
0
TEXT
8
Information
1
0
10
12.5
20
12.5
40
12.5
62
5
0
TEXT
8
Information
1
1
10
12.5
20
262.5
40
12.5
62
5
0
TEXT
8
Information
1
2
10
362.5
20
262.5
40
12.5
62
5
0
TEXT
8
Information
1
3
10
512.5
20
262.5
40
12.5
62
5
0
TEXT
8
Information
1
4
10
512.5
20
12.5
40
12.5
62
5
0
LINE
8
Information
10
350
20
250
11
350
21
249.8
62
1
0
ENDSEC
0
EOF
