0
SECTION
2
ENTITIES
0
LINE
8
Undeflected
10
0
20
0
11
10
21
0
62
0
0
LINE
8
Deflected
10
0
20
0
11
10
21
-0.0124241
62
1
0
LINE
8
Undeflected
10
10
20
0
11
20
21
0
62
0
0
LINE
8
Deflected
10
10
20
-0.0124241
11
20
21
-0.99503
62
1
0
LINE
8
Undeflected
10
20
20
0
11
30
21
0
62
0
0
LINE
8
Deflected
10
20
20
-0.99503
11
30
21
-1.58956
62
1
0
LINE
8
Undeflected
10
30
20
0
11
40
21
0
62
0
0
LINE
8
Deflected
10
30
20
-1.58956
11
40
21
-1.36914
62
1
0
LINE
8
Undeflected
10
40
20
0
11
50
21
0
62
0
0
LINE
8
Deflected
10
40
20
-1.36914
11
50
21
-1.86278
62
1
0
LINE
8
Undeflected
10
50
20
0
11
60
21
0
62
0
0
LINE
8
Deflected
10
50
20
-1.86278
11
60
21
-2.88574
62
1
0
LINE
8
Undeflected
10
60
20
0
11
70
21
0
62
0
0
LINE
8
Deflected
10
60
20
-2.88574
11
70
21
-2.81626
62
1
0
LINE
8
Undeflected
10
70
20
0
11
80
21
0
62
0
0
LINE
8
Deflected
10
70
20
-2.81626
11
80
21
-1.98775
62
1
0
LINE
8
Undeflected
10
80
20
0
11
90
21
0
62
0
0
LINE
8
Deflected
10
80
20
-1.98775
11
90
21
-2.38864
62
1
0
LINE
8
Undeflected
10
90
20
0
11
100
21
0
62
0
0
LINE
8
Deflected
10
90
20
-2.38864
11
100
21
-3.05679
62
1
0
CIRCLE
8
Undeflected
10
0
20
0
40
0.2
62
0
0
CIRCLE
8
Deflected
10
0
20
0
40
0.2
62
1
0
CIRCLE
8
Undeflected
10
10
20
0
40
0.2
62
0
0
CIRCLE
8
Deflected
10
10
20
-0.0124241
40
0.2
62
1
0
CIRCLE
8
Undeflected
10
20
20
0
40
0.2
62
0
0
CIRCLE
8
Deflected
10
20
20
-0.99503
40
0.2
62
1
0
CIRCLE
8
Undeflected
10
30
20
0
40
0.2
62
0
0
CIRCLE
8
Deflected
10
30
20
-1.58956
40
0.2
62
1
0
CIRCLE
8
Undeflected
10
40
20
0
40
0.2
62
0
0
CIRCLE
8
Deflected
10
40
20
-1.36914
40
0.2
62
1
0
CIRCLE
8
Undeflected
10
50
20
0
40
0.2
62
0
0
CIRCLE
8
Deflected
10
50
20
-1.86278
40
0.2
62
1
0
CIRCLE
8
Undeflected
10
60
20
0
40
0.2
62
0
0
CIRCLE
8
Deflected
10
60
20
-2.88574
40
0.2
62
1
0
CIRCLE
8
Undeflected
10
70
20
0
40
0.2
62
0
0
CIRCLE
8
Deflected
10
70
20
-2.81626
40
0.2
62
1
0
CIRCLE
8
Undeflected
10
80
20
0
40
0.2
62
0
0
CIRCLE
8
Deflected
10
80
20
-1.98775
40
0.2
62
1
0
CIRCLE
8
Undeflected
10
90
20
0
40
0.2
62
0
0
CIRCLE
8
Deflected
10
90
20
-2.38864
40
0.2
62
1
0
CIRCLE
8
Undeflected
10
100
20
0
40
0.2
62
0
0
CIRCLE
8
Deflected
10
100
20
-3.05679
40
0.2
62
1
0
TEXT
8
Information
1
0
10
5
20
0
40
0.5
62
0
0
TEXT
8
Information
1
1
10
15
20
0
40
0.5
62
0
0
TEXT
8
Information
1
2
10
25
20
0
40
0.5
62
0
0
TEXT
8
Information
1
3
10
35
20
0
40
0.5
62
0
0
TEXT
8
Information
1
4
10
45
20
0
40
0.5
62
0
0
TEXT
8
Information
1
5
10
55
20
0
40
0.5
62
0
0
TEXT
8
Information
1
6
10
65
20
0
40
0.5
62
0
0
TEXT
8
Information
1
7
10
75
20
0
40
0.5
62
0
0
TEXT
8
Information
1
8
10
85
20
0
40
0.5
62
0
0
TEXT
8
Information
1
9
10
95
20
0
40
0.5
62
0
0
TEXT
8
Information
1
0
10
0.5
20
0.5
40
0.5
62
5
0
TEXT
8
Information
1
1
10
10.5
20
0.5
40
0.5
62
5
0
TEXT
8
Information
1
2
10
20.5
20
0.5
40
0.5
62
5
0
TEXT
8
Information
1
3
10
30.5
20
0.5
40
0.5
62
5
0
TEXT
8
Information
1
4
10
40.5
20
0.5
40
0.5
62
5
0
TEXT
8
Information
1
5
10
50.5
20
0.5
40
0.5
62
5
0
TEXT
8
Information
1
6
10
60.5
20
0.5
40
0.5
62
5
0
TEXT
8
Information
1
7
10
70.5
20
0.5
40
0.5
62
5
0
TEXT
8
Information
1
8
10
80.5
20
0.5
40
0.5
62
5
0
TEXT
8
Information
1
9
10
90.5
20
0.5
40
0.5
62
5
0
TEXT
8
Information
1
10
10
100.5
20
0.5
40
0.5
62
5
0
LINE
8
Information
10
60
20
0
11
60
21
-20
62
1
0
ENDSEC
0
EOF
