0
SECTION
2
ENTITIES
0
LINE
8
BMD
10
0
20
0
11
6
21
0
62
4
0
LINE
8
BMD
10
6
20
0
11
5.5
21
1
62
4
0
LINE
8
BMD
10
5.5
20
1
11
0
21
1
62
4
0
LINE
8
BMD
10
0
20
1
11
5.5
21
1
62
4
0
LINE
8
BMD
10
5.5
20
1
11
5
21
2
62
4
0
LINE
8
BMD
10
5
20
2
11
0
21
2
62
4
0
LINE
8
BMD
10
0
20
2
11
5
21
2
62
4
0
LINE
8
BMD
10
5
20
2
11
4.5
21
3
62
4
0
LINE
8
BMD
10
4.5
20
3
11
0
21
3
62
4
0
LINE
8
BMD
10
0
20
3
11
4.5
21
3
62
4
0
LINE
8
BMD
10
4.5
20
3
11
4
21
4
62
4
0
LINE
8
BMD
10
4
20
4
11
0
21
4
62
4
0
LINE
8
BMD
10
0
20
4
11
4
21
4
62
4
0
LINE
8
BMD
10
4
20
4
11
3.5
21
5
62
4
0
LINE
8
BMD
10
3.5
20
5
11
0
21
5
62
4
0
LINE
8
BMD
10
0
20
5
11
3.5
21
5
62
4
0
LINE
8
BMD
10
3.5
20
5
11
3
21
6
62
4
0
LINE
8
BMD
10
3
20
6
11
0
21
6
62
4
0
LINE
8
BMD
10
0
20
6
11
3
21
6
62
4
0
LINE
8
BMD
10
3
20
6
11
2.5
21
7
62
4
0
LINE
8
BMD
10
2.5
20
7
11
0
21
7
62
4
0
LINE
8
BMD
10
0
20
7
11
2.5
21
7
62
4
0
LINE
8
BMD
10
2.5
20
7
11
2
21
8
62
4
0
LINE
8
BMD
10
2
20
8
11
0
21
8
62
4
0
LINE
8
BMD
10
0
20
8
11
2
21
8
62
4
0
LINE
8
BMD
10
2
20
8
11
1.5
21
9
62
4
0
LINE
8
BMD
10
1.5
20
9
11
0
21
9
62
4
0
LINE
8
BMD
10
0
20
9
11
1.5
21
9
62
4
0
LINE
8
BMD
10
1.5
20
9
11
1
21
10
62
4
0
LINE
8
BMD
10
1
20
10
11
0
21
10
62
4
0
LINE
8
BMD
10
0
20
10
11
1
21
10
62
4
0
LINE
8
BMD
10
1
20
10
11
0.5
21
11
62
4
0
LINE
8
BMD
10
0.5
20
11
11
0
21
11
62
4
0
LINE
8
BMD
10
0
20
11
11
0.5
21
11
62
4
0
LINE
8
BMD
10
0.5
20
11
11
1.30762e-011
21
12
62
4
0
LINE
8
BMD
10
1.30762e-011
20
12
11
0
21
12
62
4
0
LINE
8
BMD
10
0
20
12
11
1.36208e-011
21
12
62
4
0
LINE
8
BMD
10
1.36208e-011
20
12
11
1.09572e-011
21
13
62
4
0
LINE
8
BMD
10
1.09572e-011
20
13
11
0
21
13
62
4
0
LINE
8
BMD
10
0
20
13
11
1.08721e-011
21
13
62
4
0
LINE
8
BMD
10
1.08721e-011
20
13
11
8.21232e-012
21
14
62
4
0
LINE
8
BMD
10
8.21232e-012
20
14
11
0
21
14
62
4
0
LINE
8
BMD
10
0
20
14
11
8.21299e-012
21
14
62
4
0
LINE
8
BMD
10
8.21299e-012
20
14
11
5.91349e-012
21
15
62
4
0
LINE
8
BMD
10
5.91349e-012
20
15
11
0
21
15
62
4
0
LINE
8
BMD
10
0
20
15
11
6.28841e-012
21
15
62
4
0
LINE
8
BMD
10
6.28841e-012
20
15
11
3.53828e-012
21
16
62
4
0
LINE
8
BMD
10
3.53828e-012
20
16
11
0
21
16
62
4
0
LINE
8
BMD
10
0
20
16
11
4.33409e-012
21
16
62
4
0
LINE
8
BMD
10
4.33409e-012
20
16
11
2.16049e-012
21
17
62
4
0
LINE
8
BMD
10
2.16049e-012
20
17
11
0
21
17
62
4
0
LINE
8
BMD
10
0
20
17
11
1.76603e-012
21
17
62
4
0
LINE
8
BMD
10
1.76603e-012
20
17
11
4.46976e-013
21
18
62
4
0
LINE
8
BMD
10
4.46976e-013
20
18
11
0
21
18
62
4
0
LINE
8
BMD
10
0
20
18
11
9.87543e-013
21
18
62
4
0
LINE
8
BMD
10
9.87543e-013
20
18
11
-3.26628e-013
21
19
62
4
0
LINE
8
BMD
10
-3.26628e-013
20
19
11
0
21
19
62
4
0
LINE
8
BMD
10
0
20
19
11
-4.19331e-013
21
19
62
4
0
LINE
8
BMD
10
-4.19331e-013
20
19
11
1.56541e-013
21
20
62
4
0
LINE
8
BMD
10
1.56541e-013
20
20
11
0
21
20
62
4
0
LINE
8
Undeflected
10
0
20
0
11
0
21
1
62
0
0
LINE
8
Deflected
10
0
20
0
11
-0.00291667
21
1
62
1
0
LINE
8
Undeflected
10
0
20
1
11
0
21
2
62
0
0
LINE
8
Deflected
10
-0.00291667
20
1
11
-0.0113333
21
2
62
1
0
LINE
8
Undeflected
10
0
20
2
11
0
21
3
62
0
0
LINE
8
Deflected
10
-0.0113333
20
2
11
-0.02475
21
3
62
1
0
LINE
8
Undeflected
10
0
20
3
11
0
21
4
62
0
0
LINE
8
Deflected
10
-0.02475
20
3
11
-0.0426667
21
4
62
1
0
LINE
8
Undeflected
10
0
20
4
11
0
21
5
62
0
0
LINE
8
Deflected
10
-0.0426667
20
4
11
-0.0645833
21
5
62
1
0
LINE
8
Undeflected
10
0
20
5
11
0
21
6
62
0
0
LINE
8
Deflected
10
-0.0645833
20
5
11
-0.09
21
6
62
1
0
LINE
8
Undeflected
10
0
20
6
11
0
21
7
62
0
0
LINE
8
Deflected
10
-0.09
20
6
11
-0.118417
21
7
62
1
0
LINE
8
Undeflected
10
0
20
7
11
0
21
8
62
0
0
LINE
8
Deflected
10
-0.118417
20
7
11
-0.149333
21
8
62
1
0
LINE
8
Undeflected
10
0
20
8
11
0
21
9
62
0
0
LINE
8
Deflected
10
-0.149333
20
8
11
-0.18225
21
9
62
1
0
LINE
8
Undeflected
10
0
20
9
11
0
21
10
62
0
0
LINE
8
Deflected
10
-0.18225
20
9
11
-0.216667
21
10
62
1
0
LINE
8
Undeflected
10
0
20
10
11
0
21
11
62
0
0
LINE
8
Deflected
10
-0.216667
20
10
11
-0.252083
21
11
62
1
0
LINE
8
Undeflected
10
0
20
11
11
0
21
12
62
0
0
LINE
8
Deflected
10
-0.252083
20
11
11
-0.288
21
12
62
1
0
LINE
8
Undeflected
10
0
20
12
11
0
21
13
62
0
0
LINE
8
Deflected
10
-0.288
20
12
11
-0.324
21
13
62
1
0
LINE
8
Undeflected
10
0
20
13
11
0
21
14
62
0
0
LINE
8
Deflected
10
-0.324
20
13
11
-0.36
21
14
62
1
0
LINE
8
Undeflected
10
0
20
14
11
0
21
15
62
0
0
LINE
8
Deflected
10
-0.36
20
14
11
-0.396
21
15
62
1
0
LINE
8
Undeflected
10
0
20
15
11
0
21
16
62
0
0
LINE
8
Deflected
10
-0.396
20
15
11
-0.432
21
16
62
1
0
LINE
8
Undeflected
10
0
20
16
11
0
21
17
62
0
0
LINE
8
Deflected
10
-0.432
20
16
11
-0.468
21
17
62
1
0
LINE
8
Undeflected
10
0
20
17
11
0
21
18
62
0
0
LINE
8
Deflected
10
-0.468
20
17
11
-0.504
21
18
62
1
0
LINE
8
Undeflected
10
0
20
18
11
0
21
19
62
0
0
LINE
8
Deflected
10
-0.504
20
18
11
-0.54
21
19
62
1
0
LINE
8
Undeflected
10
0
20
19
11
0
21
20
62
0
0
LINE
8
Deflected
10
-0.54
20
19
11
-0.576
21
20
62
1
0
CIRCLE
8
Undeflected
10
0
20
0
40
0.02
62
0
0
CIRCLE
8
Deflected
10
0
20
0
40
0.02
62
1
0
CIRCLE
8
Undeflected
10
0
20
1
40
0.02
62
0
0
CIRCLE
8
Deflected
10
-0.00291667
20
1
40
0.02
62
1
0
CIRCLE
8
Undeflected
10
0
20
2
40
0.02
62
0
0
CIRCLE
8
Deflected
10
-0.0113333
20
2
40
0.02
62
1
0
CIRCLE
8
Undeflected
10
0
20
3
40
0.02
62
0
0
CIRCLE
8
Deflected
10
-0.02475
20
3
40
0.02
62
1
0
CIRCLE
8
Undeflected
10
0
20
4
40
0.02
62
0
0
CIRCLE
8
Deflected
10
-0.0426667
20
4
40
0.02
62
1
0
CIRCLE
8
Undeflected
10
0
20
5
40
0.02
62
0
0
CIRCLE
8
Deflected
10
-0.0645833
20
5
40
0.02
62
1
0
CIRCLE
8
Undeflected
10
0
20
6
40
0.02
62
0
0
CIRCLE
8
Deflected
10
-0.09
20
6
40
0.02
62
1
0
CIRCLE
8
Undeflected
10
0
20
7
40
0.02
62
0
0
CIRCLE
8
Deflected
10
-0.118417
20
7
40
0.02
62
1
0
CIRCLE
8
Undeflected
10
0
20
8
40
0.02
62
0
0
CIRCLE
8
Deflected
10
-0.149333
20
8
40
0.02
62
1
0
CIRCLE
8
Undeflected
10
0
20
9
40
0.02
62
0
0
CIRCLE
8
Deflected
10
-0.18225
20
9
40
0.02
62
1
0
CIRCLE
8
Undeflected
10
0
20
10
40
0.02
62
0
0
CIRCLE
8
Deflected
10
-0.216667
20
10
40
0.02
62
1
0
CIRCLE
8
Undeflected
10
0
20
11
40
0.02
62
0
0
CIRCLE
8
Deflected
10
-0.252083
20
11
40
0.02
62
1
0
CIRCLE
8
Undeflected
10
0
20
12
40
0.02
62
0
0
CIRCLE
8
Deflected
10
-0.288
20
12
40
0.02
62
1
0
CIRCLE
8
Undeflected
10
0
20
13
40
0.02
62
0
0
CIRCLE
8
Deflected
10
-0.324
20
13
40
0.02
62
1
0
CIRCLE
8
Undeflected
10
0
20
14
40
0.02
62
0
0
CIRCLE
8
Deflected
10
-0.36
20
14
40
0.02
62
1
0
CIRCLE
8
Undeflected
10
0
20
15
40
0.02
62
0
0
CIRCLE
8
Deflected
10
-0.396
20
15
40
0.02
62
1
0
CIRCLE
8
Undeflected
10
0
20
16
40
0.02
62
0
0
CIRCLE
8
Deflected
10
-0.432
20
16
40
0.02
62
1
0
CIRCLE
8
Undeflected
10
0
20
17
40
0.02
62
0
0
CIRCLE
8
Deflected
10
-0.468
20
17
40
0.02
62
1
0
CIRCLE
8
Undeflected
10
0
20
18
40
0.02
62
0
0
CIRCLE
8
Deflected
10
-0.504
20
18
40
0.02
62
1
0
CIRCLE
8
Undeflected
10
0
20
19
40
0.02
62
0
0
CIRCLE
8
Deflected
10
-0.54
20
19
40
0.02
62
1
0
CIRCLE
8
Undeflected
10
0
20
20
40
0.02
62
0
0
CIRCLE
8
Deflected
10
-0.576
20
20
40
0.02
62
1
0
TEXT
8
Information
1
0
10
0
20
0.5
40
0.05
62
0
0
TEXT
8
Information
1
1
10
0
20
1.5
40
0.05
62
0
0
TEXT
8
Information
1
2
10
0
20
2.5
40
0.05
62
0
0
TEXT
8
Information
1
3
10
0
20
3.5
40
0.05
62
0
0
TEXT
8
Information
1
4
10
0
20
4.5
40
0.05
62
0
0
TEXT
8
Information
1
5
10
0
20
5.5
40
0.05
62
0
0
TEXT
8
Information
1
6
10
0
20
6.5
40
0.05
62
0
0
TEXT
8
Information
1
7
10
0
20
7.5
40
0.05
62
0
0
TEXT
8
Information
1
8
10
0
20
8.5
40
0.05
62
0
0
TEXT
8
Information
1
9
10
0
20
9.5
40
0.05
62
0
0
TEXT
8
Information
1
10
10
0
20
10.5
40
0.05
62
0
0
TEXT
8
Information
1
11
10
0
20
11.5
40
0.05
62
0
0
TEXT
8
Information
1
12
10
0
20
12.5
40
0.05
62
0
0
TEXT
8
Information
1
13
10
0
20
13.5
40
0.05
62
0
0
TEXT
8
Information
1
14
10
0
20
14.5
40
0.05
62
0
0
TEXT
8
Information
1
15
10
0
20
15.5
40
0.05
62
0
0
TEXT
8
Information
1
16
10
0
20
16.5
40
0.05
62
0
0
TEXT
8
Information
1
17
10
0
20
17.5
40
0.05
62
0
0
TEXT
8
Information
1
18
10
0
20
18.5
40
0.05
62
0
0
TEXT
8
Information
1
19
10
0
20
19.5
40
0.05
62
0
0
TEXT
8
Information
1
0
10
0.05
20
0.05
40
0.05
62
5
0
TEXT
8
Information
1
1
10
0.05
20
1.05
40
0.05
62
5
0
TEXT
8
Information
1
2
10
0.05
20
2.05
40
0.05
62
5
0
TEXT
8
Information
1
3
10
0.05
20
3.05
40
0.05
62
5
0
TEXT
8
Information
1
4
10
0.05
20
4.05
40
0.05
62
5
0
TEXT
8
Information
1
5
10
0.05
20
5.05
40
0.05
62
5
0
TEXT
8
Information
1
6
10
0.05
20
6.05
40
0.05
62
5
0
TEXT
8
Information
1
7
10
0.05
20
7.05
40
0.05
62
5
0
TEXT
8
Information
1
8
10
0.05
20
8.05
40
0.05
62
5
0
TEXT
8
Information
1
9
10
0.05
20
9.05
40
0.05
62
5
0
TEXT
8
Information
1
10
10
0.05
20
10.05
40
0.05
62
5
0
TEXT
8
Information
1
11
10
0.05
20
11.05
40
0.05
62
5
0
TEXT
8
Information
1
12
10
0.05
20
12.05
40
0.05
62
5
0
TEXT
8
Information
1
13
10
0.05
20
13.05
40
0.05
62
5
0
TEXT
8
Information
1
14
10
0.05
20
14.05
40
0.05
62
5
0
TEXT
8
Information
1
15
10
0.05
20
15.05
40
0.05
62
5
0
TEXT
8
Information
1
16
10
0.05
20
16.05
40
0.05
62
5
0
TEXT
8
Information
1
17
10
0.05
20
17.05
40
0.05
62
5
0
TEXT
8
Information
1
18
10
0.05
20
18.05
40
0.05
62
5
0
TEXT
8
Information
1
19
10
0.05
20
19.05
40
0.05
62
5
0
TEXT
8
Information
1
20
10
0.05
20
20.05
40
0.05
62
5
0
LINE
8
Information
10
0
20
12
11
0.5
21
12
62
1
0
ENDSEC
0
EOF
