0
SECTION
2
ENTITIES
0
LINE
8
BMD
10
0
20
0
11
-4.59227e-017
21
0.75
62
4
0
LINE
8
BMD
10
-4.59227e-017
20
0.75
11
0.25
21
0.5
62
4
0
LINE
8
BMD
10
0.25
20
0.5
11
0.25
21
0
62
4
0
LINE
8
BMD
10
0.25
20
0
11
0.25
21
0.5
62
4
0
LINE
8
BMD
10
0.25
20
0.5
11
0.5
21
0.25
62
4
0
LINE
8
BMD
10
0.5
20
0.25
11
0.5
21
0
62
4
0
LINE
8
BMD
10
0.5
20
0
11
0.5
21
0.25
62
4
0
LINE
8
BMD
10
0.5
20
0.25
11
0.75
21
0
62
4
0
LINE
8
BMD
10
0.75
20
0
11
0.75
21
0
62
4
0
LINE
8
Undeflected
10
0
20
0
11
0.25
21
0
62
0
0
LINE
8
Deflected
10
0
20
0
11
0.25
21
-0.0208333
62
1
0
LINE
8
Undeflected
10
0.25
20
0
11
0.5
21
0
62
0
0
LINE
8
Deflected
10
0.25
20
-0.0208333
11
0.5
21
-0.0729167
62
1
0
LINE
8
Undeflected
10
0.5
20
0
11
0.75
21
0
62
0
0
LINE
8
Deflected
10
0.5
20
-0.0729167
11
0.75
21
-0.140625
62
1
0
CIRCLE
8
Undeflected
10
0
20
0
40
0.005
62
0
0
CIRCLE
8
Deflected
10
0
20
0
40
0.005
62
1
0
CIRCLE
8
Undeflected
10
0.25
20
0
40
0.005
62
0
0
CIRCLE
8
Deflected
10
0.25
20
-0.0208333
40
0.005
62
1
0
CIRCLE
8
Undeflected
10
0.5
20
0
40
0.005
62
0
0
CIRCLE
8
Deflected
10
0.5
20
-0.0729167
40
0.005
62
1
0
CIRCLE
8
Undeflected
10
0.75
20
0
40
0.005
62
0
0
CIRCLE
8
Deflected
10
0.75
20
-0.140625
40
0.005
62
1
0
TEXT
8
Information
1
0
10
0.125
20
0
40
0.0125
62
0
0
TEXT
8
Information
1
1
10
0.375
20
0
40
0.0125
62
0
0
TEXT
8
Information
1
2
10
0.625
20
0
40
0.0125
62
0
0
TEXT
8
Information
1
0
10
0.0125
20
0.0125
40
0.0125
62
5
0
TEXT
8
Information
1
1
10
0.2625
20
0.0125
40
0.0125
62
5
0
TEXT
8
Information
1
2
10
0.5125
20
0.0125
40
0.0125
62
5
0
TEXT
8
Information
1
3
10
0.7625
20
0.0125
40
0.0125
62
5
0
LINE
8
Information
10
0.75
20
0
11
0.75
21
-1
62
1
0
ENDSEC
0
EOF
