0
SECTION
2
ENTITIES
0
LINE
8
BMD
10
0
20
0
11
0.08
21
0
62
4
0
LINE
8
BMD
10
0.08
20
0
11
0.04
21
2
62
4
0
LINE
8
BMD
10
0.04
20
2
11
0
21
2
62
4
0
LINE
8
BMD
10
2
20
0
11
2
21
0
62
4
0
LINE
8
BMD
10
2
20
0
11
2
21
2
62
4
0
LINE
8
BMD
10
2
20
2
11
2
21
2
62
4
0
LINE
8
BMD
10
0
20
2
11
5.94314e-19
21
1.99029
62
4
0
LINE
8
BMD
10
5.94314e-19
20
1.99029
11
2
21
1.99735
62
4
0
LINE
8
BMD
10
2
20
1.99735
11
2
21
2
62
4
0
LINE
8
BMD
10
0
20
2
11
0.0302941
21
2
62
4
0
LINE
8
BMD
10
0.0302941
20
2
11
-0.00735294
21
4
62
4
0
LINE
8
BMD
10
-0.00735294
20
4
11
0
21
4
62
4
0
LINE
8
BMD
10
2
20
2
11
2.00265
21
2
62
4
0
LINE
8
BMD
10
2.00265
20
2
11
2.00029
21
4
62
4
0
LINE
8
BMD
10
2.00029
20
4
11
2
21
4
62
4
0
LINE
8
BMD
10
0
20
4
11
-4.50238e-19
21
4.00735
62
4
0
LINE
8
BMD
10
-4.50238e-19
20
4.00735
11
2
21
4.00029
62
4
0
LINE
8
BMD
10
2
20
4.00029
11
2
21
4
62
4
0
LINE
8
Undeflected
10
0
20
0
11
0
21
2
62
0
0
LINE
8
Deflected
10
0
20
0
11
-0.0444444
21
2
62
1
0
LINE
8
Undeflected
10
2
20
0
11
2
21
2
62
0
0
LINE
8
Deflected
10
2.04261
20
0.084902
11
1.95438
21
2.0849
62
1
0
LINE
8
Undeflected
10
0
20
2
11
2
21
2
62
0
0
LINE
8
Deflected
10
-0.0444444
20
2
11
1.95438
21
2.0849
62
1
0
LINE
8
Undeflected
10
0
20
2
11
0
21
4
62
0
0
LINE
8
Deflected
10
-0.0444444
20
2
11
-0.136275
21
3.99647
62
1
0
LINE
8
Undeflected
10
2
20
2
11
2
21
4
62
0
0
LINE
8
Deflected
10
1.95438
20
2.0849
11
1.8649
21
4.08843
62
1
0
LINE
8
Undeflected
10
0
20
4
11
2
21
4
62
0
0
LINE
8
Deflected
10
-0.136275
20
3.99647
11
1.8649
21
4.08843
62
1
0
CIRCLE
8
Undeflected
10
0
20
0
40
0.04
62
0
0
CIRCLE
8
Deflected
10
0
20
0
40
0.04
62
1
0
CIRCLE
8
Undeflected
10
2
20
0
40
0.04
62
0
0
CIRCLE
8
Deflected
10
2.04261
20
0.084902
40
0.04
62
1
0
CIRCLE
8
Undeflected
10
0
20
2
40
0.04
62
0
0
CIRCLE
8
Deflected
10
-0.0444444
20
2
40
0.04
62
1
0
CIRCLE
8
Undeflected
10
2
20
2
40
0.04
62
0
0
CIRCLE
8
Deflected
10
1.95438
20
2.0849
40
0.04
62
1
0
CIRCLE
8
Undeflected
10
0
20
4
40
0.04
62
0
0
CIRCLE
8
Deflected
10
-0.136275
20
3.99647
40
0.04
62
1
0
CIRCLE
8
Undeflected
10
2
20
4
40
0.04
62
0
0
CIRCLE
8
Deflected
10
1.8649
20
4.08843
40
0.04
62
1
0
TEXT
8
Information
1
0
10
0
20
1
40
0.1
62
0
0
TEXT
8
Information
1
1
10
2
20
1
40
0.1
62
0
0
TEXT
8
Information
1
2
10
1
20
2
40
0.1
62
0
0
TEXT
8
Information
1
3
10
0
20
3
40
0.1
62
0
0
TEXT
8
Information
1
4
10
2
20
3
40
0.1
62
0
0
TEXT
8
Information
1
5
10
1
20
4
40
0.1
62
0
0
TEXT
8
Information
1
0
10
0.1
20
0.1
40
0.1
62
5
0
TEXT
8
Information
1
1
10
2.1
20
0.1
40
0.1
62
5
0
TEXT
8
Information
1
2
10
0.1
20
2.1
40
0.1
62
5
0
TEXT
8
Information
1
3
10
2.1
20
2.1
40
0.1
62
5
0
TEXT
8
Information
1
4
10
0.1
20
4.1
40
0.1
62
5
0
TEXT
8
Information
1
5
10
2.1
20
4.1
40
0.1
62
5
0
LINE
8
Information
10
0
20
4
11
0.02
21
4
62
1
0
ENDSEC
0
EOF
