0
SECTION
2
ENTITIES
0
LINE
8
Undeflected
10
0
20
0
11
10
21
0
62
0
0
LINE
8
Deflected
10
0
20
0
11
9.5
21
-1.44671
62
1
0
LINE
8
Undeflected
10
10
20
0
11
20
21
0
62
0
0
LINE
8
Deflected
10
9.5
20
-1.44671
11
19.1549
21
-4.09267
62
1
0
LINE
8
Undeflected
10
20
20
0
11
10
21
10
62
0
0
LINE
8
Deflected
10
19.1549
20
-4.09267
11
10.212
21
8.02433
62
1
0
LINE
8
Undeflected
10
10
20
10
11
0
21
10
62
0
0
LINE
8
Deflected
10
10.212
20
8.02433
11
0
21
10
62
1
0
LINE
8
Undeflected
10
10
20
0
11
10
21
10
62
0
0
LINE
8
Deflected
10
9.5
20
-1.44671
11
10.212
21
8.02433
62
1
0
LINE
8
Undeflected
10
10
20
0
11
0
21
10
62
0
0
LINE
8
Deflected
10
9.5
20
-1.44671
11
0
21
10
62
1
0
CIRCLE
8
Undeflected
10
10
20
0
40
0.227614
62
0
0
CIRCLE
8
Deflected
10
9.5
20
-1.44671
40
0.227614
62
1
0
CIRCLE
8
Undeflected
10
20
20
0
40
0.227614
62
0
0
CIRCLE
8
Deflected
10
19.1549
20
-4.09267
40
0.227614
62
1
0
CIRCLE
8
Undeflected
10
10
20
10
40
0.227614
62
0
0
CIRCLE
8
Deflected
10
10.212
20
8.02433
40
0.227614
62
1
0
CIRCLE
8
Undeflected
10
0
20
10
40
0.227614
62
0
0
CIRCLE
8
Deflected
10
0
20
10
40
0.227614
62
1
0
CIRCLE
8
Undeflected
10
0
20
0
40
0.227614
62
0
0
CIRCLE
8
Deflected
10
0
20
0
40
0.227614
62
1
0
TEXT
8
Information
1
0
10
5
20
0
40
0.569036
62
0
0
TEXT
8
Information
1
1
10
15
20
0
40
0.569036
62
0
0
TEXT
8
Information
1
2
10
15
20
5
40
0.569036
62
0
0
TEXT
8
Information
1
3
10
5
20
10
40
0.569036
62
0
0
TEXT
8
Information
1
4
10
10
20
5
40
0.569036
62
0
0
TEXT
8
Information
1
5
10
5
20
5
40
0.569036
62
0
0
LINE
8
BMD
10
0
20
0
11
4.25195e-016
21
-6.9442
62
4
0
LINE
8
BMD
10
4.25195e-016
20
-6.9442
11
10
21
6.80942
62
4
0
LINE
8
BMD
10
10
20
6.80942
11
10
21
0
62
4
0
LINE
8
BMD
10
10
20
0
11
10
21
-10.6228
62
4
0
LINE
8
BMD
10
10
20
-10.6228
11
20
21
11.6927
62
4
0
LINE
8
BMD
10
20
20
11.6927
11
20
21
0
62
4
0
LINE
8
BMD
10
20
20
0
11
23.2531
21
3.25307
62
4
0
LINE
8
BMD
10
23.2531
20
3.25307
11
7.33597
21
7.33597
62
4
0
LINE
8
BMD
10
7.33597
20
7.33597
11
10
21
10
62
4
0
LINE
8
BMD
10
10
20
10
11
10
21
18.0309
62
4
0
LINE
8
BMD
10
10
20
18.0309
11
-5.16906e-016
21
1.558
62
4
0
LINE
8
BMD
10
-5.16906e-016
20
1.558
11
0
21
10
62
4
0
LINE
8
BMD
10
10
20
0
11
11.3856
21
0
62
4
0
LINE
8
BMD
10
11.3856
20
0
11
8.7225
21
10
62
4
0
LINE
8
BMD
10
8.7225
20
10
11
10
21
10
62
4
0
LINE
8
BMD
10
10
20
0
11
12.3208
21
2.32079
62
4
0
LINE
8
BMD
10
12.3208
20
2.32079
11
-2.47229
21
7.52771
62
4
0
LINE
8
BMD
10
-2.47229
20
7.52771
11
0
21
10
62
4
0
TEXT
8
Information
1
0
10
10.569
20
0.569036
40
0.569036
62
5
0
TEXT
8
Information
1
1
10
20.569
20
0.569036
40
0.569036
62
5
0
TEXT
8
Information
1
2
10
10.569
20
10.569
40
0.569036
62
5
0
TEXT
8
Information
1
3
10
0.569036
20
10.569
40
0.569036
62
5
0
TEXT
8
Information
1
4
10
0.569036
20
0.569036
40
0.569036
62
5
0
LINE
8
Information
10
20
20
0
11
20
21
-0.5
62
1
0
ENDSEC
0
EOF
