0
SECTION
2
ENTITIES
0
LINE
8
BMD
10
0
20
0
11
-0.140621
21
0
62
4
0
LINE
8
BMD
10
-0.140621
20
0
11
-0.160351
21
0.5
62
4
0
LINE
8
BMD
10
-0.160351
20
0.5
11
0
21
0.5
62
4
0
LINE
8
BMD
10
0
20
0.5
11
-0.160351
21
0.5
62
4
0
LINE
8
BMD
10
-0.160351
20
0.5
11
-0.180082
21
1
62
4
0
LINE
8
BMD
10
-0.180082
20
1
11
0
21
1
62
4
0
LINE
8
BMD
10
0
20
1
11
-0.180082
21
1
62
4
0
LINE
8
BMD
10
-0.180082
20
1
11
-0.199813
21
1.5
62
4
0
LINE
8
BMD
10
-0.199813
20
1.5
11
0
21
1.5
62
4
0
LINE
8
BMD
10
0
20
1.5
11
-0.199813
21
1.5
62
4
0
LINE
8
BMD
10
-0.199813
20
1.5
11
-0.219544
21
2
62
4
0
LINE
8
BMD
10
-0.219544
20
2
11
0
21
2
62
4
0
LINE
8
BMD
10
0
20
2
11
-0.219544
21
2
62
4
0
LINE
8
BMD
10
-0.219544
20
2
11
-0.239275
21
2.5
62
4
0
LINE
8
BMD
10
-0.239275
20
2.5
11
0
21
2.5
62
4
0
LINE
8
BMD
10
0
20
2.5
11
-0.239275
21
2.5
62
4
0
LINE
8
BMD
10
-0.239275
20
2.5
11
-0.259006
21
3
62
4
0
LINE
8
BMD
10
-0.259006
20
3
11
0
21
3
62
4
0
LINE
8
BMD
10
0
20
3
11
-0.259006
21
3
62
4
0
LINE
8
BMD
10
-0.259006
20
3
11
-0.278736
21
3.5
62
4
0
LINE
8
BMD
10
-0.278736
20
3.5
11
0
21
3.5
62
4
0
LINE
8
BMD
10
0
20
3.5
11
-0.278736
21
3.5
62
4
0
LINE
8
BMD
10
-0.278736
20
3.5
11
-0.298467
21
4
62
4
0
LINE
8
BMD
10
-0.298467
20
4
11
0
21
4
62
4
0
LINE
8
BMD
10
0
20
4
11
-0.355972
21
4
62
4
0
LINE
8
BMD
10
-0.355972
20
4
11
-0.376391
21
4.5
62
4
0
LINE
8
BMD
10
-0.376391
20
4.5
11
0
21
4.5
62
4
0
LINE
8
BMD
10
0
20
4.5
11
-0.376391
21
4.5
62
4
0
LINE
8
BMD
10
-0.376391
20
4.5
11
-0.39681
21
5
62
4
0
LINE
8
BMD
10
-0.39681
20
5
11
0
21
5
62
4
0
LINE
8
BMD
10
0
20
5
11
-0.39681
21
5
62
4
0
LINE
8
BMD
10
-0.39681
20
5
11
-0.417229
21
5.5
62
4
0
LINE
8
BMD
10
-0.417229
20
5.5
11
0
21
5.5
62
4
0
LINE
8
BMD
10
0
20
5.5
11
-0.417229
21
5.5
62
4
0
LINE
8
BMD
10
-0.417229
20
5.5
11
-0.437649
21
6
62
4
0
LINE
8
BMD
10
-0.437649
20
6
11
0
21
6
62
4
0
LINE
8
BMD
10
0
20
6
11
-0.437649
21
6
62
4
0
LINE
8
BMD
10
-0.437649
20
6
11
-0.458068
21
6.5
62
4
0
LINE
8
BMD
10
-0.458068
20
6.5
11
0
21
6.5
62
4
0
LINE
8
BMD
10
0
20
6.5
11
-0.458068
21
6.5
62
4
0
LINE
8
BMD
10
-0.458068
20
6.5
11
-0.478487
21
7
62
4
0
LINE
8
BMD
10
-0.478487
20
7
11
0
21
7
62
4
0
LINE
8
BMD
10
0
20
7
11
-0.478487
21
7
62
4
0
LINE
8
BMD
10
-0.478487
20
7
11
-0.498906
21
7.5
62
4
0
LINE
8
BMD
10
-0.498906
20
7.5
11
0
21
7.5
62
4
0
LINE
8
BMD
10
0
20
7.5
11
-0.498906
21
7.5
62
4
0
LINE
8
BMD
10
-0.498906
20
7.5
11
-0.519325
21
8
62
4
0
LINE
8
BMD
10
-0.519325
20
8
11
0
21
8
62
4
0
LINE
8
BMD
10
0
20
8
11
2.94319e-017
21
7.51932
62
4
0
LINE
8
BMD
10
2.94319e-017
20
7.51932
11
1
21
7.58478
62
4
0
LINE
8
BMD
10
1
20
7.58478
11
1
21
8
62
4
0
LINE
8
BMD
10
1
20
8
11
1
21
7.58478
62
4
0
LINE
8
BMD
10
1
20
7.58478
11
2
21
7.65023
62
4
0
LINE
8
BMD
10
2
20
7.65023
11
2
21
8
62
4
0
LINE
8
BMD
10
2
20
8
11
2
21
7.65023
62
4
0
LINE
8
BMD
10
2
20
7.65023
11
3
21
7.71568
62
4
0
LINE
8
BMD
10
3
20
7.71568
11
3
21
8
62
4
0
LINE
8
BMD
10
3
20
8
11
3
21
7.71568
62
4
0
LINE
8
BMD
10
3
20
7.71568
11
4
21
7.78113
62
4
0
LINE
8
BMD
10
4
20
7.78113
11
4
21
8
62
4
0
LINE
8
BMD
10
4
20
8
11
4
21
7.78113
62
4
0
LINE
8
BMD
10
4
20
7.78113
11
5
21
7.84658
62
4
0
LINE
8
BMD
10
5
20
7.84658
11
5
21
8
62
4
0
LINE
8
BMD
10
5
20
8
11
5
21
7.84658
62
4
0
LINE
8
BMD
10
5
20
7.84658
11
6
21
7.91203
62
4
0
LINE
8
BMD
10
6
20
7.91203
11
6
21
8
62
4
0
LINE
8
BMD
10
6
20
8
11
6
21
7.91203
62
4
0
LINE
8
BMD
10
6
20
7.91203
11
7
21
7.97748
62
4
0
LINE
8
BMD
10
7
20
7.97748
11
7
21
8
62
4
0
LINE
8
BMD
10
7
20
8
11
7
21
7.97748
62
4
0
LINE
8
BMD
10
7
20
7.97748
11
8
21
8.04293
62
4
0
LINE
8
BMD
10
8
20
8.04293
11
8
21
8
62
4
0
LINE
8
BMD
10
8
20
8
11
7.95707
21
8
62
4
0
LINE
8
BMD
10
7.95707
20
8
11
7.97749
21
7.5
62
4
0
LINE
8
BMD
10
7.97749
20
7.5
11
8
21
7.5
62
4
0
LINE
8
BMD
10
8
20
7.5
11
7.97749
21
7.5
62
4
0
LINE
8
BMD
10
7.97749
20
7.5
11
7.99791
21
7
62
4
0
LINE
8
BMD
10
7.99791
20
7
11
8
21
7
62
4
0
LINE
8
BMD
10
8
20
7
11
7.99791
21
7
62
4
0
LINE
8
BMD
10
7.99791
20
7
11
8.01833
21
6.5
62
4
0
LINE
8
BMD
10
8.01833
20
6.5
11
8
21
6.5
62
4
0
LINE
8
BMD
10
8
20
6.5
11
8.01833
21
6.5
62
4
0
LINE
8
BMD
10
8.01833
20
6.5
11
8.03875
21
6
62
4
0
LINE
8
BMD
10
8.03875
20
6
11
8
21
6
62
4
0
LINE
8
BMD
10
8
20
6
11
8.03875
21
6
62
4
0
LINE
8
BMD
10
8.03875
20
6
11
8.05917
21
5.5
62
4
0
LINE
8
BMD
10
8.05917
20
5.5
11
8
21
5.5
62
4
0
LINE
8
BMD
10
8
20
5.5
11
8.05917
21
5.5
62
4
0
LINE
8
BMD
10
8.05917
20
5.5
11
8.07959
21
5
62
4
0
LINE
8
BMD
10
8.07959
20
5
11
8
21
5
62
4
0
LINE
8
BMD
10
8
20
5
11
8.07959
21
5
62
4
0
LINE
8
BMD
10
8.07959
20
5
11
8.10001
21
4.5
62
4
0
LINE
8
BMD
10
8.10001
20
4.5
11
8
21
4.5
62
4
0
LINE
8
BMD
10
8
20
4.5
11
8.10001
21
4.5
62
4
0
LINE
8
BMD
10
8.10001
20
4.5
11
8.12043
21
4
62
4
0
LINE
8
BMD
10
8.12043
20
4
11
8
21
4
62
4
0
LINE
8
BMD
10
8
20
4
11
8.10177
21
4
62
4
0
LINE
8
BMD
10
8.10177
20
4
11
8.1215
21
3.5
62
4
0
LINE
8
BMD
10
8.1215
20
3.5
11
8
21
3.5
62
4
0
LINE
8
BMD
10
8
20
3.5
11
8.1215
21
3.5
62
4
0
LINE
8
BMD
10
8.1215
20
3.5
11
8.14123
21
3
62
4
0
LINE
8
BMD
10
8.14123
20
3
11
8
21
3
62
4
0
LINE
8
BMD
10
8
20
3
11
8.14123
21
3
62
4
0
LINE
8
BMD
10
8.14123
20
3
11
8.16096
21
2.5
62
4
0
LINE
8
BMD
10
8.16096
20
2.5
11
8
21
2.5
62
4
0
LINE
8
BMD
10
8
20
2.5
11
8.16096
21
2.5
62
4
0
LINE
8
BMD
10
8.16096
20
2.5
11
8.18069
21
2
62
4
0
LINE
8
BMD
10
8.18069
20
2
11
8
21
2
62
4
0
LINE
8
BMD
10
8
20
2
11
8.18069
21
2
62
4
0
LINE
8
BMD
10
8.18069
20
2
11
8.20042
21
1.5
62
4
0
LINE
8
BMD
10
8.20042
20
1.5
11
8
21
1.5
62
4
0
LINE
8
BMD
10
8
20
1.5
11
8.20042
21
1.5
62
4
0
LINE
8
BMD
10
8.20042
20
1.5
11
8.22016
21
1
62
4
0
LINE
8
BMD
10
8.22016
20
1
11
8
21
1
62
4
0
LINE
8
BMD
10
8
20
1
11
8.22016
21
1
62
4
0
LINE
8
BMD
10
8.22016
20
1
11
8.23989
21
0.5
62
4
0
LINE
8
BMD
10
8.23989
20
0.5
11
8
21
0.5
62
4
0
LINE
8
BMD
10
8
20
0.5
11
8.23989
21
0.5
62
4
0
LINE
8
BMD
10
8.23989
20
0.5
11
8.25962
21
0
62
4
0
LINE
8
BMD
10
8.25962
20
0
11
8
21
0
62
4
0
LINE
8
BMD
10
0
20
4
11
3.52105e-018
21
3.94249
62
4
0
LINE
8
BMD
10
3.52105e-018
20
3.94249
11
1
21
3.95202
62
4
0
LINE
8
BMD
10
1
20
3.95202
11
1
21
4
62
4
0
LINE
8
BMD
10
1
20
4
11
1
21
3.95202
62
4
0
LINE
8
BMD
10
1
20
3.95202
11
2
21
3.96154
62
4
0
LINE
8
BMD
10
2
20
3.96154
11
2
21
4
62
4
0
LINE
8
BMD
10
2
20
4
11
2
21
3.96154
62
4
0
LINE
8
BMD
10
2
20
3.96154
11
3
21
3.97106
62
4
0
LINE
8
BMD
10
3
20
3.97106
11
3
21
4
62
4
0
LINE
8
BMD
10
3
20
4
11
3
21
3.97106
62
4
0
LINE
8
BMD
10
3
20
3.97106
11
4
21
3.98058
62
4
0
LINE
8
BMD
10
4
20
3.98058
11
4
21
4
62
4
0
LINE
8
BMD
10
4
20
4
11
4
21
3.98058
62
4
0
LINE
8
BMD
10
4
20
3.98058
11
5
21
3.9901
62
4
0
LINE
8
BMD
10
5
20
3.9901
11
5
21
4
62
4
0
LINE
8
BMD
10
5
20
4
11
5
21
3.9901
62
4
0
LINE
8
BMD
10
5
20
3.9901
11
6
21
3.99962
62
4
0
LINE
8
BMD
10
6
20
3.99962
11
6
21
4
62
4
0
LINE
8
BMD
10
6
20
4
11
6
21
3.99962
62
4
0
LINE
8
BMD
10
6
20
3.99962
11
7
21
4.00914
62
4
0
LINE
8
BMD
10
7
20
4.00914
11
7
21
4
62
4
0
LINE
8
BMD
10
7
20
4
11
7
21
4.00914
62
4
0
LINE
8
BMD
10
7
20
4.00914
11
8
21
4.01866
62
4
0
LINE
8
BMD
10
8
20
4.01866
11
8
21
4
62
4
0
LINE
8
Undeflected
10
0
20
0
11
0
21
0.5
62
0
0
LINE
8
Deflected
10
0
20
0
11
-0.000183997
21
0.496251
62
1
0
LINE
8
Undeflected
10
0
20
0.5
11
0
21
1
62
0
0
LINE
8
Deflected
10
-0.000183997
20
0.496251
11
-0.000768873
21
0.992503
62
1
0
LINE
8
Undeflected
10
0
20
1
11
0
21
1.5
62
0
0
LINE
8
Deflected
10
-0.000768873
20
0.992503
11
-0.00180395
21
1.48875
62
1
0
LINE
8
Undeflected
10
0
20
1.5
11
0
21
2
62
0
0
LINE
8
Deflected
10
-0.00180395
20
1.48875
11
-0.00333857
21
1.98501
62
1
0
LINE
8
Undeflected
10
0
20
2
11
0
21
2.5
62
0
0
LINE
8
Deflected
10
-0.00333857
20
1.98501
11
-0.00542204
21
2.48126
62
1
0
LINE
8
Undeflected
10
0
20
2.5
11
0
21
3
62
0
0
LINE
8
Deflected
10
-0.00542204
20
2.48126
11
-0.0081037
21
2.97751
62
1
0
LINE
8
Undeflected
10
0
20
3
11
0
21
3.5
62
0
0
LINE
8
Deflected
10
-0.0081037
20
2.97751
11
-0.0114329
21
3.47376
62
1
0
LINE
8
Undeflected
10
0
20
3.5
11
0
21
4
62
0
0
LINE
8
Deflected
10
-0.0114329
20
3.47376
11
-0.0154589
21
3.97001
62
1
0
LINE
8
Undeflected
10
0
20
4
11
0
21
4.5
62
0
0
LINE
8
Deflected
10
-0.0154589
20
3.97001
11
-0.0203032
21
4.46674
62
1
0
LINE
8
Undeflected
10
0
20
4.5
11
0
21
5
62
0
0
LINE
8
Deflected
10
-0.0203032
20
4.46674
11
-0.0260886
21
4.96347
62
1
0
LINE
8
Undeflected
10
0
20
5
11
0
21
5.5
62
0
0
LINE
8
Deflected
10
-0.0260886
20
4.96347
11
-0.0328659
21
5.46019
62
1
0
LINE
8
Undeflected
10
0
20
5.5
11
0
21
6
62
0
0
LINE
8
Deflected
10
-0.0328659
20
5.46019
11
-0.0406864
21
5.95692
62
1
0
LINE
8
Undeflected
10
0
20
6
11
0
21
6.5
62
0
0
LINE
8
Deflected
10
-0.0406864
20
5.95692
11
-0.0496009
21
6.45365
62
1
0
LINE
8
Undeflected
10
0
20
6.5
11
0
21
7
62
0
0
LINE
8
Deflected
10
-0.0496009
20
6.45365
11
-0.0596606
21
6.95038
62
1
0
LINE
8
Undeflected
10
0
20
7
11
0
21
7.5
62
0
0
LINE
8
Deflected
10
-0.0596606
20
6.95038
11
-0.0709166
21
7.4471
62
1
0
LINE
8
Undeflected
10
0
20
7.5
11
0
21
8
62
0
0
LINE
8
Deflected
10
-0.0709166
20
7.4471
11
-0.0834198
21
7.94383
62
1
0
LINE
8
Undeflected
10
0
20
8
11
1
21
8
62
0
0
LINE
8
Deflected
10
-0.0834198
20
7.94383
11
0.920664
21
7.96783
62
1
0
LINE
8
Undeflected
10
1
20
8
11
2
21
8
62
0
0
LINE
8
Deflected
10
0.920664
20
7.96783
11
1.92475
21
7.98767
62
1
0
LINE
8
Undeflected
10
2
20
8
11
3
21
8
62
0
0
LINE
8
Deflected
10
1.92475
20
7.98767
11
2.92883
21
8.00401
62
1
0
LINE
8
Undeflected
10
3
20
8
11
4
21
8
62
0
0
LINE
8
Deflected
10
2.92883
20
8.00401
11
3.93292
21
8.01751
62
1
0
LINE
8
Undeflected
10
4
20
8
11
5
21
8
62
0
0
LINE
8
Deflected
10
3.93292
20
8.01751
11
4.937
21
8.02882
62
1
0
LINE
8
Undeflected
10
5
20
8
11
6
21
8
62
0
0
LINE
8
Deflected
10
4.937
20
8.02882
11
5.94108
21
8.0386
62
1
0
LINE
8
Undeflected
10
6
20
8
11
7
21
8
62
0
0
LINE
8
Deflected
10
5.94108
20
8.0386
11
6.94517
21
8.0475
62
1
0
LINE
8
Undeflected
10
7
20
8
11
8
21
8
62
0
0
LINE
8
Deflected
10
6.94517
20
8.0475
11
7.94925
21
8.05617
62
1
0
LINE
8
Undeflected
10
8
20
8
11
8
21
7.5
62
0
0
LINE
8
Deflected
10
7.94925
20
8.05617
11
7.95368
21
7.5529
62
1
0
LINE
8
Undeflected
10
8
20
7.5
11
8
21
7
62
0
0
LINE
8
Deflected
10
7.95368
20
7.5529
11
7.95818
21
7.04962
62
1
0
LINE
8
Undeflected
10
8
20
7
11
8
21
6.5
62
0
0
LINE
8
Deflected
10
7.95818
20
7.04962
11
7.96267
21
6.54635
62
1
0
LINE
8
Undeflected
10
8
20
6.5
11
8
21
6
62
0
0
LINE
8
Deflected
10
7.96267
20
6.54635
11
7.96712
21
6.04308
62
1
0
LINE
8
Undeflected
10
8
20
6
11
8
21
5.5
62
0
0
LINE
8
Deflected
10
7.96712
20
6.04308
11
7.97147
21
5.53981
62
1
0
LINE
8
Undeflected
10
8
20
5.5
11
8
21
5
62
0
0
LINE
8
Deflected
10
7.97147
20
5.53981
11
7.97568
21
5.03653
62
1
0
LINE
8
Undeflected
10
8
20
5
11
8
21
4.5
62
0
0
LINE
8
Deflected
10
7.97568
20
5.03653
11
7.97968
21
4.53326
62
1
0
LINE
8
Undeflected
10
8
20
4.5
11
8
21
4
62
0
0
LINE
8
Deflected
10
7.97968
20
4.53326
11
7.98344
21
4.02999
62
1
0
LINE
8
Undeflected
10
8
20
4
11
8
21
3.5
62
0
0
LINE
8
Deflected
10
7.98344
20
4.02999
11
7.98692
21
3.52624
62
1
0
LINE
8
Undeflected
10
8
20
3.5
11
8
21
3
62
0
0
LINE
8
Deflected
10
7.98692
20
3.52624
11
7.99009
21
3.02249
62
1
0
LINE
8
Undeflected
10
8
20
3
11
8
21
2.5
62
0
0
LINE
8
Deflected
10
7.99009
20
3.02249
11
7.99291
21
2.51874
62
1
0
LINE
8
Undeflected
10
8
20
2.5
11
8
21
2
62
0
0
LINE
8
Deflected
10
7.99291
20
2.51874
11
7.99533
21
2.01499
62
1
0
LINE
8
Undeflected
10
8
20
2
11
8
21
1.5
62
0
0
LINE
8
Deflected
10
7.99533
20
2.01499
11
7.9973
21
1.51125
62
1
0
LINE
8
Undeflected
10
8
20
1.5
11
8
21
1
62
0
0
LINE
8
Deflected
10
7.9973
20
1.51125
11
7.99877
21
1.0075
62
1
0
LINE
8
Undeflected
10
8
20
1
11
8
21
0.5
62
0
0
LINE
8
Deflected
10
7.99877
20
1.0075
11
7.99968
21
0.503749
62
1
0
LINE
8
Undeflected
10
8
20
0.5
11
8
21
0
62
0
0
LINE
8
Deflected
10
7.99968
20
0.503749
11
8
21
0
62
1
0
LINE
8
Undeflected
10
0
20
4
11
1
21
4
62
0
0
LINE
8
Deflected
10
-0.0154589
20
3.97001
11
0.984403
21
3.97852
62
1
0
LINE
8
Undeflected
10
1
20
4
11
2
21
4
62
0
0
LINE
8
Deflected
10
0.984403
20
3.97852
11
1.98427
21
3.98655
62
1
0
LINE
8
Undeflected
10
2
20
4
11
3
21
4
62
0
0
LINE
8
Deflected
10
1.98427
20
3.98655
11
2.98413
21
3.9942
62
1
0
LINE
8
Undeflected
10
3
20
4
11
4
21
4
62
0
0
LINE
8
Deflected
10
2.98413
20
3.9942
11
3.98399
21
4.00155
62
1
0
LINE
8
Undeflected
10
4
20
4
11
5
21
4
62
0
0
LINE
8
Deflected
10
3.98399
20
4.00155
11
4.98385
21
4.00872
62
1
0
LINE
8
Undeflected
10
5
20
4
11
6
21
4
62
0
0
LINE
8
Deflected
10
4.98385
20
4.00872
11
5.98372
21
4.01578
62
1
0
LINE
8
Undeflected
10
6
20
4
11
7
21
4
62
0
0
LINE
8
Deflected
10
5.98372
20
4.01578
11
6.98358
21
4.02284
62
1
0
LINE
8
Undeflected
10
7
20
4
11
8
21
4
62
0
0
LINE
8
Deflected
10
6.98358
20
4.02284
11
7.98344
21
4.02999
62
1
0
CIRCLE
8
Undeflected
10
0
20
0
40
0.0133333
62
0
0
CIRCLE
8
Deflected
10
0
20
0
40
0.0133333
62
1
0
CIRCLE
8
Undeflected
10
0
20
0.5
40
0.0133333
62
0
0
CIRCLE
8
Deflected
10
-0.000183997
20
0.496251
40
0.0133333
62
1
0
CIRCLE
8
Undeflected
10
0
20
1
40
0.0133333
62
0
0
CIRCLE
8
Deflected
10
-0.000768873
20
0.992503
40
0.0133333
62
1
0
CIRCLE
8
Undeflected
10
0
20
1.5
40
0.0133333
62
0
0
CIRCLE
8
Deflected
10
-0.00180395
20
1.48875
40
0.0133333
62
1
0
CIRCLE
8
Undeflected
10
0
20
2
40
0.0133333
62
0
0
CIRCLE
8
Deflected
10
-0.00333857
20
1.98501
40
0.0133333
62
1
0
CIRCLE
8
Undeflected
10
0
20
2.5
40
0.0133333
62
0
0
CIRCLE
8
Deflected
10
-0.00542204
20
2.48126
40
0.0133333
62
1
0
CIRCLE
8
Undeflected
10
0
20
3
40
0.0133333
62
0
0
CIRCLE
8
Deflected
10
-0.0081037
20
2.97751
40
0.0133333
62
1
0
CIRCLE
8
Undeflected
10
0
20
3.5
40
0.0133333
62
0
0
CIRCLE
8
Deflected
10
-0.0114329
20
3.47376
40
0.0133333
62
1
0
CIRCLE
8
Undeflected
10
0
20
4
40
0.0133333
62
0
0
CIRCLE
8
Deflected
10
-0.0154589
20
3.97001
40
0.0133333
62
1
0
CIRCLE
8
Undeflected
10
0
20
4.5
40
0.0133333
62
0
0
CIRCLE
8
Deflected
10
-0.0203032
20
4.46674
40
0.0133333
62
1
0
CIRCLE
8
Undeflected
10
0
20
5
40
0.0133333
62
0
0
CIRCLE
8
Deflected
10
-0.0260886
20
4.96347
40
0.0133333
62
1
0
CIRCLE
8
Undeflected
10
0
20
5.5
40
0.0133333
62
0
0
CIRCLE
8
Deflected
10
-0.0328659
20
5.46019
40
0.0133333
62
1
0
CIRCLE
8
Undeflected
10
0
20
6
40
0.0133333
62
0
0
CIRCLE
8
Deflected
10
-0.0406864
20
5.95692
40
0.0133333
62
1
0
CIRCLE
8
Undeflected
10
0
20
6.5
40
0.0133333
62
0
0
CIRCLE
8
Deflected
10
-0.0496009
20
6.45365
40
0.0133333
62
1
0
CIRCLE
8
Undeflected
10
0
20
7
40
0.0133333
62
0
0
CIRCLE
8
Deflected
10
-0.0596606
20
6.95038
40
0.0133333
62
1
0
CIRCLE
8
Undeflected
10
0
20
7.5
40
0.0133333
62
0
0
CIRCLE
8
Deflected
10
-0.0709166
20
7.4471
40
0.0133333
62
1
0
CIRCLE
8
Undeflected
10
0
20
8
40
0.0133333
62
0
0
CIRCLE
8
Deflected
10
-0.0834198
20
7.94383
40
0.0133333
62
1
0
CIRCLE
8
Undeflected
10
1
20
8
40
0.0133333
62
0
0
CIRCLE
8
Deflected
10
0.920664
20
7.96783
40
0.0133333
62
1
0
CIRCLE
8
Undeflected
10
2
20
8
40
0.0133333
62
0
0
CIRCLE
8
Deflected
10
1.92475
20
7.98767
40
0.0133333
62
1
0
CIRCLE
8
Undeflected
10
3
20
8
40
0.0133333
62
0
0
CIRCLE
8
Deflected
10
2.92883
20
8.00401
40
0.0133333
62
1
0
CIRCLE
8
Undeflected
10
4
20
8
40
0.0133333
62
0
0
CIRCLE
8
Deflected
10
3.93292
20
8.01751
40
0.0133333
62
1
0
CIRCLE
8
Undeflected
10
5
20
8
40
0.0133333
62
0
0
CIRCLE
8
Deflected
10
4.937
20
8.02882
40
0.0133333
62
1
0
CIRCLE
8
Undeflected
10
6
20
8
40
0.0133333
62
0
0
CIRCLE
8
Deflected
10
5.94108
20
8.0386
40
0.0133333
62
1
0
CIRCLE
8
Undeflected
10
7
20
8
40
0.0133333
62
0
0
CIRCLE
8
Deflected
10
6.94517
20
8.0475
40
0.0133333
62
1
0
CIRCLE
8
Undeflected
10
8
20
8
40
0.0133333
62
0
0
CIRCLE
8
Deflected
10
7.94925
20
8.05617
40
0.0133333
62
1
0
CIRCLE
8
Undeflected
10
8
20
7.5
40
0.0133333
62
0
0
CIRCLE
8
Deflected
10
7.95368
20
7.5529
40
0.0133333
62
1
0
CIRCLE
8
Undeflected
10
8
20
7
40
0.0133333
62
0
0
CIRCLE
8
Deflected
10
7.95818
20
7.04962
40
0.0133333
62
1
0
CIRCLE
8
Undeflected
10
8
20
6.5
40
0.0133333
62
0
0
CIRCLE
8
Deflected
10
7.96267
20
6.54635
40
0.0133333
62
1
0
CIRCLE
8
Undeflected
10
8
20
6
40
0.0133333
62
0
0
CIRCLE
8
Deflected
10
7.96712
20
6.04308
40
0.0133333
62
1
0
CIRCLE
8
Undeflected
10
8
20
5.5
40
0.0133333
62
0
0
CIRCLE
8
Deflected
10
7.97147
20
5.53981
40
0.0133333
62
1
0
CIRCLE
8
Undeflected
10
8
20
5
40
0.0133333
62
0
0
CIRCLE
8
Deflected
10
7.97568
20
5.03653
40
0.0133333
62
1
0
CIRCLE
8
Undeflected
10
8
20
4.5
40
0.0133333
62
0
0
CIRCLE
8
Deflected
10
7.97968
20
4.53326
40
0.0133333
62
1
0
CIRCLE
8
Undeflected
10
8
20
4
40
0.0133333
62
0
0
CIRCLE
8
Deflected
10
7.98344
20
4.02999
40
0.0133333
62
1
0
CIRCLE
8
Undeflected
10
8
20
3.5
40
0.0133333
62
0
0
CIRCLE
8
Deflected
10
7.98692
20
3.52624
40
0.0133333
62
1
0
CIRCLE
8
Undeflected
10
8
20
3
40
0.0133333
62
0
0
CIRCLE
8
Deflected
10
7.99009
20
3.02249
40
0.0133333
62
1
0
CIRCLE
8
Undeflected
10
8
20
2.5
40
0.0133333
62
0
0
CIRCLE
8
Deflected
10
7.99291
20
2.51874
40
0.0133333
62
1
0
CIRCLE
8
Undeflected
10
8
20
2
40
0.0133333
62
0
0
CIRCLE
8
Deflected
10
7.99533
20
2.01499
40
0.0133333
62
1
0
CIRCLE
8
Undeflected
10
8
20
1.5
40
0.0133333
62
0
0
CIRCLE
8
Deflected
10
7.9973
20
1.51125
40
0.0133333
62
1
0
CIRCLE
8
Undeflected
10
8
20
1
40
0.0133333
62
0
0
CIRCLE
8
Deflected
10
7.99877
20
1.0075
40
0.0133333
62
1
0
CIRCLE
8
Undeflected
10
8
20
0.5
40
0.0133333
62
0
0
CIRCLE
8
Deflected
10
7.99968
20
0.503749
40
0.0133333
62
1
0
CIRCLE
8
Undeflected
10
8
20
0
40
0.0133333
62
0
0
CIRCLE
8
Deflected
10
8
20
0
40
0.0133333
62
1
0
CIRCLE
8
Undeflected
10
1
20
4
40
0.0133333
62
0
0
CIRCLE
8
Deflected
10
0.984403
20
3.97852
40
0.0133333
62
1
0
CIRCLE
8
Undeflected
10
2
20
4
40
0.0133333
62
0
0
CIRCLE
8
Deflected
10
1.98427
20
3.98655
40
0.0133333
62
1
0
CIRCLE
8
Undeflected
10
3
20
4
40
0.0133333
62
0
0
CIRCLE
8
Deflected
10
2.98413
20
3.9942
40
0.0133333
62
1
0
CIRCLE
8
Undeflected
10
4
20
4
40
0.0133333
62
0
0
CIRCLE
8
Deflected
10
3.98399
20
4.00155
40
0.0133333
62
1
0
CIRCLE
8
Undeflected
10
5
20
4
40
0.0133333
62
0
0
CIRCLE
8
Deflected
10
4.98385
20
4.00872
40
0.0133333
62
1
0
CIRCLE
8
Undeflected
10
6
20
4
40
0.0133333
62
0
0
CIRCLE
8
Deflected
10
5.98372
20
4.01578
40
0.0133333
62
1
0
CIRCLE
8
Undeflected
10
7
20
4
40
0.0133333
62
0
0
CIRCLE
8
Deflected
10
6.98358
20
4.02284
40
0.0133333
62
1
0
TEXT
8
Information
1
0
10
0
20
0.25
40
0.0333333
62
0
0
TEXT
8
Information
1
1
10
0
20
0.75
40
0.0333333
62
0
0
TEXT
8
Information
1
2
10
0
20
1.25
40
0.0333333
62
0
0
TEXT
8
Information
1
3
10
0
20
1.75
40
0.0333333
62
0
0
TEXT
8
Information
1
4
10
0
20
2.25
40
0.0333333
62
0
0
TEXT
8
Information
1
5
10
0
20
2.75
40
0.0333333
62
0
0
TEXT
8
Information
1
6
10
0
20
3.25
40
0.0333333
62
0
0
TEXT
8
Information
1
7
10
0
20
3.75
40
0.0333333
62
0
0
TEXT
8
Information
1
8
10
0
20
4.25
40
0.0333333
62
0
0
TEXT
8
Information
1
9
10
0
20
4.75
40
0.0333333
62
0
0
TEXT
8
Information
1
10
10
0
20
5.25
40
0.0333333
62
0
0
TEXT
8
Information
1
11
10
0
20
5.75
40
0.0333333
62
0
0
TEXT
8
Information
1
12
10
0
20
6.25
40
0.0333333
62
0
0
TEXT
8
Information
1
13
10
0
20
6.75
40
0.0333333
62
0
0
TEXT
8
Information
1
14
10
0
20
7.25
40
0.0333333
62
0
0
TEXT
8
Information
1
15
10
0
20
7.75
40
0.0333333
62
0
0
TEXT
8
Information
1
16
10
0.5
20
8
40
0.0333333
62
0
0
TEXT
8
Information
1
17
10
1.5
20
8
40
0.0333333
62
0
0
TEXT
8
Information
1
18
10
2.5
20
8
40
0.0333333
62
0
0
TEXT
8
Information
1
19
10
3.5
20
8
40
0.0333333
62
0
0
TEXT
8
Information
1
20
10
4.5
20
8
40
0.0333333
62
0
0
TEXT
8
Information
1
21
10
5.5
20
8
40
0.0333333
62
0
0
TEXT
8
Information
1
22
10
6.5
20
8
40
0.0333333
62
0
0
TEXT
8
Information
1
23
10
7.5
20
8
40
0.0333333
62
0
0
TEXT
8
Information
1
24
10
8
20
7.75
40
0.0333333
62
0
0
TEXT
8
Information
1
25
10
8
20
7.25
40
0.0333333
62
0
0
TEXT
8
Information
1
26
10
8
20
6.75
40
0.0333333
62
0
0
TEXT
8
Information
1
27
10
8
20
6.25
40
0.0333333
62
0
0
TEXT
8
Information
1
28
10
8
20
5.75
40
0.0333333
62
0
0
TEXT
8
Information
1
29
10
8
20
5.25
40
0.0333333
62
0
0
TEXT
8
Information
1
30
10
8
20
4.75
40
0.0333333
62
0
0
TEXT
8
Information
1
31
10
8
20
4.25
40
0.0333333
62
0
0
TEXT
8
Information
1
32
10
8
20
3.75
40
0.0333333
62
0
0
TEXT
8
Information
1
33
10
8
20
3.25
40
0.0333333
62
0
0
TEXT
8
Information
1
34
10
8
20
2.75
40
0.0333333
62
0
0
TEXT
8
Information
1
35
10
8
20
2.25
40
0.0333333
62
0
0
TEXT
8
Information
1
36
10
8
20
1.75
40
0.0333333
62
0
0
TEXT
8
Information
1
37
10
8
20
1.25
40
0.0333333
62
0
0
TEXT
8
Information
1
38
10
8
20
0.75
40
0.0333333
62
0
0
TEXT
8
Information
1
39
10
8
20
0.25
40
0.0333333
62
0
0
TEXT
8
Information
1
40
10
0.5
20
4
40
0.0333333
62
0
0
TEXT
8
Information
1
41
10
1.5
20
4
40
0.0333333
62
0
0
TEXT
8
Information
1
42
10
2.5
20
4
40
0.0333333
62
0
0
TEXT
8
Information
1
43
10
3.5
20
4
40
0.0333333
62
0
0
TEXT
8
Information
1
44
10
4.5
20
4
40
0.0333333
62
0
0
TEXT
8
Information
1
45
10
5.5
20
4
40
0.0333333
62
0
0
TEXT
8
Information
1
46
10
6.5
20
4
40
0.0333333
62
0
0
TEXT
8
Information
1
47
10
7.5
20
4
40
0.0333333
62
0
0
TEXT
8
Information
1
0
10
0.0333333
20
0.0333333
40
0.0333333
62
5
0
TEXT
8
Information
1
1
10
0.0333333
20
0.533333
40
0.0333333
62
5
0
TEXT
8
Information
1
2
10
0.0333333
20
1.03333
40
0.0333333
62
5
0
TEXT
8
Information
1
3
10
0.0333333
20
1.53333
40
0.0333333
62
5
0
TEXT
8
Information
1
4
10
0.0333333
20
2.03333
40
0.0333333
62
5
0
TEXT
8
Information
1
5
10
0.0333333
20
2.53333
40
0.0333333
62
5
0
TEXT
8
Information
1
6
10
0.0333333
20
3.03333
40
0.0333333
62
5
0
TEXT
8
Information
1
7
10
0.0333333
20
3.53333
40
0.0333333
62
5
0
TEXT
8
Information
1
8
10
0.0333333
20
4.03333
40
0.0333333
62
5
0
TEXT
8
Information
1
9
10
0.0333333
20
4.53333
40
0.0333333
62
5
0
TEXT
8
Information
1
10
10
0.0333333
20
5.03333
40
0.0333333
62
5
0
TEXT
8
Information
1
11
10
0.0333333
20
5.53333
40
0.0333333
62
5
0
TEXT
8
Information
1
12
10
0.0333333
20
6.03333
40
0.0333333
62
5
0
TEXT
8
Information
1
13
10
0.0333333
20
6.53333
40
0.0333333
62
5
0
TEXT
8
Information
1
14
10
0.0333333
20
7.03333
40
0.0333333
62
5
0
TEXT
8
Information
1
15
10
0.0333333
20
7.53333
40
0.0333333
62
5
0
TEXT
8
Information
1
16
10
0.0333333
20
8.03333
40
0.0333333
62
5
0
TEXT
8
Information
1
17
10
1.03333
20
8.03333
40
0.0333333
62
5
0
TEXT
8
Information
1
18
10
2.03333
20
8.03333
40
0.0333333
62
5
0
TEXT
8
Information
1
19
10
3.03333
20
8.03333
40
0.0333333
62
5
0
TEXT
8
Information
1
20
10
4.03333
20
8.03333
40
0.0333333
62
5
0
TEXT
8
Information
1
21
10
5.03333
20
8.03333
40
0.0333333
62
5
0
TEXT
8
Information
1
22
10
6.03333
20
8.03333
40
0.0333333
62
5
0
TEXT
8
Information
1
23
10
7.03333
20
8.03333
40
0.0333333
62
5
0
TEXT
8
Information
1
24
10
8.03333
20
8.03333
40
0.0333333
62
5
0
TEXT
8
Information
1
25
10
8.03333
20
7.53333
40
0.0333333
62
5
0
TEXT
8
Information
1
26
10
8.03333
20
7.03333
40
0.0333333
62
5
0
TEXT
8
Information
1
27
10
8.03333
20
6.53333
40
0.0333333
62
5
0
TEXT
8
Information
1
28
10
8.03333
20
6.03333
40
0.0333333
62
5
0
TEXT
8
Information
1
29
10
8.03333
20
5.53333
40
0.0333333
62
5
0
TEXT
8
Information
1
30
10
8.03333
20
5.03333
40
0.0333333
62
5
0
TEXT
8
Information
1
31
10
8.03333
20
4.53333
40
0.0333333
62
5
0
TEXT
8
Information
1
32
10
8.03333
20
4.03333
40
0.0333333
62
5
0
TEXT
8
Information
1
33
10
8.03333
20
3.53333
40
0.0333333
62
5
0
TEXT
8
Information
1
34
10
8.03333
20
3.03333
40
0.0333333
62
5
0
TEXT
8
Information
1
35
10
8.03333
20
2.53333
40
0.0333333
62
5
0
TEXT
8
Information
1
36
10
8.03333
20
2.03333
40
0.0333333
62
5
0
TEXT
8
Information
1
37
10
8.03333
20
1.53333
40
0.0333333
62
5
0
TEXT
8
Information
1
38
10
8.03333
20
1.03333
40
0.0333333
62
5
0
TEXT
8
Information
1
39
10
8.03333
20
0.533333
40
0.0333333
62
5
0
TEXT
8
Information
1
40
10
8.03333
20
0.0333333
40
0.0333333
62
5
0
TEXT
8
Information
1
41
10
1.03333
20
4.03333
40
0.0333333
62
5
0
TEXT
8
Information
1
42
10
2.03333
20
4.03333
40
0.0333333
62
5
0
TEXT
8
Information
1
43
10
3.03333
20
4.03333
40
0.0333333
62
5
0
TEXT
8
Information
1
44
10
4.03333
20
4.03333
40
0.0333333
62
5
0
TEXT
8
Information
1
45
10
5.03333
20
4.03333
40
0.0333333
62
5
0
TEXT
8
Information
1
46
10
6.03333
20
4.03333
40
0.0333333
62
5
0
TEXT
8
Information
1
47
10
7.03333
20
4.03333
40
0.0333333
62
5
0
ARC
8
Information
10
0
20
8
40
1.31037
50
340
51
120
62
3
0
ENDSEC
0
EOF
