0
SECTION
2
ENTITIES
0
LINE
8
BMD
10
0
20
0
11
0.197312
21
0
62
4
0
LINE
8
BMD
10
0.197312
20
0
11
0.116755
21
1
62
4
0
LINE
8
BMD
10
0.116755
20
1
11
0
21
1
62
4
0
LINE
8
BMD
10
0
20
1
11
0.116755
21
1
62
4
0
LINE
8
BMD
10
0.116755
20
1
11
0.0361979
21
2
62
4
0
LINE
8
BMD
10
0.0361979
20
2
11
0
21
2
62
4
0
LINE
8
BMD
10
0
20
2
11
0.0361979
21
2
62
4
0
LINE
8
BMD
10
0.0361979
20
2
11
-0.0443592
21
3
62
4
0
LINE
8
BMD
10
-0.0443592
20
3
11
0
21
3
62
4
0
LINE
8
BMD
10
0
20
3
11
-0.0443592
21
3
62
4
0
LINE
8
BMD
10
-0.0443592
20
3
11
-0.124916
21
4
62
4
0
LINE
8
BMD
10
-0.124916
20
4
11
0
21
4
62
4
0
LINE
8
BMD
10
0
20
4
11
0.0390183
21
4
62
4
0
LINE
8
BMD
10
0.0390183
20
4
11
0.000248714
21
5
62
4
0
LINE
8
BMD
10
0.000248714
20
5
11
0
21
5
62
4
0
LINE
8
BMD
10
0
20
5
11
0.000248714
21
5
62
4
0
LINE
8
BMD
10
0.000248714
20
5
11
-0.0385209
21
6
62
4
0
LINE
8
BMD
10
-0.0385209
20
6
11
0
21
6
62
4
0
LINE
8
BMD
10
0
20
6
11
-0.0385209
21
6
62
4
0
LINE
8
BMD
10
-0.0385209
20
6
11
-0.0772905
21
7
62
4
0
LINE
8
BMD
10
-0.0772905
20
7
11
0
21
7
62
4
0
LINE
8
BMD
10
0
20
7
11
-0.0772905
21
7
62
4
0
LINE
8
BMD
10
-0.0772905
20
7
11
-0.11606
21
8
62
4
0
LINE
8
BMD
10
-0.11606
20
8
11
0
21
8
62
4
0
LINE
8
BMD
10
0
20
8
11
-7.10639e-018
21
8.11606
62
4
0
LINE
8
BMD
10
-7.10639e-018
20
8.11606
11
2
21
8.05516
62
4
0
LINE
8
BMD
10
2
20
8.05516
11
2
21
8
62
4
0
LINE
8
BMD
10
2
20
8
11
2
21
8.05516
62
4
0
LINE
8
BMD
10
2
20
8.05516
11
4
21
7.99425
62
4
0
LINE
8
BMD
10
4
20
7.99425
11
4
21
8
62
4
0
LINE
8
BMD
10
4
20
8
11
4
21
7.99425
62
4
0
LINE
8
BMD
10
4
20
7.99425
11
6
21
7.93335
62
4
0
LINE
8
BMD
10
6
20
7.93335
11
6
21
8
62
4
0
LINE
8
BMD
10
6
20
8
11
6
21
7.93335
62
4
0
LINE
8
BMD
10
6
20
7.93335
11
8
21
7.87245
62
4
0
LINE
8
BMD
10
8
20
7.87245
11
8
21
8
62
4
0
LINE
8
BMD
10
8
20
8
11
8.12755
21
8
62
4
0
LINE
8
BMD
10
8.12755
20
8
11
8.06632
21
7
62
4
0
LINE
8
BMD
10
8.06632
20
7
11
8
21
7
62
4
0
LINE
8
BMD
10
8
20
7
11
8.06632
21
7
62
4
0
LINE
8
BMD
10
8.06632
20
7
11
8.00509
21
6
62
4
0
LINE
8
BMD
10
8.00509
20
6
11
8
21
6
62
4
0
LINE
8
BMD
10
8
20
6
11
8.00509
21
6
62
4
0
LINE
8
BMD
10
8.00509
20
6
11
7.94386
21
5
62
4
0
LINE
8
BMD
10
7.94386
20
5
11
8
21
5
62
4
0
LINE
8
BMD
10
8
20
5
11
7.94386
21
5
62
4
0
LINE
8
BMD
10
7.94386
20
5
11
7.88263
21
4
62
4
0
LINE
8
BMD
10
7.88263
20
4
11
8
21
4
62
4
0
LINE
8
BMD
10
8
20
4
11
8.02463
21
4
62
4
0
LINE
8
BMD
10
8.02463
20
4
11
8.00518
21
3
62
4
0
LINE
8
BMD
10
8.00518
20
3
11
8
21
3
62
4
0
LINE
8
BMD
10
8
20
3
11
8.00518
21
3
62
4
0
LINE
8
BMD
10
8.00518
20
3
11
7.98574
21
2
62
4
0
LINE
8
BMD
10
7.98574
20
2
11
8
21
2
62
4
0
LINE
8
BMD
10
8
20
2
11
7.98574
21
2
62
4
0
LINE
8
BMD
10
7.98574
20
2
11
7.9663
21
1
62
4
0
LINE
8
BMD
10
7.9663
20
1
11
8
21
1
62
4
0
LINE
8
BMD
10
8
20
1
11
7.9663
21
1
62
4
0
LINE
8
BMD
10
7.9663
20
1
11
7.94685
21
0
62
4
0
LINE
8
BMD
10
7.94685
20
0
11
8
21
0
62
4
0
LINE
8
BMD
10
0
20
4
11
-1.00378e-017
21
4.16393
62
4
0
LINE
8
BMD
10
-1.00378e-017
20
4.16393
11
2
21
4.08745
62
4
0
LINE
8
BMD
10
2
20
4.08745
11
2
21
4
62
4
0
LINE
8
BMD
10
2
20
4
11
2
21
4.08745
62
4
0
LINE
8
BMD
10
2
20
4.08745
11
4
21
4.01097
62
4
0
LINE
8
BMD
10
4
20
4.01097
11
4
21
4
62
4
0
LINE
8
BMD
10
4
20
4
11
4
21
4.01097
62
4
0
LINE
8
BMD
10
4
20
4.01097
11
6
21
3.93449
62
4
0
LINE
8
BMD
10
6
20
3.93449
11
6
21
4
62
4
0
LINE
8
BMD
10
6
20
4
11
6
21
3.93449
62
4
0
LINE
8
BMD
10
6
20
3.93449
11
8
21
3.858
62
4
0
LINE
8
BMD
10
8
20
3.858
11
8
21
4
62
4
0
LINE
8
Undeflected
10
0
20
0
11
0
21
1
62
0
0
LINE
8
Deflected
10
0
20
0
11
-0.02841
21
1.03435
62
1
0
LINE
8
Undeflected
10
0
20
1
11
0
21
2
62
0
0
LINE
8
Deflected
10
-0.02841
20
1.03435
11
-0.0957383
21
2.06869
62
1
0
LINE
8
Undeflected
10
0
20
2
11
0
21
3
62
0
0
LINE
8
Deflected
10
-0.0957383
20
2.06869
11
-0.175133
21
3.10304
62
1
0
LINE
8
Undeflected
10
0
20
3
11
0
21
4
62
0
0
LINE
8
Deflected
10
-0.175133
20
3.10304
11
-0.239741
21
4.13739
62
1
0
LINE
8
Undeflected
10
0
20
4
11
0
21
5
62
0
0
LINE
8
Deflected
10
-0.239741
20
4.13739
11
-0.292354
21
5.15261
62
1
0
LINE
8
Undeflected
10
0
20
5
11
0
21
6
62
0
0
LINE
8
Deflected
10
-0.292354
20
5.15261
11
-0.34505
21
6.16784
62
1
0
LINE
8
Undeflected
10
0
20
6
11
0
21
7
62
0
0
LINE
8
Deflected
10
-0.34505
20
6.16784
11
-0.384905
21
7.18306
62
1
0
LINE
8
Undeflected
10
0
20
7
11
0
21
8
62
0
0
LINE
8
Deflected
10
-0.384905
20
7.18306
11
-0.398997
21
8.19829
62
1
0
LINE
8
Undeflected
10
0
20
8
11
2
21
8
62
0
0
LINE
8
Deflected
10
-0.398997
20
8.19829
11
1.63977
21
8.12825
62
1
0
LINE
8
Undeflected
10
2
20
8
11
4
21
8
62
0
0
LINE
8
Deflected
10
1.63977
20
8.12825
11
3.67854
21
7.98468
62
1
0
LINE
8
Undeflected
10
4
20
8
11
6
21
8
62
0
0
LINE
8
Deflected
10
3.67854
20
7.98468
11
5.71731
21
7.84876
62
1
0
LINE
8
Undeflected
10
6
20
8
11
8
21
8
62
0
0
LINE
8
Deflected
10
5.71731
20
7.84876
11
7.75608
21
7.80171
62
1
0
LINE
8
Undeflected
10
8
20
8
11
8
21
7
62
0
0
LINE
8
Deflected
10
7.75608
20
7.80171
11
7.78616
21
6.81694
62
1
0
LINE
8
Undeflected
10
8
20
7
11
8
21
6
62
0
0
LINE
8
Deflected
10
7.78616
20
6.81694
11
7.83835
21
5.83216
62
1
0
LINE
8
Undeflected
10
8
20
6
11
8
21
5
62
0
0
LINE
8
Deflected
10
7.83835
20
5.83216
11
7.89224
21
4.84739
62
1
0
LINE
8
Undeflected
10
8
20
5
11
8
21
4
62
0
0
LINE
8
Deflected
10
7.89224
20
4.84739
11
7.92741
21
3.86261
62
1
0
LINE
8
Undeflected
10
8
20
4
11
8
21
3
62
0
0
LINE
8
Deflected
10
7.92741
20
3.86261
11
7.94945
21
2.89696
62
1
0
LINE
8
Undeflected
10
8
20
3
11
8
21
2
62
0
0
LINE
8
Deflected
10
7.94945
20
2.89696
11
7.97321
21
1.93131
62
1
0
LINE
8
Undeflected
10
8
20
2
11
8
21
1
62
0
0
LINE
8
Deflected
10
7.97321
20
1.93131
11
7.99222
21
0.965654
62
1
0
LINE
8
Undeflected
10
8
20
1
11
8
21
0
62
0
0
LINE
8
Deflected
10
7.99222
20
0.965654
11
8
21
0
62
1
0
LINE
8
Undeflected
10
0
20
4
11
2
21
4
62
0
0
LINE
8
Deflected
10
-0.239741
20
4.13739
11
1.80205
21
4.14162
62
1
0
LINE
8
Undeflected
10
2
20
4
11
4
21
4
62
0
0
LINE
8
Deflected
10
1.80205
20
4.14162
11
3.84383
21
4.02925
62
1
0
LINE
8
Undeflected
10
4
20
4
11
6
21
4
62
0
0
LINE
8
Deflected
10
3.84383
20
4.02925
11
5.88562
21
3.90226
62
1
0
LINE
8
Undeflected
10
6
20
4
11
8
21
4
62
0
0
LINE
8
Deflected
10
5.88562
20
3.90226
11
7.92741
21
3.86261
62
1
0
CIRCLE
8
Undeflected
10
0
20
0
40
0.0266667
62
0
0
CIRCLE
8
Deflected
10
0
20
0
40
0.0266667
62
1
0
CIRCLE
8
Undeflected
10
0
20
1
40
0.0266667
62
0
0
CIRCLE
8
Deflected
10
-0.02841
20
1.03435
40
0.0266667
62
1
0
CIRCLE
8
Undeflected
10
0
20
2
40
0.0266667
62
0
0
CIRCLE
8
Deflected
10
-0.0957383
20
2.06869
40
0.0266667
62
1
0
CIRCLE
8
Undeflected
10
0
20
3
40
0.0266667
62
0
0
CIRCLE
8
Deflected
10
-0.175133
20
3.10304
40
0.0266667
62
1
0
CIRCLE
8
Undeflected
10
0
20
4
40
0.0266667
62
0
0
CIRCLE
8
Deflected
10
-0.239741
20
4.13739
40
0.0266667
62
1
0
CIRCLE
8
Undeflected
10
0
20
5
40
0.0266667
62
0
0
CIRCLE
8
Deflected
10
-0.292354
20
5.15261
40
0.0266667
62
1
0
CIRCLE
8
Undeflected
10
0
20
6
40
0.0266667
62
0
0
CIRCLE
8
Deflected
10
-0.34505
20
6.16784
40
0.0266667
62
1
0
CIRCLE
8
Undeflected
10
0
20
7
40
0.0266667
62
0
0
CIRCLE
8
Deflected
10
-0.384905
20
7.18306
40
0.0266667
62
1
0
CIRCLE
8
Undeflected
10
0
20
8
40
0.0266667
62
0
0
CIRCLE
8
Deflected
10
-0.398997
20
8.19829
40
0.0266667
62
1
0
CIRCLE
8
Undeflected
10
2
20
8
40
0.0266667
62
0
0
CIRCLE
8
Deflected
10
1.63977
20
8.12825
40
0.0266667
62
1
0
CIRCLE
8
Undeflected
10
4
20
8
40
0.0266667
62
0
0
CIRCLE
8
Deflected
10
3.67854
20
7.98468
40
0.0266667
62
1
0
CIRCLE
8
Undeflected
10
6
20
8
40
0.0266667
62
0
0
CIRCLE
8
Deflected
10
5.71731
20
7.84876
40
0.0266667
62
1
0
CIRCLE
8
Undeflected
10
8
20
8
40
0.0266667
62
0
0
CIRCLE
8
Deflected
10
7.75608
20
7.80171
40
0.0266667
62
1
0
CIRCLE
8
Undeflected
10
8
20
7
40
0.0266667
62
0
0
CIRCLE
8
Deflected
10
7.78616
20
6.81694
40
0.0266667
62
1
0
CIRCLE
8
Undeflected
10
8
20
6
40
0.0266667
62
0
0
CIRCLE
8
Deflected
10
7.83835
20
5.83216
40
0.0266667
62
1
0
CIRCLE
8
Undeflected
10
8
20
5
40
0.0266667
62
0
0
CIRCLE
8
Deflected
10
7.89224
20
4.84739
40
0.0266667
62
1
0
CIRCLE
8
Undeflected
10
8
20
4
40
0.0266667
62
0
0
CIRCLE
8
Deflected
10
7.92741
20
3.86261
40
0.0266667
62
1
0
CIRCLE
8
Undeflected
10
8
20
3
40
0.0266667
62
0
0
CIRCLE
8
Deflected
10
7.94945
20
2.89696
40
0.0266667
62
1
0
CIRCLE
8
Undeflected
10
8
20
2
40
0.0266667
62
0
0
CIRCLE
8
Deflected
10
7.97321
20
1.93131
40
0.0266667
62
1
0
CIRCLE
8
Undeflected
10
8
20
1
40
0.0266667
62
0
0
CIRCLE
8
Deflected
10
7.99222
20
0.965654
40
0.0266667
62
1
0
CIRCLE
8
Undeflected
10
8
20
0
40
0.0266667
62
0
0
CIRCLE
8
Deflected
10
8
20
0
40
0.0266667
62
1
0
CIRCLE
8
Undeflected
10
2
20
4
40
0.0266667
62
0
0
CIRCLE
8
Deflected
10
1.80205
20
4.14162
40
0.0266667
62
1
0
CIRCLE
8
Undeflected
10
4
20
4
40
0.0266667
62
0
0
CIRCLE
8
Deflected
10
3.84383
20
4.02925
40
0.0266667
62
1
0
CIRCLE
8
Undeflected
10
6
20
4
40
0.0266667
62
0
0
CIRCLE
8
Deflected
10
5.88562
20
3.90226
40
0.0266667
62
1
0
TEXT
8
Information
1
0
10
0
20
0.5
40
0.0666667
62
0
0
TEXT
8
Information
1
1
10
0
20
1.5
40
0.0666667
62
0
0
TEXT
8
Information
1
2
10
0
20
2.5
40
0.0666667
62
0
0
TEXT
8
Information
1
3
10
0
20
3.5
40
0.0666667
62
0
0
TEXT
8
Information
1
4
10
0
20
4.5
40
0.0666667
62
0
0
TEXT
8
Information
1
5
10
0
20
5.5
40
0.0666667
62
0
0
TEXT
8
Information
1
6
10
0
20
6.5
40
0.0666667
62
0
0
TEXT
8
Information
1
7
10
0
20
7.5
40
0.0666667
62
0
0
TEXT
8
Information
1
8
10
1
20
8
40
0.0666667
62
0
0
TEXT
8
Information
1
9
10
3
20
8
40
0.0666667
62
0
0
TEXT
8
Information
1
10
10
5
20
8
40
0.0666667
62
0
0
TEXT
8
Information
1
11
10
7
20
8
40
0.0666667
62
0
0
TEXT
8
Information
1
12
10
8
20
7.5
40
0.0666667
62
0
0
TEXT
8
Information
1
13
10
8
20
6.5
40
0.0666667
62
0
0
TEXT
8
Information
1
14
10
8
20
5.5
40
0.0666667
62
0
0
TEXT
8
Information
1
15
10
8
20
4.5
40
0.0666667
62
0
0
TEXT
8
Information
1
16
10
8
20
3.5
40
0.0666667
62
0
0
TEXT
8
Information
1
17
10
8
20
2.5
40
0.0666667
62
0
0
TEXT
8
Information
1
18
10
8
20
1.5
40
0.0666667
62
0
0
TEXT
8
Information
1
19
10
8
20
0.5
40
0.0666667
62
0
0
TEXT
8
Information
1
20
10
1
20
4
40
0.0666667
62
0
0
TEXT
8
Information
1
21
10
3
20
4
40
0.0666667
62
0
0
TEXT
8
Information
1
22
10
5
20
4
40
0.0666667
62
0
0
TEXT
8
Information
1
23
10
7
20
4
40
0.0666667
62
0
0
TEXT
8
Information
1
0
10
0.0666667
20
0.0666667
40
0.0666667
62
5
0
TEXT
8
Information
1
1
10
0.0666667
20
1.06667
40
0.0666667
62
5
0
TEXT
8
Information
1
2
10
0.0666667
20
2.06667
40
0.0666667
62
5
0
TEXT
8
Information
1
3
10
0.0666667
20
3.06667
40
0.0666667
62
5
0
TEXT
8
Information
1
4
10
0.0666667
20
4.06667
40
0.0666667
62
5
0
TEXT
8
Information
1
5
10
0.0666667
20
5.06667
40
0.0666667
62
5
0
TEXT
8
Information
1
6
10
0.0666667
20
6.06667
40
0.0666667
62
5
0
TEXT
8
Information
1
7
10
0.0666667
20
7.06667
40
0.0666667
62
5
0
TEXT
8
Information
1
8
10
0.0666667
20
8.06667
40
0.0666667
62
5
0
TEXT
8
Information
1
9
10
2.06667
20
8.06667
40
0.0666667
62
5
0
TEXT
8
Information
1
10
10
4.06667
20
8.06667
40
0.0666667
62
5
0
TEXT
8
Information
1
11
10
6.06667
20
8.06667
40
0.0666667
62
5
0
TEXT
8
Information
1
12
10
8.06667
20
8.06667
40
0.0666667
62
5
0
TEXT
8
Information
1
13
10
8.06667
20
7.06667
40
0.0666667
62
5
0
TEXT
8
Information
1
14
10
8.06667
20
6.06667
40
0.0666667
62
5
0
TEXT
8
Information
1
15
10
8.06667
20
5.06667
40
0.0666667
62
5
0
TEXT
8
Information
1
16
10
8.06667
20
4.06667
40
0.0666667
62
5
0
TEXT
8
Information
1
17
10
8.06667
20
3.06667
40
0.0666667
62
5
0
TEXT
8
Information
1
18
10
8.06667
20
2.06667
40
0.0666667
62
5
0
TEXT
8
Information
1
19
10
8.06667
20
1.06667
40
0.0666667
62
5
0
TEXT
8
Information
1
20
10
8.06667
20
0.0666667
40
0.0666667
62
5
0
TEXT
8
Information
1
21
10
2.06667
20
4.06667
40
0.0666667
62
5
0
TEXT
8
Information
1
22
10
4.06667
20
4.06667
40
0.0666667
62
5
0
TEXT
8
Information
1
23
10
6.06667
20
4.06667
40
0.0666667
62
5
0
LINE
8
Information
10
8
20
8
11
8.1
21
8
62
1
0
ENDSEC
0
EOF
