0
SECTION
2
ENTITIES
0
LINE
8
BMD
10
0
20
0
11
-6.66219e-18
21
0.108802
62
4
0
LINE
8
BMD
10
-6.66219e-18
20
0.108802
11
2
21
-0.0694961
62
4
0
LINE
8
BMD
10
2
20
-0.0694961
11
2
21
0
62
4
0
LINE
8
BMD
10
2
20
0
11
2
21
-0.0388551
62
4
0
LINE
8
BMD
10
2
20
-0.0388551
11
4
21
-0.105107
62
4
0
LINE
8
BMD
10
4
20
-0.105107
11
4
21
0
62
4
0
LINE
8
BMD
10
4
20
0
11
4
21
-0.086507
62
4
0
LINE
8
BMD
10
4
20
-0.086507
11
6
21
-0.0664958
62
4
0
LINE
8
BMD
10
6
20
-0.0664958
11
6
21
0
62
4
0
LINE
8
BMD
10
6
20
0
11
6
21
-0.0865758
62
4
0
LINE
8
BMD
10
6
20
-0.0865758
11
8
21
0.056599
62
4
0
LINE
8
BMD
10
8
20
0.056599
11
8
21
0
62
4
0
LINE
8
BMD
10
8
20
0
11
7.99459
21
-0.0721652
62
4
0
LINE
8
BMD
10
7.99459
20
-0.0721652
11
6.00786
21
0.254827
62
4
0
LINE
8
BMD
10
6.00786
20
0.254827
11
6
21
0.15
62
4
0
LINE
8
BMD
10
6
20
0.15
11
6.00343
21
0.195778
62
4
0
LINE
8
BMD
10
6.00343
20
0.195778
11
4.00892
21
0.418908
62
4
0
LINE
8
BMD
10
4.00892
20
0.418908
11
4
21
0.3
62
4
0
LINE
8
BMD
10
4
20
0.3
11
4.0058
21
0.377395
62
4
0
LINE
8
BMD
10
4.0058
20
0.377395
11
2.004
21
0.503391
62
4
0
LINE
8
BMD
10
2.004
20
0.503391
11
2
21
0.45
62
4
0
LINE
8
BMD
10
2
20
0.45
11
1.9996
21
0.444629
62
4
0
LINE
8
BMD
10
1.9996
20
0.444629
11
-0.0023309
21
0.568921
62
4
0
LINE
8
BMD
10
-0.0023309
20
0.568921
11
0
21
0.6
62
4
0
LINE
8
BMD
10
0
20
0.6
11
-0.0311659
21
0.6
62
4
0
LINE
8
BMD
10
-0.0311659
20
0.6
11
0.0122058
21
0
62
4
0
LINE
8
BMD
10
0.0122058
20
0
11
0
21
0
62
4
0
LINE
8
BMD
10
0
20
0
11
-0.023796
21
0.10576
62
4
0
LINE
8
BMD
10
-0.023796
20
0.10576
11
2.01473
21
0.384543
62
4
0
LINE
8
BMD
10
2.01473
20
0.384543
11
2
21
0.45
62
4
0
LINE
8
BMD
10
2
20
0
11
2.00534
21
-0.0355763
62
4
0
LINE
8
BMD
10
2.00534
20
-0.0355763
11
4.01351
21
0.209919
62
4
0
LINE
8
BMD
10
4.01351
20
0.209919
11
4
21
0.3
62
4
0
LINE
8
BMD
10
4
20
0
11
4.00541
21
-0.0721241
62
4
0
LINE
8
BMD
10
4.00541
20
-0.0721241
11
6.00579
21
0.0728299
62
4
0
LINE
8
BMD
10
6.00579
20
0.0728299
11
6
21
0.15
62
4
0
LINE
8
BMD
10
2
20
0
11
1.99467
21
0
62
4
0
LINE
8
BMD
10
1.99467
20
0
11
1.99183
21
0.45
62
4
0
LINE
8
BMD
10
1.99183
20
0.45
11
2
21
0.45
62
4
0
LINE
8
BMD
10
4
20
0
11
3.94627
21
0
62
4
0
LINE
8
BMD
10
3.94627
20
0
11
3.95054
21
0.3
62
4
0
LINE
8
BMD
10
3.95054
20
0.3
11
4
21
0.3
62
4
0
LINE
8
BMD
10
6
20
0
11
5.97992
21
0
62
4
0
LINE
8
BMD
10
5.97992
20
0
11
5.98183
21
0.15
62
4
0
LINE
8
BMD
10
5.98183
20
0.15
11
6
21
0.15
62
4
0
LINE
8
BMD
10
0
20
-2
11
0.1021
21
-2
62
4
0
LINE
8
BMD
10
0.1021
20
-2
11
-0.205
21
0
62
4
0
LINE
8
BMD
10
-0.205
20
0
11
0
21
0
62
4
0
LINE
8
BMD
10
8
20
-2
11
8.05577
21
-2
62
4
0
LINE
8
BMD
10
8.05577
20
-2
11
8.12897
21
0
62
4
0
LINE
8
BMD
10
8.12897
20
0
11
8
21
0
62
4
0
LINE
8
Undeflected
10
0
20
0
11
2
21
0
62
0
0
LINE
8
Deflected
10
4.44699e-05
20
-0.0620323
11
1.99497
21
-0.0874449
62
1
0
LINE
8
Undeflected
10
2
20
0
11
4
21
0
62
0
0
LINE
8
Deflected
10
1.99497
20
-0.0874449
11
3.99371
21
-0.101008
62
1
0
LINE
8
Undeflected
10
4
20
0
11
6
21
0
62
0
0
LINE
8
Deflected
10
3.99371
20
-0.101008
11
5.99176
21
-0.0873902
62
1
0
LINE
8
Undeflected
10
6
20
0
11
8
21
0
62
0
0
LINE
8
Deflected
10
5.99176
20
-0.0873902
11
7.98662
21
-0.055078
62
1
0
LINE
8
Undeflected
10
8
20
0
11
6
21
0.15
62
0
0
LINE
8
Deflected
10
7.98662
20
-0.055078
11
5.98984
21
0.0614536
62
1
0
LINE
8
Undeflected
10
6
20
0.15
11
4
21
0.3
62
0
0
LINE
8
Deflected
10
5.98984
20
0.0614536
11
3.99386
21
0.1975
62
1
0
LINE
8
Undeflected
10
4
20
0.3
11
2
21
0.45
62
0
0
LINE
8
Deflected
10
3.99386
20
0.1975
11
2.00036
21
0.361027
62
1
0
LINE
8
Undeflected
10
2
20
0.45
11
0
21
0.6
62
0
0
LINE
8
Deflected
10
2.00036
20
0.361027
11
0.00523025
21
0.532686
62
1
0
LINE
8
Undeflected
10
0
20
0.6
11
0
21
0
62
0
0
LINE
8
Deflected
10
0.00523025
20
0.532686
11
4.44699e-05
21
-0.0620323
62
1
0
LINE
8
Undeflected
10
0
20
0
11
2
21
0.45
62
0
0
LINE
8
Deflected
10
4.44699e-05
20
-0.0620323
11
2.00036
21
0.361027
62
1
0
LINE
8
Undeflected
10
2
20
0
11
4
21
0.3
62
0
0
LINE
8
Deflected
10
1.99497
20
-0.0874449
11
3.99386
21
0.1975
62
1
0
LINE
8
Undeflected
10
4
20
0
11
6
21
0.15
62
0
0
LINE
8
Deflected
10
3.99371
20
-0.101008
11
5.98984
21
0.0614536
62
1
0
LINE
8
Undeflected
10
2
20
0
11
2
21
0.45
62
0
0
LINE
8
Deflected
10
1.99497
20
-0.0874449
11
2.00036
21
0.361027
62
1
0
LINE
8
Undeflected
10
4
20
0
11
4
21
0.3
62
0
0
LINE
8
Deflected
10
3.99371
20
-0.101008
11
3.99386
21
0.1975
62
1
0
LINE
8
Undeflected
10
6
20
0
11
6
21
0.15
62
0
0
LINE
8
Deflected
10
5.99176
20
-0.0873902
11
5.98984
21
0.0614536
62
1
0
LINE
8
Undeflected
10
0
20
-2
11
0
21
0
62
0
0
LINE
8
Deflected
10
0
20
-2
11
4.44699e-05
21
-0.0620323
62
1
0
LINE
8
Undeflected
10
8
20
-2
11
8
21
0
62
0
0
LINE
8
Deflected
10
8
20
-2
11
7.98662
21
-0.055078
62
1
0
CIRCLE
8
Undeflected
10
0
20
0
40
0.0205
62
0
0
CIRCLE
8
Deflected
10
4.44699e-05
20
-0.0620323
40
0.0205
62
1
0
CIRCLE
8
Undeflected
10
2
20
0
40
0.0205
62
0
0
CIRCLE
8
Deflected
10
1.99497
20
-0.0874449
40
0.0205
62
1
0
CIRCLE
8
Undeflected
10
4
20
0
40
0.0205
62
0
0
CIRCLE
8
Deflected
10
3.99371
20
-0.101008
40
0.0205
62
1
0
CIRCLE
8
Undeflected
10
6
20
0
40
0.0205
62
0
0
CIRCLE
8
Deflected
10
5.99176
20
-0.0873902
40
0.0205
62
1
0
CIRCLE
8
Undeflected
10
8
20
0
40
0.0205
62
0
0
CIRCLE
8
Deflected
10
7.98662
20
-0.055078
40
0.0205
62
1
0
CIRCLE
8
Undeflected
10
6
20
0.15
40
0.0205
62
0
0
CIRCLE
8
Deflected
10
5.98984
20
0.0614536
40
0.0205
62
1
0
CIRCLE
8
Undeflected
10
4
20
0.3
40
0.0205
62
0
0
CIRCLE
8
Deflected
10
3.99386
20
0.1975
40
0.0205
62
1
0
CIRCLE
8
Undeflected
10
2
20
0.45
40
0.0205
62
0
0
CIRCLE
8
Deflected
10
2.00036
20
0.361027
40
0.0205
62
1
0
CIRCLE
8
Undeflected
10
0
20
0.6
40
0.0205
62
0
0
CIRCLE
8
Deflected
10
0.00523025
20
0.532686
40
0.0205
62
1
0
CIRCLE
8
Undeflected
10
0
20
-2
40
0.0205
62
0
0
CIRCLE
8
Deflected
10
0
20
-2
40
0.0205
62
1
0
CIRCLE
8
Undeflected
10
8
20
-2
40
0.0205
62
0
0
CIRCLE
8
Deflected
10
8
20
-2
40
0.0205
62
1
0
TEXT
8
Information
1
0
10
1
20
0
40
0.041
62
0
0
TEXT
8
Information
1
1
10
3
20
0
40
0.041
62
0
0
TEXT
8
Information
1
2
10
5
20
0
40
0.041
62
0
0
TEXT
8
Information
1
3
10
7
20
0
40
0.041
62
0
0
TEXT
8
Information
1
4
10
7
20
0.075
40
0.041
62
0
0
TEXT
8
Information
1
5
10
5
20
0.225
40
0.041
62
0
0
TEXT
8
Information
1
6
10
3
20
0.375
40
0.041
62
0
0
TEXT
8
Information
1
7
10
1
20
0.525
40
0.041
62
0
0
TEXT
8
Information
1
8
10
0
20
0.3
40
0.041
62
0
0
TEXT
8
Information
1
9
10
1
20
0.225
40
0.041
62
0
0
TEXT
8
Information
1
10
10
3
20
0.15
40
0.041
62
0
0
TEXT
8
Information
1
11
10
5
20
0.075
40
0.041
62
0
0
TEXT
8
Information
1
12
10
2
20
0.225
40
0.041
62
0
0
TEXT
8
Information
1
13
10
4
20
0.15
40
0.041
62
0
0
TEXT
8
Information
1
14
10
6
20
0.075
40
0.041
62
0
0
TEXT
8
Information
1
15
10
0
20
-1
40
0.041
62
0
0
TEXT
8
Information
1
16
10
8
20
-1
40
0.041
62
0
0
TEXT
8
Information
1
0
10
0.041
20
0.041
40
0.041
62
5
0
TEXT
8
Information
1
1
10
2.041
20
0.041
40
0.041
62
5
0
TEXT
8
Information
1
2
10
4.041
20
0.041
40
0.041
62
5
0
TEXT
8
Information
1
3
10
6.041
20
0.041
40
0.041
62
5
0
TEXT
8
Information
1
4
10
8.041
20
0.041
40
0.041
62
5
0
TEXT
8
Information
1
5
10
6.041
20
0.191
40
0.041
62
5
0
TEXT
8
Information
1
6
10
4.041
20
0.341
40
0.041
62
5
0
TEXT
8
Information
1
7
10
2.041
20
0.491
40
0.041
62
5
0
TEXT
8
Information
1
8
10
0.041
20
0.641
40
0.041
62
5
0
TEXT
8
Information
1
9
10
0.041
20
-1.959
40
0.041
62
5
0
TEXT
8
Information
1
10
10
8.041
20
-1.959
40
0.041
62
5
0
LINE
8
Information
10
0
20
0
11
0.1025
21
0
62
1
0
LINE
8
Information
10
8
20
0
11
8
21
0.1025
62
1
0
LINE
8
Information
10
6
20
0.15
11
6
21
0.355
62
1
0
LINE
8
Information
10
4
20
0.3
11
4
21
0.505
62
1
0
LINE
8
Information
10
2
20
0.45
11
2
21
0.655
62
1
0
LINE
8
Information
10
0
20
0.6
11
0.1025
21
0.6
62
1
0
LINE
8
Information
10
0
20
0.6
11
0
21
0.7025
62
1
0
ENDSEC
0
EOF
