0
SECTION
2
ENTITIES
0
LINE
8
BMD
10
0.015
20
3
11
0.0290207
21
3.18676
62
4
0
LINE
8
BMD
10
0.0290207
20
3.18676
11
0.357023
21
3.09518
62
4
0
LINE
8
BMD
10
0.357023
20
3.09518
11
0.348
21
2.975
62
4
0
LINE
8
BMD
10
0.348
20
2.975
11
0.357196
21
3.09786
62
4
0
LINE
8
BMD
10
0.357196
20
3.09786
11
0.686952
21
3.01616
62
4
0
LINE
8
BMD
10
0.686952
20
3.01616
11
0.682
21
2.95
62
4
0
LINE
8
BMD
10
0.682
20
2.95
11
0.688274
21
3.03357
62
4
0
LINE
8
BMD
10
0.688274
20
3.03357
11
1.01769
21
2.96088
62
4
0
LINE
8
BMD
10
1.01769
20
2.96088
11
1.015
21
2.925
62
4
0
LINE
8
BMD
10
1.015
20
2.925
11
1.01889
21
2.97681
62
4
0
LINE
8
BMD
10
1.01889
20
2.97681
11
1.34886
21
2.9114
62
4
0
LINE
8
BMD
10
1.34886
20
2.9114
11
1.348
21
2.9
62
4
0
LINE
8
BMD
10
1.348
20
2.9
11
1.34978
21
2.92384
62
4
0
LINE
8
BMD
10
1.34978
20
2.92384
11
1.6812
21
2.86435
62
4
0
LINE
8
BMD
10
1.6812
20
2.86435
11
1.682
21
2.875
62
4
0
LINE
8
BMD
10
1.682
20
2.875
11
1.6819
21
2.87372
62
4
0
LINE
8
BMD
10
1.6819
20
2.87372
11
2.0127
21
2.8194
62
4
0
LINE
8
BMD
10
2.0127
20
2.8194
11
2.015
21
2.85
62
4
0
LINE
8
BMD
10
2.015
20
2.85
11
2.01323
21
2.82641
62
4
0
LINE
8
BMD
10
2.01323
20
2.82641
11
2.34436
21
2.77645
62
4
0
LINE
8
BMD
10
2.34436
20
2.77645
11
2.348
21
2.825
62
4
0
LINE
8
BMD
10
2.348
20
2.825
11
2.34476
21
2.78172
62
4
0
LINE
8
BMD
10
2.34476
20
2.78172
11
2.67718
21
2.73555
62
4
0
LINE
8
BMD
10
2.67718
20
2.73555
11
2.682
21
2.8
62
4
0
LINE
8
BMD
10
2.682
20
2.8
11
2.67746
21
2.73951
62
4
0
LINE
8
BMD
10
2.67746
20
2.73951
11
3.00914
21
2.69689
62
4
0
LINE
8
BMD
10
3.00914
20
2.69689
11
3.015
21
2.775
62
4
0
LINE
8
BMD
10
3.015
20
2.775
11
3.00936
21
2.69986
62
4
0
LINE
8
BMD
10
3.00936
20
2.69986
11
3.34128
21
2.66046
62
4
0
LINE
8
BMD
10
3.34128
20
2.66046
11
3.348
21
2.75
62
4
0
LINE
8
BMD
10
3.348
20
2.75
11
3.34146
21
2.66268
62
4
0
LINE
8
BMD
10
3.34146
20
2.66268
11
3.67461
21
2.6263
62
4
0
LINE
8
BMD
10
3.67461
20
2.6263
11
3.682
21
2.725
62
4
0
LINE
8
BMD
10
3.682
20
2.725
11
3.67471
21
2.62791
62
4
0
LINE
8
BMD
10
3.67471
20
2.62791
11
4.00708
21
2.59449
62
4
0
LINE
8
BMD
10
4.00708
20
2.59449
11
4.015
21
2.7
62
4
0
LINE
8
BMD
10
4.015
20
2.7
11
4.00716
21
2.5956
62
4
0
LINE
8
BMD
10
4.00716
20
2.5956
11
4.33974
21
2.56503
62
4
0
LINE
8
BMD
10
4.33974
20
2.56503
11
4.348
21
2.675
62
4
0
LINE
8
BMD
10
4.348
20
2.675
11
4.33982
21
2.56568
62
4
0
LINE
8
BMD
10
4.33982
20
2.56568
11
4.67361
21
2.53794
62
4
0
LINE
8
BMD
10
4.67361
20
2.53794
11
4.682
21
2.65
62
4
0
LINE
8
BMD
10
4.682
20
2.65
11
4.6736
21
2.53813
62
4
0
LINE
8
BMD
10
4.6736
20
2.53813
11
5.00661
21
2.51325
62
4
0
LINE
8
BMD
10
5.00661
20
2.51325
11
5.015
21
2.625
62
4
0
LINE
8
BMD
10
5.015
20
2.625
11
5.00659
21
2.51295
62
4
0
LINE
8
BMD
10
5.00659
20
2.51295
11
5.33982
21
2.49099
62
4
0
LINE
8
BMD
10
5.33982
20
2.49099
11
5.348
21
2.6
62
4
0
LINE
8
BMD
10
5.348
20
2.6
11
5.33977
21
2.49009
62
4
0
LINE
8
BMD
10
5.33977
20
2.49009
11
5.67423
21
2.47117
62
4
0
LINE
8
BMD
10
5.67423
20
2.47117
11
5.682
21
2.575
62
4
0
LINE
8
BMD
10
5.682
20
2.575
11
5.67408
21
2.46955
62
4
0
LINE
8
BMD
10
5.67408
20
2.46955
11
6.00778
21
2.4538
62
4
0
LINE
8
BMD
10
6.00778
20
2.4538
11
6.015
21
2.55
62
4
0
LINE
8
BMD
10
6.015
20
2.55
11
6.00759
21
2.45124
62
4
0
LINE
8
BMD
10
6.00759
20
2.45124
11
6.34154
21
2.43894
62
4
0
LINE
8
BMD
10
6.34154
20
2.43894
11
6.348
21
2.525
62
4
0
LINE
8
BMD
10
6.348
20
2.525
11
6.34127
21
2.43512
62
4
0
LINE
8
BMD
10
6.34127
20
2.43512
11
6.67651
21
2.42665
62
4
0
LINE
8
BMD
10
6.67651
20
2.42665
11
6.682
21
2.5
62
4
0
LINE
8
BMD
10
6.682
20
2.5
11
6.67608
21
2.42115
62
4
0
LINE
8
BMD
10
6.67608
20
2.42115
11
7.01064
21
2.41692
62
4
0
LINE
8
BMD
10
7.01064
20
2.41692
11
7.015
21
2.475
62
4
0
LINE
8
BMD
10
7.015
20
2.475
11
7.01006
21
2.40917
62
4
0
LINE
8
BMD
10
7.01006
20
2.40917
11
7.34499
21
2.40989
62
4
0
LINE
8
BMD
10
7.34499
20
2.40989
11
7.348
21
2.45
62
4
0
LINE
8
BMD
10
7.348
20
2.45
11
7.3442
21
2.39917
62
4
0
LINE
8
BMD
10
7.3442
20
2.39917
11
7.68057
21
2.40584
62
4
0
LINE
8
BMD
10
7.68057
20
2.40584
11
7.682
21
2.425
62
4
0
LINE
8
BMD
10
7.682
20
2.425
11
7.67949
21
2.39162
62
4
0
LINE
8
BMD
10
7.67949
20
2.39162
11
8.0154
21
2.4053
62
4
0
LINE
8
BMD
10
8.0154
20
2.4053
11
8.015
21
2.4
62
4
0
LINE
8
BMD
10
0
20
2.801
11
0.00694893
21
2.89356
62
4
0
LINE
8
BMD
10
0.00694893
20
2.89356
11
0.339788
21
2.86642
62
4
0
LINE
8
BMD
10
0.339788
20
2.86642
11
0.333
21
2.776
62
4
0
LINE
8
BMD
10
0.333
20
2.776
11
0.339692
21
2.8654
62
4
0
LINE
8
BMD
10
0.339692
20
2.8654
11
0.673141
21
2.83304
62
4
0
LINE
8
BMD
10
0.673141
20
2.83304
11
0.667
21
2.751
62
4
0
LINE
8
BMD
10
0.667
20
2.751
11
0.671975
21
2.81727
62
4
0
LINE
8
BMD
10
0.671975
20
2.81727
11
1.00412
21
2.78092
62
4
0
LINE
8
BMD
10
1.00412
20
2.78092
11
1
21
2.726
62
4
0
LINE
8
BMD
10
1
20
2.726
11
1.00305
21
2.76659
62
4
0
LINE
8
BMD
10
1.00305
20
2.76659
11
1.33501
21
2.72778
62
4
0
LINE
8
BMD
10
1.33501
20
2.72778
11
1.333
21
2.701
62
4
0
LINE
8
BMD
10
1.333
20
2.701
11
1.33419
21
2.71693
62
4
0
LINE
8
BMD
10
1.33419
20
2.71693
11
1.66707
21
2.67689
62
4
0
LINE
8
BMD
10
1.66707
20
2.67689
11
1.667
21
2.676
62
4
0
LINE
8
BMD
10
1.667
20
2.676
11
1.66648
21
2.66907
62
4
0
LINE
8
BMD
10
1.66648
20
2.66907
11
1.99834
21
2.62885
62
4
0
LINE
8
BMD
10
1.99834
20
2.62885
11
2
21
2.651
62
4
0
LINE
8
BMD
10
2
20
2.651
11
1.99792
21
2.62334
62
4
0
LINE
8
BMD
10
1.99792
20
2.62334
11
2.32982
21
2.58359
62
4
0
LINE
8
BMD
10
2.32982
20
2.58359
11
2.333
21
2.626
62
4
0
LINE
8
BMD
10
2.333
20
2.626
11
2.32954
21
2.57981
62
4
0
LINE
8
BMD
10
2.32954
20
2.57981
11
2.66251
21
2.541
62
4
0
LINE
8
BMD
10
2.66251
20
2.541
11
2.667
21
2.601
62
4
0
LINE
8
BMD
10
2.667
20
2.601
11
2.66231
21
2.53849
62
4
0
LINE
8
BMD
10
2.66231
20
2.53849
11
2.99437
21
2.50107
62
4
0
LINE
8
BMD
10
2.99437
20
2.50107
11
3
21
2.576
62
4
0
LINE
8
BMD
10
3
20
2.576
11
2.99426
21
2.49951
62
4
0
LINE
8
BMD
10
2.99426
20
2.49951
11
3.32645
21
2.4637
62
4
0
LINE
8
BMD
10
3.32645
20
2.4637
11
3.333
21
2.551
62
4
0
LINE
8
BMD
10
3.333
20
2.551
11
3.3264
21
2.46286
62
4
0
LINE
8
BMD
10
3.3264
20
2.46286
11
3.65973
21
2.42881
62
4
0
LINE
8
BMD
10
3.65973
20
2.42881
11
3.667
21
2.526
62
4
0
LINE
8
BMD
10
3.667
20
2.526
11
3.65968
21
2.42855
62
4
0
LINE
8
BMD
10
3.65968
20
2.42855
11
3.99215
21
2.39644
62
4
0
LINE
8
BMD
10
3.99215
20
2.39644
11
4
21
2.501
62
4
0
LINE
8
BMD
10
4
20
2.501
11
3.99217
21
2.39665
62
4
0
LINE
8
BMD
10
3.99217
20
2.39665
11
4.32478
21
2.36651
62
4
0
LINE
8
BMD
10
4.32478
20
2.36651
11
4.333
21
2.476
62
4
0
LINE
8
BMD
10
4.333
20
2.476
11
4.32485
21
2.36715
62
4
0
LINE
8
BMD
10
4.32485
20
2.36715
11
4.65862
21
2.33899
62
4
0
LINE
8
BMD
10
4.65862
20
2.33899
11
4.667
21
2.451
62
4
0
LINE
8
BMD
10
4.667
20
2.451
11
4.65867
21
2.34006
62
4
0
LINE
8
BMD
10
4.65867
20
2.34006
11
4.99158
21
2.3139
62
4
0
LINE
8
BMD
10
4.99158
20
2.3139
11
5
21
2.426
62
4
0
LINE
8
BMD
10
5
20
2.426
11
4.9917
21
2.31543
62
4
0
LINE
8
BMD
10
4.9917
20
2.31543
11
5.32476
21
2.29119
62
4
0
LINE
8
BMD
10
5.32476
20
2.29119
11
5.333
21
2.401
62
4
0
LINE
8
BMD
10
5.333
20
2.401
11
5.32494
21
2.29327
62
4
0
LINE
8
BMD
10
5.32494
20
2.29327
11
5.65913
21
2.27084
62
4
0
LINE
8
BMD
10
5.65913
20
2.27084
11
5.667
21
2.376
62
4
0
LINE
8
BMD
10
5.667
20
2.376
11
5.65931
21
2.27363
62
4
0
LINE
8
BMD
10
5.65931
20
2.27363
11
5.99263
21
2.25284
62
4
0
LINE
8
BMD
10
5.99263
20
2.25284
11
6
21
2.351
62
4
0
LINE
8
BMD
10
6
20
2.351
11
5.99291
21
2.25653
62
4
0
LINE
8
BMD
10
5.99291
20
2.25653
11
6.32633
21
2.23713
62
4
0
LINE
8
BMD
10
6.32633
20
2.23713
11
6.333
21
2.326
62
4
0
LINE
8
BMD
10
6.333
20
2.326
11
6.32672
21
2.24205
62
4
0
LINE
8
BMD
10
6.32672
20
2.24205
11
6.66121
21
2.22371
62
4
0
LINE
8
BMD
10
6.66121
20
2.22371
11
6.667
21
2.301
62
4
0
LINE
8
BMD
10
6.667
20
2.301
11
6.66169
21
2.23027
62
4
0
LINE
8
BMD
10
6.66169
20
2.23027
11
6.99523
21
2.21247
62
4
0
LINE
8
BMD
10
6.99523
20
2.21247
11
7
21
2.276
62
4
0
LINE
8
BMD
10
7
20
2.276
11
6.99589
21
2.22125
62
4
0
LINE
8
BMD
10
6.99589
20
2.22125
11
7.32942
21
2.20333
62
4
0
LINE
8
BMD
10
7.32942
20
2.20333
11
7.333
21
2.251
62
4
0
LINE
8
BMD
10
7.333
20
2.251
11
7.33031
21
2.21505
62
4
0
LINE
8
BMD
10
7.33031
20
2.21505
11
7.66476
21
2.19612
62
4
0
LINE
8
BMD
10
7.66476
20
2.19612
11
7.667
21
2.226
62
4
0
LINE
8
BMD
10
7.667
20
2.226
11
7.6659
21
2.2113
62
4
0
LINE
8
BMD
10
7.6659
20
2.2113
11
7.99918
21
2.19009
62
4
0
LINE
8
BMD
10
7.99918
20
2.19009
11
8
21
2.201
62
4
0
LINE
8
BMD
10
0.015
20
3
11
0.126183
21
2.99162
62
4
0
LINE
8
BMD
10
0.126183
20
2.99162
11
0.0925576
21
2.79402
62
4
0
LINE
8
BMD
10
0.0925576
20
2.79402
11
0
21
2.801
62
4
0
LINE
8
BMD
10
0.348
20
2.975
11
0.345329
21
2.9752
62
4
0
LINE
8
BMD
10
0.345329
20
2.9752
11
0.331986
21
2.77608
62
4
0
LINE
8
BMD
10
0.331986
20
2.77608
11
0.333
21
2.776
62
4
0
LINE
8
BMD
10
0.682
20
2.95
11
0.664591
21
2.95131
62
4
0
LINE
8
BMD
10
0.664591
20
2.95131
11
0.651235
21
2.75219
62
4
0
LINE
8
BMD
10
0.651235
20
2.75219
11
0.667
21
2.751
62
4
0
LINE
8
BMD
10
1.015
20
2.925
11
0.999069
21
2.9262
62
4
0
LINE
8
BMD
10
0.999069
20
2.9262
11
0.985678
21
2.72708
62
4
0
LINE
8
BMD
10
0.985678
20
2.72708
11
1
21
2.726
62
4
0
LINE
8
BMD
10
1.348
20
2.9
11
1.33557
21
2.90094
62
4
0
LINE
8
BMD
10
1.33557
20
2.90094
11
1.32214
21
2.70182
62
4
0
LINE
8
BMD
10
1.32214
20
2.70182
11
1.333
21
2.701
62
4
0
LINE
8
BMD
10
1.682
20
2.875
11
1.67263
21
2.87571
62
4
0
LINE
8
BMD
10
1.67263
20
2.87571
11
1.65918
21
2.67659
62
4
0
LINE
8
BMD
10
1.65918
20
2.67659
11
1.667
21
2.676
62
4
0
LINE
8
BMD
10
2.015
20
2.85
11
2.00798
21
2.85053
62
4
0
LINE
8
BMD
10
2.00798
20
2.85053
11
1.9945
21
2.65141
62
4
0
LINE
8
BMD
10
1.9945
20
2.65141
11
2
21
2.651
62
4
0
LINE
8
BMD
10
2.348
20
2.825
11
2.34273
21
2.8254
62
4
0
LINE
8
BMD
10
2.34273
20
2.8254
11
2.32921
21
2.62629
62
4
0
LINE
8
BMD
10
2.32921
20
2.62629
11
2.333
21
2.626
62
4
0
LINE
8
BMD
10
2.682
20
2.8
11
2.67804
21
2.8003
62
4
0
LINE
8
BMD
10
2.67804
20
2.8003
11
2.66449
21
2.60119
62
4
0
LINE
8
BMD
10
2.66449
20
2.60119
11
2.667
21
2.601
62
4
0
LINE
8
BMD
10
3.015
20
2.775
11
3.01203
21
2.77522
62
4
0
LINE
8
BMD
10
3.01203
20
2.77522
11
2.99844
21
2.57612
62
4
0
LINE
8
BMD
10
2.99844
20
2.57612
11
3
21
2.576
62
4
0
LINE
8
BMD
10
3.348
20
2.75
11
3.34578
21
2.75017
62
4
0
LINE
8
BMD
10
3.34578
20
2.75017
11
3.33217
21
2.55106
62
4
0
LINE
8
BMD
10
3.33217
20
2.55106
11
3.333
21
2.551
62
4
0
LINE
8
BMD
10
3.682
20
2.725
11
3.68039
21
2.72512
62
4
0
LINE
8
BMD
10
3.68039
20
2.72512
11
3.66674
21
2.52602
62
4
0
LINE
8
BMD
10
3.66674
20
2.52602
11
3.667
21
2.526
62
4
0
LINE
8
BMD
10
4.015
20
2.7
11
4.01389
21
2.70008
62
4
0
LINE
8
BMD
10
4.01389
20
2.70008
11
4.00021
21
2.50098
62
4
0
LINE
8
BMD
10
4.00021
20
2.50098
11
4
21
2.501
62
4
0
LINE
8
BMD
10
4.348
20
2.675
11
4.34735
21
2.67505
62
4
0
LINE
8
BMD
10
4.34735
20
2.67505
11
4.33364
21
2.47595
62
4
0
LINE
8
BMD
10
4.33364
20
2.47595
11
4.333
21
2.476
62
4
0
LINE
8
BMD
10
4.682
20
2.65
11
4.68181
21
2.65001
62
4
0
LINE
8
BMD
10
4.68181
20
2.65001
11
4.66807
21
2.45092
62
4
0
LINE
8
BMD
10
4.66807
20
2.45092
11
4.667
21
2.451
62
4
0
LINE
8
BMD
10
5.015
20
2.625
11
5.0153
21
2.62498
62
4
0
LINE
8
BMD
10
5.0153
20
2.62498
11
5.00153
21
2.42588
62
4
0
LINE
8
BMD
10
5.00153
20
2.42588
11
5
21
2.426
62
4
0
LINE
8
BMD
10
5.348
20
2.6
11
5.34889
21
2.59993
62
4
0
LINE
8
BMD
10
5.34889
20
2.59993
11
5.33508
21
2.40084
62
4
0
LINE
8
BMD
10
5.33508
20
2.40084
11
5.333
21
2.401
62
4
0
LINE
8
BMD
10
5.682
20
2.575
11
5.68362
21
2.57488
62
4
0
LINE
8
BMD
10
5.68362
20
2.57488
11
5.66978
21
2.37579
62
4
0
LINE
8
BMD
10
5.66978
20
2.37579
11
5.667
21
2.376
62
4
0
LINE
8
BMD
10
6.015
20
2.55
11
6.01756
21
2.54981
62
4
0
LINE
8
BMD
10
6.01756
20
2.54981
11
6.00369
21
2.35072
62
4
0
LINE
8
BMD
10
6.00369
20
2.35072
11
6
21
2.351
62
4
0
LINE
8
BMD
10
6.348
20
2.525
11
6.35182
21
2.52471
62
4
0
LINE
8
BMD
10
6.35182
20
2.52471
11
6.33792
21
2.32563
62
4
0
LINE
8
BMD
10
6.33792
20
2.32563
11
6.333
21
2.326
62
4
0
LINE
8
BMD
10
6.682
20
2.5
11
6.6875
21
2.49959
62
4
0
LINE
8
BMD
10
6.6875
20
2.49959
11
6.67356
21
2.30051
62
4
0
LINE
8
BMD
10
6.67356
20
2.30051
11
6.667
21
2.301
62
4
0
LINE
8
BMD
10
7.015
20
2.475
11
7.02275
21
2.47442
62
4
0
LINE
8
BMD
10
7.02275
20
2.47442
11
7.00878
21
2.27534
62
4
0
LINE
8
BMD
10
7.00878
20
2.27534
11
7
21
2.276
62
4
0
LINE
8
BMD
10
7.348
20
2.45
11
7.35871
21
2.44919
62
4
0
LINE
8
BMD
10
7.35871
20
2.44919
11
7.34472
21
2.25012
62
4
0
LINE
8
BMD
10
7.34472
20
2.25012
11
7.333
21
2.251
62
4
0
LINE
8
BMD
10
7.682
20
2.425
11
7.69622
21
2.42393
62
4
0
LINE
8
BMD
10
7.69622
20
2.42393
11
7.68218
21
2.22486
62
4
0
LINE
8
BMD
10
7.68218
20
2.22486
11
7.667
21
2.226
62
4
0
LINE
8
BMD
10
8.015
20
2.4
11
8.03764
21
2.39829
62
4
0
LINE
8
BMD
10
8.03764
20
2.39829
11
8.01091
21
2.20018
62
4
0
LINE
8
BMD
10
8.01091
20
2.20018
11
8
21
2.201
62
4
0
LINE
8
BMD
10
0.015
20
3
11
-0.28378
21
3
62
4
0
LINE
8
BMD
10
-0.28378
20
3
11
0.294408
21
0
62
4
0
LINE
8
BMD
10
0.294408
20
0
11
0.015
21
0
62
4
0
LINE
8
BMD
10
8.015
20
2.4
11
7.9976
21
2.4
62
4
0
LINE
8
BMD
10
7.9976
20
2.4
11
8.315
21
0
62
4
0
LINE
8
BMD
10
8.315
20
0
11
8.015
21
0
62
4
0
LINE
8
Undeflected
10
0.015
20
3
11
0.348
21
2.975
62
0
0
LINE
8
Deflected
10
-0.0310697
20
2.89384
11
0.297197
21
2.86695
62
1
0
LINE
8
Undeflected
10
0.348
20
2.975
11
0.682
21
2.95
62
0
0
LINE
8
Deflected
10
0.297197
20
2.86695
11
0.626573
21
2.83841
62
1
0
LINE
8
Undeflected
10
0.682
20
2.95
11
1.015
21
2.925
62
0
0
LINE
8
Deflected
10
0.626573
20
2.83841
11
0.955138
21
2.80886
62
1
0
LINE
8
Undeflected
10
1.015
20
2.925
11
1.348
21
2.9
62
0
0
LINE
8
Deflected
10
0.955138
20
2.80886
11
1.28392
21
2.7787
62
1
0
LINE
8
Undeflected
10
1.348
20
2.9
11
1.682
21
2.875
62
0
0
LINE
8
Deflected
10
1.28392
20
2.7787
11
1.61394
21
2.74825
62
1
0
LINE
8
Undeflected
10
1.682
20
2.875
11
2.015
21
2.85
62
0
0
LINE
8
Deflected
10
1.61394
20
2.74825
11
1.94325
21
2.71786
62
1
0
LINE
8
Undeflected
10
2.015
20
2.85
11
2.348
21
2.825
62
0
0
LINE
8
Deflected
10
1.94325
20
2.71786
11
2.27288
21
2.6878
62
1
0
LINE
8
Undeflected
10
2.348
20
2.825
11
2.682
21
2.8
62
0
0
LINE
8
Deflected
10
2.27288
20
2.6878
11
2.60385
21
2.6583
62
1
0
LINE
8
Undeflected
10
2.682
20
2.8
11
3.015
21
2.775
62
0
0
LINE
8
Deflected
10
2.60385
20
2.6583
11
2.93419
21
2.62961
62
1
0
LINE
8
Undeflected
10
3.015
20
2.775
11
3.348
21
2.75
62
0
0
LINE
8
Deflected
10
2.93419
20
2.62961
11
3.26492
21
2.6019
62
1
0
LINE
8
Undeflected
10
3.348
20
2.75
11
3.682
21
2.725
62
0
0
LINE
8
Deflected
10
3.26492
20
2.6019
11
3.59706
21
2.57532
62
1
0
LINE
8
Undeflected
10
3.682
20
2.725
11
4.015
21
2.7
62
0
0
LINE
8
Deflected
10
3.59706
20
2.57532
11
3.92864
21
2.55
62
1
0
LINE
8
Undeflected
10
4.015
20
2.7
11
4.348
21
2.675
62
0
0
LINE
8
Deflected
10
3.92864
20
2.55
11
4.26067
21
2.52603
62
1
0
LINE
8
Undeflected
10
4.348
20
2.675
11
4.682
21
2.65
62
0
0
LINE
8
Deflected
10
4.26067
20
2.52603
11
4.59416
21
2.50349
62
1
0
LINE
8
Undeflected
10
4.682
20
2.65
11
5.015
21
2.625
62
0
0
LINE
8
Deflected
10
4.59416
20
2.50349
11
4.92712
21
2.48237
62
1
0
LINE
8
Undeflected
10
5.015
20
2.625
11
5.348
21
2.6
62
0
0
LINE
8
Deflected
10
4.92712
20
2.48237
11
5.26057
21
2.4627
62
1
0
LINE
8
Undeflected
10
5.348
20
2.6
11
5.682
21
2.575
62
0
0
LINE
8
Deflected
10
5.26057
20
2.4627
11
5.59551
21
2.44446
62
1
0
LINE
8
Undeflected
10
5.682
20
2.575
11
6.015
21
2.55
62
0
0
LINE
8
Deflected
10
5.59551
20
2.44446
11
5.92994
21
2.42754
62
1
0
LINE
8
Undeflected
10
6.015
20
2.55
11
6.348
21
2.525
62
0
0
LINE
8
Deflected
10
5.92994
20
2.42754
11
6.26488
21
2.41187
62
1
0
LINE
8
Undeflected
10
6.348
20
2.525
11
6.682
21
2.5
62
0
0
LINE
8
Deflected
10
6.26488
20
2.41187
11
6.60131
21
2.39735
62
1
0
LINE
8
Undeflected
10
6.682
20
2.5
11
7.015
21
2.475
62
0
0
LINE
8
Deflected
10
6.60131
20
2.39735
11
6.93724
21
2.38376
62
1
0
LINE
8
Undeflected
10
7.015
20
2.475
11
7.348
21
2.45
62
0
0
LINE
8
Deflected
10
6.93724
20
2.38376
11
7.27365
21
2.37094
62
1
0
LINE
8
Undeflected
10
7.348
20
2.45
11
7.682
21
2.425
62
0
0
LINE
8
Deflected
10
7.27365
20
2.37094
11
7.61156
21
2.35872
62
1
0
LINE
8
Undeflected
10
7.682
20
2.425
11
8.015
21
2.4
62
0
0
LINE
8
Deflected
10
7.61156
20
2.35872
11
7.94894
21
2.34675
62
1
0
LINE
8
Undeflected
10
0
20
2.801
11
0.333
21
2.776
62
0
0
LINE
8
Deflected
10
-0.0470168
20
2.69468
11
0.28027
21
2.66754
62
1
0
LINE
8
Undeflected
10
0.333
20
2.776
11
0.667
21
2.751
62
0
0
LINE
8
Deflected
10
0.28027
20
2.66754
11
0.608944
21
2.63919
62
1
0
LINE
8
Undeflected
10
0.667
20
2.751
11
1
21
2.726
62
0
0
LINE
8
Deflected
10
0.608944
20
2.63919
11
0.937047
21
2.60983
62
1
0
LINE
8
Undeflected
10
1
20
2.726
11
1.333
21
2.701
62
0
0
LINE
8
Deflected
10
0.937047
20
2.60983
11
1.26558
21
2.57982
62
1
0
LINE
8
Undeflected
10
1.333
20
2.701
11
1.667
21
2.676
62
0
0
LINE
8
Deflected
10
1.26558
20
2.57982
11
1.59555
21
2.54948
62
1
0
LINE
8
Undeflected
10
1.667
20
2.676
11
2
21
2.651
62
0
0
LINE
8
Deflected
10
1.59555
20
2.54948
11
1.92499
21
2.51916
62
1
0
LINE
8
Undeflected
10
2
20
2.651
11
2.333
21
2.626
62
0
0
LINE
8
Deflected
10
1.92499
20
2.51916
11
2.2549
21
2.48913
62
1
0
LINE
8
Undeflected
10
2.333
20
2.626
11
2.667
21
2.601
62
0
0
LINE
8
Deflected
10
2.2549
20
2.48913
11
2.58629
21
2.45964
62
1
0
LINE
8
Undeflected
10
2.667
20
2.601
11
3
21
2.576
62
0
0
LINE
8
Deflected
10
2.58629
20
2.45964
11
2.91718
21
2.43094
62
1
0
LINE
8
Undeflected
10
3
20
2.576
11
3.333
21
2.551
62
0
0
LINE
8
Deflected
10
2.91718
20
2.43094
11
3.24856
21
2.40319
62
1
0
LINE
8
Undeflected
10
3.333
20
2.551
11
3.667
21
2.526
62
0
0
LINE
8
Deflected
10
3.24856
20
2.40319
11
3.58144
21
2.37657
62
1
0
LINE
8
Undeflected
10
3.667
20
2.526
11
4
21
2.501
62
0
0
LINE
8
Deflected
10
3.58144
20
2.37657
11
3.91381
21
2.3512
62
1
0
LINE
8
Undeflected
10
4
20
2.501
11
4.333
21
2.476
62
0
0
LINE
8
Deflected
10
3.91381
20
2.3512
11
4.24668
21
2.32717
62
1
0
LINE
8
Undeflected
10
4.333
20
2.476
11
4.667
21
2.451
62
0
0
LINE
8
Deflected
10
4.24668
20
2.32717
11
4.58104
21
2.30455
62
1
0
LINE
8
Undeflected
10
4.667
20
2.451
11
5
21
2.426
62
0
0
LINE
8
Deflected
10
4.58104
20
2.30455
11
4.91488
21
2.28337
62
1
0
LINE
8
Undeflected
10
5
20
2.426
11
5.333
21
2.401
62
0
0
LINE
8
Deflected
10
4.91488
20
2.28337
11
5.2492
21
2.26362
62
1
0
LINE
8
Undeflected
10
5.333
20
2.401
11
5.667
21
2.376
62
0
0
LINE
8
Deflected
10
5.2492
20
2.26362
11
5.58498
21
2.2453
62
1
0
LINE
8
Undeflected
10
5.667
20
2.376
11
6
21
2.351
62
0
0
LINE
8
Deflected
10
5.58498
20
2.2453
11
5.92021
21
2.22829
62
1
0
LINE
8
Undeflected
10
6
20
2.351
11
6.333
21
2.326
62
0
0
LINE
8
Deflected
10
5.92021
20
2.22829
11
6.25586
21
2.21253
62
1
0
LINE
8
Undeflected
10
6.333
20
2.326
11
6.667
21
2.301
62
0
0
LINE
8
Deflected
10
6.25586
20
2.21253
11
6.59293
21
2.19791
62
1
0
LINE
8
Undeflected
10
6.667
20
2.301
11
7
21
2.276
62
0
0
LINE
8
Deflected
10
6.59293
20
2.19791
11
6.92939
21
2.18421
62
1
0
LINE
8
Undeflected
10
7
20
2.276
11
7.333
21
2.251
62
0
0
LINE
8
Deflected
10
6.92939
20
2.18421
11
7.2662
21
2.17126
62
1
0
LINE
8
Undeflected
10
7.333
20
2.251
11
7.667
21
2.226
62
0
0
LINE
8
Deflected
10
7.2662
20
2.17126
11
7.60437
21
2.15889
62
1
0
LINE
8
Undeflected
10
7.667
20
2.226
11
8
21
2.201
62
0
0
LINE
8
Deflected
10
7.60437
20
2.15889
11
7.94184
21
2.14675
62
1
0
LINE
8
Undeflected
10
0.015
20
3
11
0
21
2.801
62
0
0
LINE
8
Deflected
10
-0.0310697
20
2.89384
11
-0.0470168
21
2.69468
62
1
0
LINE
8
Undeflected
10
0.348
20
2.975
11
0.333
21
2.776
62
0
0
LINE
8
Deflected
10
0.297197
20
2.86695
11
0.28027
21
2.66754
62
1
0
LINE
8
Undeflected
10
0.682
20
2.95
11
0.667
21
2.751
62
0
0
LINE
8
Deflected
10
0.626573
20
2.83841
11
0.608944
21
2.63919
62
1
0
LINE
8
Undeflected
10
1.015
20
2.925
11
1
21
2.726
62
0
0
LINE
8
Deflected
10
0.955138
20
2.80886
11
0.937047
21
2.60983
62
1
0
LINE
8
Undeflected
10
1.348
20
2.9
11
1.333
21
2.701
62
0
0
LINE
8
Deflected
10
1.28392
20
2.7787
11
1.26558
21
2.57982
62
1
0
LINE
8
Undeflected
10
1.682
20
2.875
11
1.667
21
2.676
62
0
0
LINE
8
Deflected
10
1.61394
20
2.74825
11
1.59555
21
2.54948
62
1
0
LINE
8
Undeflected
10
2.015
20
2.85
11
2
21
2.651
62
0
0
LINE
8
Deflected
10
1.94325
20
2.71786
11
1.92499
21
2.51916
62
1
0
LINE
8
Undeflected
10
2.348
20
2.825
11
2.333
21
2.626
62
0
0
LINE
8
Deflected
10
2.27288
20
2.6878
11
2.2549
21
2.48913
62
1
0
LINE
8
Undeflected
10
2.682
20
2.8
11
2.667
21
2.601
62
0
0
LINE
8
Deflected
10
2.60385
20
2.6583
11
2.58629
21
2.45964
62
1
0
LINE
8
Undeflected
10
3.015
20
2.775
11
3
21
2.576
62
0
0
LINE
8
Deflected
10
2.93419
20
2.62961
11
2.91718
21
2.43094
62
1
0
LINE
8
Undeflected
10
3.348
20
2.75
11
3.333
21
2.551
62
0
0
LINE
8
Deflected
10
3.26492
20
2.6019
11
3.24856
21
2.40319
62
1
0
LINE
8
Undeflected
10
3.682
20
2.725
11
3.667
21
2.526
62
0
0
LINE
8
Deflected
10
3.59706
20
2.57532
11
3.58144
21
2.37657
62
1
0
LINE
8
Undeflected
10
4.015
20
2.7
11
4
21
2.501
62
0
0
LINE
8
Deflected
10
3.92864
20
2.55
11
3.91381
21
2.3512
62
1
0
LINE
8
Undeflected
10
4.348
20
2.675
11
4.333
21
2.476
62
0
0
LINE
8
Deflected
10
4.26067
20
2.52603
11
4.24668
21
2.32717
62
1
0
LINE
8
Undeflected
10
4.682
20
2.65
11
4.667
21
2.451
62
0
0
LINE
8
Deflected
10
4.59416
20
2.50349
11
4.58104
21
2.30455
62
1
0
LINE
8
Undeflected
10
5.015
20
2.625
11
5
21
2.426
62
0
0
LINE
8
Deflected
10
4.92712
20
2.48237
11
4.91488
21
2.28337
62
1
0
LINE
8
Undeflected
10
5.348
20
2.6
11
5.333
21
2.401
62
0
0
LINE
8
Deflected
10
5.26057
20
2.4627
11
5.2492
21
2.26362
62
1
0
LINE
8
Undeflected
10
5.682
20
2.575
11
5.667
21
2.376
62
0
0
LINE
8
Deflected
10
5.59551
20
2.44446
11
5.58498
21
2.2453
62
1
0
LINE
8
Undeflected
10
6.015
20
2.55
11
6
21
2.351
62
0
0
LINE
8
Deflected
10
5.92994
20
2.42754
11
5.92021
21
2.22829
62
1
0
LINE
8
Undeflected
10
6.348
20
2.525
11
6.333
21
2.326
62
0
0
LINE
8
Deflected
10
6.26488
20
2.41187
11
6.25586
21
2.21253
62
1
0
LINE
8
Undeflected
10
6.682
20
2.5
11
6.667
21
2.301
62
0
0
LINE
8
Deflected
10
6.60131
20
2.39735
11
6.59293
21
2.19791
62
1
0
LINE
8
Undeflected
10
7.015
20
2.475
11
7
21
2.276
62
0
0
LINE
8
Deflected
10
6.93724
20
2.38376
11
6.92939
21
2.18421
62
1
0
LINE
8
Undeflected
10
7.348
20
2.45
11
7.333
21
2.251
62
0
0
LINE
8
Deflected
10
7.27365
20
2.37094
11
7.2662
21
2.17126
62
1
0
LINE
8
Undeflected
10
7.682
20
2.425
11
7.667
21
2.226
62
0
0
LINE
8
Deflected
10
7.61156
20
2.35872
11
7.60437
21
2.15889
62
1
0
LINE
8
Undeflected
10
8.015
20
2.4
11
8
21
2.201
62
0
0
LINE
8
Deflected
10
7.94894
20
2.34675
11
7.94184
21
2.14675
62
1
0
LINE
8
Undeflected
10
0.015
20
3
11
0.015
21
0
62
0
0
LINE
8
Deflected
10
-0.0310697
20
2.89384
11
0.015
21
0
62
1
0
LINE
8
Undeflected
10
8.015
20
2.4
11
8.015
21
0
62
0
0
LINE
8
Deflected
10
7.94894
20
2.34675
11
8.015
21
0
62
1
0
CIRCLE
8
Undeflected
10
0.015
20
3
40
0.03
62
0
0
CIRCLE
8
Deflected
10
-0.0310697
20
2.89384
40
0.03
62
1
0
CIRCLE
8
Undeflected
10
0.348
20
2.975
40
0.03
62
0
0
CIRCLE
8
Deflected
10
0.297197
20
2.86695
40
0.03
62
1
0
CIRCLE
8
Undeflected
10
0.682
20
2.95
40
0.03
62
0
0
CIRCLE
8
Deflected
10
0.626573
20
2.83841
40
0.03
62
1
0
CIRCLE
8
Undeflected
10
1.015
20
2.925
40
0.03
62
0
0
CIRCLE
8
Deflected
10
0.955138
20
2.80886
40
0.03
62
1
0
CIRCLE
8
Undeflected
10
1.348
20
2.9
40
0.03
62
0
0
CIRCLE
8
Deflected
10
1.28392
20
2.7787
40
0.03
62
1
0
CIRCLE
8
Undeflected
10
1.682
20
2.875
40
0.03
62
0
0
CIRCLE
8
Deflected
10
1.61394
20
2.74825
40
0.03
62
1
0
CIRCLE
8
Undeflected
10
2.015
20
2.85
40
0.03
62
0
0
CIRCLE
8
Deflected
10
1.94325
20
2.71786
40
0.03
62
1
0
CIRCLE
8
Undeflected
10
2.348
20
2.825
40
0.03
62
0
0
CIRCLE
8
Deflected
10
2.27288
20
2.6878
40
0.03
62
1
0
CIRCLE
8
Undeflected
10
2.682
20
2.8
40
0.03
62
0
0
CIRCLE
8
Deflected
10
2.60385
20
2.6583
40
0.03
62
1
0
CIRCLE
8
Undeflected
10
3.015
20
2.775
40
0.03
62
0
0
CIRCLE
8
Deflected
10
2.93419
20
2.62961
40
0.03
62
1
0
CIRCLE
8
Undeflected
10
3.348
20
2.75
40
0.03
62
0
0
CIRCLE
8
Deflected
10
3.26492
20
2.6019
40
0.03
62
1
0
CIRCLE
8
Undeflected
10
3.682
20
2.725
40
0.03
62
0
0
CIRCLE
8
Deflected
10
3.59706
20
2.57532
40
0.03
62
1
0
CIRCLE
8
Undeflected
10
4.015
20
2.7
40
0.03
62
0
0
CIRCLE
8
Deflected
10
3.92864
20
2.55
40
0.03
62
1
0
CIRCLE
8
Undeflected
10
4.348
20
2.675
40
0.03
62
0
0
CIRCLE
8
Deflected
10
4.26067
20
2.52603
40
0.03
62
1
0
CIRCLE
8
Undeflected
10
4.682
20
2.65
40
0.03
62
0
0
CIRCLE
8
Deflected
10
4.59416
20
2.50349
40
0.03
62
1
0
CIRCLE
8
Undeflected
10
5.015
20
2.625
40
0.03
62
0
0
CIRCLE
8
Deflected
10
4.92712
20
2.48237
40
0.03
62
1
0
CIRCLE
8
Undeflected
10
5.348
20
2.6
40
0.03
62
0
0
CIRCLE
8
Deflected
10
5.26057
20
2.4627
40
0.03
62
1
0
CIRCLE
8
Undeflected
10
5.682
20
2.575
40
0.03
62
0
0
CIRCLE
8
Deflected
10
5.59551
20
2.44446
40
0.03
62
1
0
CIRCLE
8
Undeflected
10
6.015
20
2.55
40
0.03
62
0
0
CIRCLE
8
Deflected
10
5.92994
20
2.42754
40
0.03
62
1
0
CIRCLE
8
Undeflected
10
6.348
20
2.525
40
0.03
62
0
0
CIRCLE
8
Deflected
10
6.26488
20
2.41187
40
0.03
62
1
0
CIRCLE
8
Undeflected
10
6.682
20
2.5
40
0.03
62
0
0
CIRCLE
8
Deflected
10
6.60131
20
2.39735
40
0.03
62
1
0
CIRCLE
8
Undeflected
10
7.015
20
2.475
40
0.03
62
0
0
CIRCLE
8
Deflected
10
6.93724
20
2.38376
40
0.03
62
1
0
CIRCLE
8
Undeflected
10
7.348
20
2.45
40
0.03
62
0
0
CIRCLE
8
Deflected
10
7.27365
20
2.37094
40
0.03
62
1
0
CIRCLE
8
Undeflected
10
7.682
20
2.425
40
0.03
62
0
0
CIRCLE
8
Deflected
10
7.61156
20
2.35872
40
0.03
62
1
0
CIRCLE
8
Undeflected
10
8.015
20
2.4
40
0.03
62
0
0
CIRCLE
8
Deflected
10
7.94894
20
2.34675
40
0.03
62
1
0
CIRCLE
8
Undeflected
10
0
20
2.801
40
0.03
62
0
0
CIRCLE
8
Deflected
10
-0.0470168
20
2.69468
40
0.03
62
1
0
CIRCLE
8
Undeflected
10
0.333
20
2.776
40
0.03
62
0
0
CIRCLE
8
Deflected
10
0.28027
20
2.66754
40
0.03
62
1
0
CIRCLE
8
Undeflected
10
0.667
20
2.751
40
0.03
62
0
0
CIRCLE
8
Deflected
10
0.608944
20
2.63919
40
0.03
62
1
0
CIRCLE
8
Undeflected
10
1
20
2.726
40
0.03
62
0
0
CIRCLE
8
Deflected
10
0.937047
20
2.60983
40
0.03
62
1
0
CIRCLE
8
Undeflected
10
1.333
20
2.701
40
0.03
62
0
0
CIRCLE
8
Deflected
10
1.26558
20
2.57982
40
0.03
62
1
0
CIRCLE
8
Undeflected
10
1.667
20
2.676
40
0.03
62
0
0
CIRCLE
8
Deflected
10
1.59555
20
2.54948
40
0.03
62
1
0
CIRCLE
8
Undeflected
10
2
20
2.651
40
0.03
62
0
0
CIRCLE
8
Deflected
10
1.92499
20
2.51916
40
0.03
62
1
0
CIRCLE
8
Undeflected
10
2.333
20
2.626
40
0.03
62
0
0
CIRCLE
8
Deflected
10
2.2549
20
2.48913
40
0.03
62
1
0
CIRCLE
8
Undeflected
10
2.667
20
2.601
40
0.03
62
0
0
CIRCLE
8
Deflected
10
2.58629
20
2.45964
40
0.03
62
1
0
CIRCLE
8
Undeflected
10
3
20
2.576
40
0.03
62
0
0
CIRCLE
8
Deflected
10
2.91718
20
2.43094
40
0.03
62
1
0
CIRCLE
8
Undeflected
10
3.333
20
2.551
40
0.03
62
0
0
CIRCLE
8
Deflected
10
3.24856
20
2.40319
40
0.03
62
1
0
CIRCLE
8
Undeflected
10
3.667
20
2.526
40
0.03
62
0
0
CIRCLE
8
Deflected
10
3.58144
20
2.37657
40
0.03
62
1
0
CIRCLE
8
Undeflected
10
4
20
2.501
40
0.03
62
0
0
CIRCLE
8
Deflected
10
3.91381
20
2.3512
40
0.03
62
1
0
CIRCLE
8
Undeflected
10
4.333
20
2.476
40
0.03
62
0
0
CIRCLE
8
Deflected
10
4.24668
20
2.32717
40
0.03
62
1
0
CIRCLE
8
Undeflected
10
4.667
20
2.451
40
0.03
62
0
0
CIRCLE
8
Deflected
10
4.58104
20
2.30455
40
0.03
62
1
0
CIRCLE
8
Undeflected
10
5
20
2.426
40
0.03
62
0
0
CIRCLE
8
Deflected
10
4.91488
20
2.28337
40
0.03
62
1
0
CIRCLE
8
Undeflected
10
5.333
20
2.401
40
0.03
62
0
0
CIRCLE
8
Deflected
10
5.2492
20
2.26362
40
0.03
62
1
0
CIRCLE
8
Undeflected
10
5.667
20
2.376
40
0.03
62
0
0
CIRCLE
8
Deflected
10
5.58498
20
2.2453
40
0.03
62
1
0
CIRCLE
8
Undeflected
10
6
20
2.351
40
0.03
62
0
0
CIRCLE
8
Deflected
10
5.92021
20
2.22829
40
0.03
62
1
0
CIRCLE
8
Undeflected
10
6.333
20
2.326
40
0.03
62
0
0
CIRCLE
8
Deflected
10
6.25586
20
2.21253
40
0.03
62
1
0
CIRCLE
8
Undeflected
10
6.667
20
2.301
40
0.03
62
0
0
CIRCLE
8
Deflected
10
6.59293
20
2.19791
40
0.03
62
1
0
CIRCLE
8
Undeflected
10
7
20
2.276
40
0.03
62
0
0
CIRCLE
8
Deflected
10
6.92939
20
2.18421
40
0.03
62
1
0
CIRCLE
8
Undeflected
10
7.333
20
2.251
40
0.03
62
0
0
CIRCLE
8
Deflected
10
7.2662
20
2.17126
40
0.03
62
1
0
CIRCLE
8
Undeflected
10
7.667
20
2.226
40
0.03
62
0
0
CIRCLE
8
Deflected
10
7.60437
20
2.15889
40
0.03
62
1
0
CIRCLE
8
Undeflected
10
8
20
2.201
40
0.03
62
0
0
CIRCLE
8
Deflected
10
7.94184
20
2.14675
40
0.03
62
1
0
CIRCLE
8
Undeflected
10
0.015
20
0
40
0.03
62
0
0
CIRCLE
8
Deflected
10
0.015
20
0
40
0.03
62
1
0
CIRCLE
8
Undeflected
10
8.015
20
0
40
0.03
62
0
0
CIRCLE
8
Deflected
10
8.015
20
0
40
0.03
62
1
0
TEXT
8
Information
1
0
10
0.1815
20
2.9875
40
0.06
62
0
0
TEXT
8
Information
1
1
10
0.515
20
2.9625
40
0.06
62
0
0
TEXT
8
Information
1
2
10
0.8485
20
2.9375
40
0.06
62
0
0
TEXT
8
Information
1
3
10
1.1815
20
2.9125
40
0.06
62
0
0
TEXT
8
Information
1
4
10
1.515
20
2.8875
40
0.06
62
0
0
TEXT
8
Information
1
5
10
1.8485
20
2.8625
40
0.06
62
0
0
TEXT
8
Information
1
6
10
2.1815
20
2.8375
40
0.06
62
0
0
TEXT
8
Information
1
7
10
2.515
20
2.8125
40
0.06
62
0
0
TEXT
8
Information
1
8
10
2.8485
20
2.7875
40
0.06
62
0
0
TEXT
8
Information
1
9
10
3.1815
20
2.7625
40
0.06
62
0
0
TEXT
8
Information
1
10
10
3.515
20
2.7375
40
0.06
62
0
0
TEXT
8
Information
1
11
10
3.8485
20
2.7125
40
0.06
62
0
0
TEXT
8
Information
1
12
10
4.1815
20
2.6875
40
0.06
62
0
0
TEXT
8
Information
1
13
10
4.515
20
2.6625
40
0.06
62
0
0
TEXT
8
Information
1
14
10
4.8485
20
2.6375
40
0.06
62
0
0
TEXT
8
Information
1
15
10
5.1815
20
2.6125
40
0.06
62
0
0
TEXT
8
Information
1
16
10
5.515
20
2.5875
40
0.06
62
0
0
TEXT
8
Information
1
17
10
5.8485
20
2.5625
40
0.06
62
0
0
TEXT
8
Information
1
18
10
6.1815
20
2.5375
40
0.06
62
0
0
TEXT
8
Information
1
19
10
6.515
20
2.5125
40
0.06
62
0
0
TEXT
8
Information
1
20
10
6.8485
20
2.4875
40
0.06
62
0
0
TEXT
8
Information
1
21
10
7.1815
20
2.4625
40
0.06
62
0
0
TEXT
8
Information
1
22
10
7.515
20
2.4375
40
0.06
62
0
0
TEXT
8
Information
1
23
10
7.8485
20
2.4125
40
0.06
62
0
0
TEXT
8
Information
1
24
10
0.1665
20
2.7885
40
0.06
62
0
0
TEXT
8
Information
1
25
10
0.5
20
2.7635
40
0.06
62
0
0
TEXT
8
Information
1
26
10
0.8335
20
2.7385
40
0.06
62
0
0
TEXT
8
Information
1
27
10
1.1665
20
2.7135
40
0.06
62
0
0
TEXT
8
Information
1
28
10
1.5
20
2.6885
40
0.06
62
0
0
TEXT
8
Information
1
29
10
1.8335
20
2.6635
40
0.06
62
0
0
TEXT
8
Information
1
30
10
2.1665
20
2.6385
40
0.06
62
0
0
TEXT
8
Information
1
31
10
2.5
20
2.6135
40
0.06
62
0
0
TEXT
8
Information
1
32
10
2.8335
20
2.5885
40
0.06
62
0
0
TEXT
8
Information
1
33
10
3.1665
20
2.5635
40
0.06
62
0
0
TEXT
8
Information
1
34
10
3.5
20
2.5385
40
0.06
62
0
0
TEXT
8
Information
1
35
10
3.8335
20
2.5135
40
0.06
62
0
0
TEXT
8
Information
1
36
10
4.1665
20
2.4885
40
0.06
62
0
0
TEXT
8
Information
1
37
10
4.5
20
2.4635
40
0.06
62
0
0
TEXT
8
Information
1
38
10
4.8335
20
2.4385
40
0.06
62
0
0
TEXT
8
Information
1
39
10
5.1665
20
2.4135
40
0.06
62
0
0
TEXT
8
Information
1
40
10
5.5
20
2.3885
40
0.06
62
0
0
TEXT
8
Information
1
41
10
5.8335
20
2.3635
40
0.06
62
0
0
TEXT
8
Information
1
42
10
6.1665
20
2.3385
40
0.06
62
0
0
TEXT
8
Information
1
43
10
6.5
20
2.3135
40
0.06
62
0
0
TEXT
8
Information
1
44
10
6.8335
20
2.2885
40
0.06
62
0
0
TEXT
8
Information
1
45
10
7.1665
20
2.2635
40
0.06
62
0
0
TEXT
8
Information
1
46
10
7.5
20
2.2385
40
0.06
62
0
0
TEXT
8
Information
1
47
10
7.8335
20
2.2135
40
0.06
62
0
0
TEXT
8
Information
1
48
10
0.0075
20
2.9005
40
0.06
62
0
0
TEXT
8
Information
1
49
10
0.3405
20
2.8755
40
0.06
62
0
0
TEXT
8
Information
1
50
10
0.6745
20
2.8505
40
0.06
62
0
0
TEXT
8
Information
1
51
10
1.0075
20
2.8255
40
0.06
62
0
0
TEXT
8
Information
1
52
10
1.3405
20
2.8005
40
0.06
62
0
0
TEXT
8
Information
1
53
10
1.6745
20
2.7755
40
0.06
62
0
0
TEXT
8
Information
1
54
10
2.0075
20
2.7505
40
0.06
62
0
0
TEXT
8
Information
1
55
10
2.3405
20
2.7255
40
0.06
62
0
0
TEXT
8
Information
1
56
10
2.6745
20
2.7005
40
0.06
62
0
0
TEXT
8
Information
1
57
10
3.0075
20
2.6755
40
0.06
62
0
0
TEXT
8
Information
1
58
10
3.3405
20
2.6505
40
0.06
62
0
0
TEXT
8
Information
1
59
10
3.6745
20
2.6255
40
0.06
62
0
0
TEXT
8
Information
1
60
10
4.0075
20
2.6005
40
0.06
62
0
0
TEXT
8
Information
1
61
10
4.3405
20
2.5755
40
0.06
62
0
0
TEXT
8
Information
1
62
10
4.6745
20
2.5505
40
0.06
62
0
0
TEXT
8
Information
1
63
10
5.0075
20
2.5255
40
0.06
62
0
0
TEXT
8
Information
1
64
10
5.3405
20
2.5005
40
0.06
62
0
0
TEXT
8
Information
1
65
10
5.6745
20
2.4755
40
0.06
62
0
0
TEXT
8
Information
1
66
10
6.0075
20
2.4505
40
0.06
62
0
0
TEXT
8
Information
1
67
10
6.3405
20
2.4255
40
0.06
62
0
0
TEXT
8
Information
1
68
10
6.6745
20
2.4005
40
0.06
62
0
0
TEXT
8
Information
1
69
10
7.0075
20
2.3755
40
0.06
62
0
0
TEXT
8
Information
1
70
10
7.3405
20
2.3505
40
0.06
62
0
0
TEXT
8
Information
1
71
10
7.6745
20
2.3255
40
0.06
62
0
0
TEXT
8
Information
1
72
10
8.0075
20
2.3005
40
0.06
62
0
0
TEXT
8
Information
1
73
10
0.015
20
1.5
40
0.06
62
0
0
TEXT
8
Information
1
74
10
8.015
20
1.2
40
0.06
62
0
0
TEXT
8
Information
1
0
10
0.075
20
3.06
40
0.06
62
5
0
TEXT
8
Information
1
1
10
0.408
20
3.035
40
0.06
62
5
0
TEXT
8
Information
1
2
10
0.742
20
3.01
40
0.06
62
5
0
TEXT
8
Information
1
3
10
1.075
20
2.985
40
0.06
62
5
0
TEXT
8
Information
1
4
10
1.408
20
2.96
40
0.06
62
5
0
TEXT
8
Information
1
5
10
1.742
20
2.935
40
0.06
62
5
0
TEXT
8
Information
1
6
10
2.075
20
2.91
40
0.06
62
5
0
TEXT
8
Information
1
7
10
2.408
20
2.885
40
0.06
62
5
0
TEXT
8
Information
1
8
10
2.742
20
2.86
40
0.06
62
5
0
TEXT
8
Information
1
9
10
3.075
20
2.835
40
0.06
62
5
0
TEXT
8
Information
1
10
10
3.408
20
2.81
40
0.06
62
5
0
TEXT
8
Information
1
11
10
3.742
20
2.785
40
0.06
62
5
0
TEXT
8
Information
1
12
10
4.075
20
2.76
40
0.06
62
5
0
TEXT
8
Information
1
13
10
4.408
20
2.735
40
0.06
62
5
0
TEXT
8
Information
1
14
10
4.742
20
2.71
40
0.06
62
5
0
TEXT
8
Information
1
15
10
5.075
20
2.685
40
0.06
62
5
0
TEXT
8
Information
1
16
10
5.408
20
2.66
40
0.06
62
5
0
TEXT
8
Information
1
17
10
5.742
20
2.635
40
0.06
62
5
0
TEXT
8
Information
1
18
10
6.075
20
2.61
40
0.06
62
5
0
TEXT
8
Information
1
19
10
6.408
20
2.585
40
0.06
62
5
0
TEXT
8
Information
1
20
10
6.742
20
2.56
40
0.06
62
5
0
TEXT
8
Information
1
21
10
7.075
20
2.535
40
0.06
62
5
0
TEXT
8
Information
1
22
10
7.408
20
2.51
40
0.06
62
5
0
TEXT
8
Information
1
23
10
7.742
20
2.485
40
0.06
62
5
0
TEXT
8
Information
1
24
10
8.075
20
2.46
40
0.06
62
5
0
TEXT
8
Information
1
25
10
0.06
20
2.861
40
0.06
62
5
0
TEXT
8
Information
1
26
10
0.393
20
2.836
40
0.06
62
5
0
TEXT
8
Information
1
27
10
0.727
20
2.811
40
0.06
62
5
0
TEXT
8
Information
1
28
10
1.06
20
2.786
40
0.06
62
5
0
TEXT
8
Information
1
29
10
1.393
20
2.761
40
0.06
62
5
0
TEXT
8
Information
1
30
10
1.727
20
2.736
40
0.06
62
5
0
TEXT
8
Information
1
31
10
2.06
20
2.711
40
0.06
62
5
0
TEXT
8
Information
1
32
10
2.393
20
2.686
40
0.06
62
5
0
TEXT
8
Information
1
33
10
2.727
20
2.661
40
0.06
62
5
0
TEXT
8
Information
1
34
10
3.06
20
2.636
40
0.06
62
5
0
TEXT
8
Information
1
35
10
3.393
20
2.611
40
0.06
62
5
0
TEXT
8
Information
1
36
10
3.727
20
2.586
40
0.06
62
5
0
TEXT
8
Information
1
37
10
4.06
20
2.561
40
0.06
62
5
0
TEXT
8
Information
1
38
10
4.393
20
2.536
40
0.06
62
5
0
TEXT
8
Information
1
39
10
4.727
20
2.511
40
0.06
62
5
0
TEXT
8
Information
1
40
10
5.06
20
2.486
40
0.06
62
5
0
TEXT
8
Information
1
41
10
5.393
20
2.461
40
0.06
62
5
0
TEXT
8
Information
1
42
10
5.727
20
2.436
40
0.06
62
5
0
TEXT
8
Information
1
43
10
6.06
20
2.411
40
0.06
62
5
0
TEXT
8
Information
1
44
10
6.393
20
2.386
40
0.06
62
5
0
TEXT
8
Information
1
45
10
6.727
20
2.361
40
0.06
62
5
0
TEXT
8
Information
1
46
10
7.06
20
2.336
40
0.06
62
5
0
TEXT
8
Information
1
47
10
7.393
20
2.311
40
0.06
62
5
0
TEXT
8
Information
1
48
10
7.727
20
2.286
40
0.06
62
5
0
TEXT
8
Information
1
49
10
8.06
20
2.261
40
0.06
62
5
0
TEXT
8
Information
1
50
10
0.075
20
0.06
40
0.06
62
5
0
TEXT
8
Information
1
51
10
8.075
20
0.06
40
0.06
62
5
0
LINE
8
Information
10
0.015
20
3
11
0.165
21
3
62
1
0
LINE
8
Information
10
0.015
20
3
11
0.015
21
3.15
62
1
0
LINE
8
Information
10
0.348
20
2.975
11
0.648
21
2.975
62
1
0
LINE
8
Information
10
0.348
20
2.975
11
0.348
21
3.275
62
1
0
LINE
8
Information
10
0.682
20
2.95
11
0.982
21
2.95
62
1
0
LINE
8
Information
10
0.682
20
2.95
11
0.682
21
3.25
62
1
0
LINE
8
Information
10
1.015
20
2.925
11
1.315
21
2.925
62
1
0
LINE
8
Information
10
1.015
20
2.925
11
1.015
21
3.225
62
1
0
LINE
8
Information
10
1.348
20
2.9
11
1.648
21
2.9
62
1
0
LINE
8
Information
10
1.348
20
2.9
11
1.348
21
3.2
62
1
0
LINE
8
Information
10
1.682
20
2.875
11
1.982
21
2.875
62
1
0
LINE
8
Information
10
1.682
20
2.875
11
1.682
21
3.175
62
1
0
LINE
8
Information
10
2.015
20
2.85
11
2.315
21
2.85
62
1
0
LINE
8
Information
10
2.015
20
2.85
11
2.015
21
3.15
62
1
0
LINE
8
Information
10
2.348
20
2.825
11
2.648
21
2.825
62
1
0
LINE
8
Information
10
2.348
20
2.825
11
2.348
21
3.125
62
1
0
LINE
8
Information
10
2.682
20
2.8
11
2.982
21
2.8
62
1
0
LINE
8
Information
10
2.682
20
2.8
11
2.682
21
3.1
62
1
0
LINE
8
Information
10
3.015
20
2.775
11
3.315
21
2.775
62
1
0
LINE
8
Information
10
3.015
20
2.775
11
3.015
21
3.075
62
1
0
LINE
8
Information
10
3.348
20
2.75
11
3.648
21
2.75
62
1
0
LINE
8
Information
10
3.348
20
2.75
11
3.348
21
3.05
62
1
0
LINE
8
Information
10
3.682
20
2.725
11
3.982
21
2.725
62
1
0
LINE
8
Information
10
3.682
20
2.725
11
3.682
21
3.025
62
1
0
LINE
8
Information
10
4.015
20
2.7
11
4.315
21
2.7
62
1
0
LINE
8
Information
10
4.015
20
2.7
11
4.015
21
3
62
1
0
LINE
8
Information
10
4.348
20
2.675
11
4.648
21
2.675
62
1
0
LINE
8
Information
10
4.348
20
2.675
11
4.348
21
2.975
62
1
0
LINE
8
Information
10
4.682
20
2.65
11
4.982
21
2.65
62
1
0
LINE
8
Information
10
4.682
20
2.65
11
4.682
21
2.95
62
1
0
LINE
8
Information
10
5.015
20
2.625
11
5.315
21
2.625
62
1
0
LINE
8
Information
10
5.015
20
2.625
11
5.015
21
2.925
62
1
0
LINE
8
Information
10
5.348
20
2.6
11
5.648
21
2.6
62
1
0
LINE
8
Information
10
5.348
20
2.6
11
5.348
21
2.9
62
1
0
LINE
8
Information
10
5.682
20
2.575
11
5.982
21
2.575
62
1
0
LINE
8
Information
10
5.682
20
2.575
11
5.682
21
2.875
62
1
0
LINE
8
Information
10
6.015
20
2.55
11
6.315
21
2.55
62
1
0
LINE
8
Information
10
6.015
20
2.55
11
6.015
21
2.85
62
1
0
LINE
8
Information
10
6.348
20
2.525
11
6.648
21
2.525
62
1
0
LINE
8
Information
10
6.348
20
2.525
11
6.348
21
2.825
62
1
0
LINE
8
Information
10
6.682
20
2.5
11
6.982
21
2.5
62
1
0
LINE
8
Information
10
6.682
20
2.5
11
6.682
21
2.8
62
1
0
LINE
8
Information
10
7.015
20
2.475
11
7.315
21
2.475
62
1
0
LINE
8
Information
10
7.015
20
2.475
11
7.015
21
2.775
62
1
0
LINE
8
Information
10
7.348
20
2.45
11
7.648
21
2.45
62
1
0
LINE
8
Information
10
7.348
20
2.45
11
7.348
21
2.75
62
1
0
LINE
8
Information
10
7.682
20
2.425
11
7.982
21
2.425
62
1
0
LINE
8
Information
10
7.682
20
2.425
11
7.682
21
2.725
62
1
0
LINE
8
Information
10
8.015
20
2.4
11
8.165
21
2.4
62
1
0
LINE
8
Information
10
8.015
20
2.4
11
8.015
21
2.55
62
1
0
ENDSEC
0
EOF
