0
SECTION
2
ENTITIES
0
LINE
8
BMD
10
0
20
0
11
3.4076
21
0
62
4
0
LINE
8
BMD
10
3.4076
20
0
11
2.75243
21
0.5
62
4
0
LINE
8
BMD
10
2.75243
20
0.5
11
0
21
0.5
62
4
0
LINE
8
BMD
10
0
20
0.5
11
2.75243
21
0.5
62
4
0
LINE
8
BMD
10
2.75243
20
0.5
11
2.14726
21
1
62
4
0
LINE
8
BMD
10
2.14726
20
1
11
0
21
1
62
4
0
LINE
8
BMD
10
0
20
1
11
2.14726
21
1
62
4
0
LINE
8
BMD
10
2.14726
20
1
11
1.59209
21
1.5
62
4
0
LINE
8
BMD
10
1.59209
20
1.5
11
0
21
1.5
62
4
0
LINE
8
BMD
10
0
20
1.5
11
1.59209
21
1.5
62
4
0
LINE
8
BMD
10
1.59209
20
1.5
11
1.08692
21
2
62
4
0
LINE
8
BMD
10
1.08692
20
2
11
0
21
2
62
4
0
LINE
8
BMD
10
0
20
2
11
1.08692
21
2
62
4
0
LINE
8
BMD
10
1.08692
20
2
11
0.631744
21
2.5
62
4
0
LINE
8
BMD
10
0.631744
20
2.5
11
0
21
2.5
62
4
0
LINE
8
BMD
10
0
20
2.5
11
0.631744
21
2.5
62
4
0
LINE
8
BMD
10
0.631744
20
2.5
11
0.226572
21
3
62
4
0
LINE
8
BMD
10
0.226572
20
3
11
0
21
3
62
4
0
LINE
8
BMD
10
0
20
3
11
0.226572
21
3
62
4
0
LINE
8
BMD
10
0.226572
20
3
11
-0.128599
21
3.5
62
4
0
LINE
8
BMD
10
-0.128599
20
3.5
11
0
21
3.5
62
4
0
LINE
8
BMD
10
0
20
3.5
11
-0.128599
21
3.5
62
4
0
LINE
8
BMD
10
-0.128599
20
3.5
11
-0.433771
21
4
62
4
0
LINE
8
BMD
10
-0.433771
20
4
11
0
21
4
62
4
0
LINE
8
BMD
10
0
20
4
11
0.638118
21
4
62
4
0
LINE
8
BMD
10
0.638118
20
4
11
0.331894
21
4.5
62
4
0
LINE
8
BMD
10
0.331894
20
4.5
11
0
21
4.5
62
4
0
LINE
8
BMD
10
0
20
4.5
11
0.331894
21
4.5
62
4
0
LINE
8
BMD
10
0.331894
20
4.5
11
0.0756699
21
5
62
4
0
LINE
8
BMD
10
0.0756699
20
5
11
0
21
5
62
4
0
LINE
8
BMD
10
0
20
5
11
0.0756699
21
5
62
4
0
LINE
8
BMD
10
0.0756699
20
5
11
-0.130554
21
5.5
62
4
0
LINE
8
BMD
10
-0.130554
20
5.5
11
0
21
5.5
62
4
0
LINE
8
BMD
10
0
20
5.5
11
-0.130554
21
5.5
62
4
0
LINE
8
BMD
10
-0.130554
20
5.5
11
-0.286778
21
6
62
4
0
LINE
8
BMD
10
-0.286778
20
6
11
0
21
6
62
4
0
LINE
8
BMD
10
0
20
6
11
-0.286778
21
6
62
4
0
LINE
8
BMD
10
-0.286778
20
6
11
-0.393003
21
6.5
62
4
0
LINE
8
BMD
10
-0.393003
20
6.5
11
0
21
6.5
62
4
0
LINE
8
BMD
10
0
20
6.5
11
-0.393003
21
6.5
62
4
0
LINE
8
BMD
10
-0.393003
20
6.5
11
-0.449227
21
7
62
4
0
LINE
8
BMD
10
-0.449227
20
7
11
0
21
7
62
4
0
LINE
8
BMD
10
0
20
7
11
-0.449227
21
7
62
4
0
LINE
8
BMD
10
-0.449227
20
7
11
-0.455451
21
7.5
62
4
0
LINE
8
BMD
10
-0.455451
20
7.5
11
0
21
7.5
62
4
0
LINE
8
BMD
10
0
20
7.5
11
-0.455451
21
7.5
62
4
0
LINE
8
BMD
10
-0.455451
20
7.5
11
-0.411675
21
8
62
4
0
LINE
8
BMD
10
-0.411675
20
8
11
0
21
8
62
4
0
LINE
8
BMD
10
0
20
8
11
-2.5207e-017
21
8.41168
62
4
0
LINE
8
BMD
10
-2.5207e-017
20
8.41168
11
1
21
8.33758
62
4
0
LINE
8
BMD
10
1
20
8.33758
11
1
21
8
62
4
0
LINE
8
BMD
10
1
20
8
11
1
21
8.33758
62
4
0
LINE
8
BMD
10
1
20
8.33758
11
2
21
8.26349
62
4
0
LINE
8
BMD
10
2
20
8.26349
11
2
21
8
62
4
0
LINE
8
BMD
10
2
20
8
11
2
21
8.26349
62
4
0
LINE
8
BMD
10
2
20
8.26349
11
3
21
8.1894
62
4
0
LINE
8
BMD
10
3
20
8.1894
11
3
21
8
62
4
0
LINE
8
BMD
10
3
20
8
11
3
21
8.1894
62
4
0
LINE
8
BMD
10
3
20
8.1894
11
4
21
8.1153
62
4
0
LINE
8
BMD
10
4
20
8.1153
11
4
21
8
62
4
0
LINE
8
BMD
10
4
20
8
11
4
21
8.1153
62
4
0
LINE
8
BMD
10
4
20
8.1153
11
5
21
8.04121
62
4
0
LINE
8
BMD
10
5
20
8.04121
11
5
21
8
62
4
0
LINE
8
BMD
10
5
20
8
11
5
21
8.04121
62
4
0
LINE
8
BMD
10
5
20
8.04121
11
6
21
7.96712
62
4
0
LINE
8
BMD
10
6
20
7.96712
11
6
21
8
62
4
0
LINE
8
BMD
10
6
20
8
11
6
21
7.96712
62
4
0
LINE
8
BMD
10
6
20
7.96712
11
7
21
7.89303
62
4
0
LINE
8
BMD
10
7
20
7.89303
11
7
21
8
62
4
0
LINE
8
BMD
10
7
20
8
11
7
21
7.89303
62
4
0
LINE
8
BMD
10
7
20
7.89303
11
8
21
7.81893
62
4
0
LINE
8
BMD
10
8
20
7.81893
11
8
21
8
62
4
0
LINE
8
BMD
10
8
20
8
11
8.18107
21
8
62
4
0
LINE
8
BMD
10
8.18107
20
8
11
8.08729
21
7.5
62
4
0
LINE
8
BMD
10
8.08729
20
7.5
11
8
21
7.5
62
4
0
LINE
8
BMD
10
8
20
7.5
11
8.08729
21
7.5
62
4
0
LINE
8
BMD
10
8.08729
20
7.5
11
7.99351
21
7
62
4
0
LINE
8
BMD
10
7.99351
20
7
11
8
21
7
62
4
0
LINE
8
BMD
10
8
20
7
11
7.99351
21
7
62
4
0
LINE
8
BMD
10
7.99351
20
7
11
7.89974
21
6.5
62
4
0
LINE
8
BMD
10
7.89974
20
6.5
11
8
21
6.5
62
4
0
LINE
8
BMD
10
8
20
6.5
11
7.89974
21
6.5
62
4
0
LINE
8
BMD
10
7.89974
20
6.5
11
7.80596
21
6
62
4
0
LINE
8
BMD
10
7.80596
20
6
11
8
21
6
62
4
0
LINE
8
BMD
10
8
20
6
11
7.80596
21
6
62
4
0
LINE
8
BMD
10
7.80596
20
6
11
7.71219
21
5.5
62
4
0
LINE
8
BMD
10
7.71219
20
5.5
11
8
21
5.5
62
4
0
LINE
8
BMD
10
8
20
5.5
11
7.71219
21
5.5
62
4
0
LINE
8
BMD
10
7.71219
20
5.5
11
7.61841
21
5
62
4
0
LINE
8
BMD
10
7.61841
20
5
11
8
21
5
62
4
0
LINE
8
BMD
10
8
20
5
11
7.61841
21
5
62
4
0
LINE
8
BMD
10
7.61841
20
5
11
7.52464
21
4.5
62
4
0
LINE
8
BMD
10
7.52464
20
4.5
11
8
21
4.5
62
4
0
LINE
8
BMD
10
8
20
4.5
11
7.52464
21
4.5
62
4
0
LINE
8
BMD
10
7.52464
20
4.5
11
7.43086
21
4
62
4
0
LINE
8
BMD
10
7.43086
20
4
11
8
21
4
62
4
0
LINE
8
BMD
10
8
20
4
11
7.92882
21
4
62
4
0
LINE
8
BMD
10
7.92882
20
4
11
7.78399
21
3.5
62
4
0
LINE
8
BMD
10
7.78399
20
3.5
11
8
21
3.5
62
4
0
LINE
8
BMD
10
8
20
3.5
11
7.78399
21
3.5
62
4
0
LINE
8
BMD
10
7.78399
20
3.5
11
7.63917
21
3
62
4
0
LINE
8
BMD
10
7.63917
20
3
11
8
21
3
62
4
0
LINE
8
BMD
10
8
20
3
11
7.63917
21
3
62
4
0
LINE
8
BMD
10
7.63917
20
3
11
7.49434
21
2.5
62
4
0
LINE
8
BMD
10
7.49434
20
2.5
11
8
21
2.5
62
4
0
LINE
8
BMD
10
8
20
2.5
11
7.49434
21
2.5
62
4
0
LINE
8
BMD
10
7.49434
20
2.5
11
7.34951
21
2
62
4
0
LINE
8
BMD
10
7.34951
20
2
11
8
21
2
62
4
0
LINE
8
BMD
10
8
20
2
11
7.34951
21
2
62
4
0
LINE
8
BMD
10
7.34951
20
2
11
7.20468
21
1.5
62
4
0
LINE
8
BMD
10
7.20468
20
1.5
11
8
21
1.5
62
4
0
LINE
8
BMD
10
8
20
1.5
11
7.20468
21
1.5
62
4
0
LINE
8
BMD
10
7.20468
20
1.5
11
7.05985
21
1
62
4
0
LINE
8
BMD
10
7.05985
20
1
11
8
21
1
62
4
0
LINE
8
BMD
10
8
20
1
11
7.05985
21
1
62
4
0
LINE
8
BMD
10
7.05985
20
1
11
6.91502
21
0.5
62
4
0
LINE
8
BMD
10
6.91502
20
0.5
11
8
21
0.5
62
4
0
LINE
8
BMD
10
8
20
0.5
11
6.91502
21
0.5
62
4
0
LINE
8
BMD
10
6.91502
20
0.5
11
6.7702
21
0
62
4
0
LINE
8
BMD
10
6.7702
20
0
11
8
21
0
62
4
0
LINE
8
BMD
10
0
20
4
11
-6.56321e-017
21
5.07189
62
4
0
LINE
8
BMD
10
-6.56321e-017
20
5.07189
11
1
21
4.87566
62
4
0
LINE
8
BMD
10
1
20
4.87566
11
1
21
4
62
4
0
LINE
8
BMD
10
1
20
4
11
1
21
4.87566
62
4
0
LINE
8
BMD
10
1
20
4.87566
11
2
21
4.67943
62
4
0
LINE
8
BMD
10
2
20
4.67943
11
2
21
4
62
4
0
LINE
8
BMD
10
2
20
4
11
2
21
4.67943
62
4
0
LINE
8
BMD
10
2
20
4.67943
11
3
21
4.48319
62
4
0
LINE
8
BMD
10
3
20
4.48319
11
3
21
4
62
4
0
LINE
8
BMD
10
3
20
4
11
3
21
4.48319
62
4
0
LINE
8
BMD
10
3
20
4.48319
11
4
21
4.28696
62
4
0
LINE
8
BMD
10
4
20
4.28696
11
4
21
4
62
4
0
LINE
8
BMD
10
4
20
4
11
4
21
4.28696
62
4
0
LINE
8
BMD
10
4
20
4.28696
11
5
21
4.09073
62
4
0
LINE
8
BMD
10
5
20
4.09073
11
5
21
4
62
4
0
LINE
8
BMD
10
5
20
4
11
5
21
4.09073
62
4
0
LINE
8
BMD
10
5
20
4.09073
11
6
21
3.8945
62
4
0
LINE
8
BMD
10
6
20
3.8945
11
6
21
4
62
4
0
LINE
8
BMD
10
6
20
4
11
6
21
3.8945
62
4
0
LINE
8
BMD
10
6
20
3.8945
11
7
21
3.69827
62
4
0
LINE
8
BMD
10
7
20
3.69827
11
7
21
4
62
4
0
LINE
8
BMD
10
7
20
4
11
7
21
3.69827
62
4
0
LINE
8
BMD
10
7
20
3.69827
11
8
21
3.50204
62
4
0
LINE
8
BMD
10
8
20
3.50204
11
8
21
4
62
4
0
LINE
8
Undeflected
10
0
20
0
11
0
21
0.5
62
0
0
LINE
8
Deflected
10
0
20
0
11
0.00398651
21
0.513516
62
1
0
LINE
8
Undeflected
10
0
20
0.5
11
0
21
1
62
0
0
LINE
8
Deflected
10
0.00398651
20
0.513516
11
0.0148749
21
1.02703
62
1
0
LINE
8
Undeflected
10
0
20
1
11
0
21
1.5
62
0
0
LINE
8
Deflected
10
0.0148749
20
1.02703
11
0.0311523
21
1.54055
62
1
0
LINE
8
Undeflected
10
0
20
1.5
11
0
21
2
62
0
0
LINE
8
Deflected
10
0.0311523
20
1.54055
11
0.0514308
21
2.05406
62
1
0
LINE
8
Undeflected
10
0
20
2
11
0
21
2.5
62
0
0
LINE
8
Deflected
10
0.0514308
20
2.05406
11
0.0744474
21
2.56758
62
1
0
LINE
8
Undeflected
10
0
20
2.5
11
0
21
3
62
0
0
LINE
8
Deflected
10
0.0744474
20
2.56758
11
0.0990642
21
3.0811
62
1
0
LINE
8
Undeflected
10
0
20
3
11
0
21
3.5
62
0
0
LINE
8
Deflected
10
0.0990642
20
3.0811
11
0.124268
21
3.59461
62
1
0
LINE
8
Undeflected
10
0
20
3.5
11
0
21
4
62
0
0
LINE
8
Deflected
10
0.124268
20
3.59461
11
0.149172
21
4.10813
62
1
0
LINE
8
Undeflected
10
0
20
4
11
0
21
4.5
62
0
0
LINE
8
Deflected
10
0.149172
20
4.10813
11
0.17433
21
4.61183
62
1
0
LINE
8
Undeflected
10
0
20
4.5
11
0
21
5
62
0
0
LINE
8
Deflected
10
0.17433
20
4.61183
11
0.200339
21
5.11554
62
1
0
LINE
8
Undeflected
10
0
20
5
11
0
21
5.5
62
0
0
LINE
8
Deflected
10
0.200339
20
5.11554
11
0.226558
21
5.61924
62
1
0
LINE
8
Undeflected
10
0
20
5.5
11
0
21
6
62
0
0
LINE
8
Deflected
10
0.226558
20
5.61924
11
0.252471
21
6.12295
62
1
0
LINE
8
Undeflected
10
0
20
6
11
0
21
6.5
62
0
0
LINE
8
Deflected
10
0.252471
20
6.12295
11
0.277688
21
6.62665
62
1
0
LINE
8
Undeflected
10
0
20
6.5
11
0
21
7
62
0
0
LINE
8
Deflected
10
0.277688
20
6.62665
11
0.301944
21
7.13036
62
1
0
LINE
8
Undeflected
10
0
20
7
11
0
21
7.5
62
0
0
LINE
8
Deflected
10
0.301944
20
7.13036
11
0.325097
21
7.63406
62
1
0
LINE
8
Undeflected
10
0
20
7.5
11
0
21
8
62
0
0
LINE
8
Deflected
10
0.325097
20
7.63406
11
0.347133
21
8.13777
62
1
0
LINE
8
Undeflected
10
0
20
8
11
1
21
8
62
0
0
LINE
8
Deflected
10
0.347133
20
8.13777
11
1.32838
21
8.0967
62
1
0
LINE
8
Undeflected
10
1
20
8
11
2
21
8
62
0
0
LINE
8
Deflected
10
1.32838
20
8.0967
11
2.30962
21
8.059
62
1
0
LINE
8
Undeflected
10
2
20
8
11
3
21
8
62
0
0
LINE
8
Deflected
10
2.30962
20
8.059
11
3.29087
21
8.02394
62
1
0
LINE
8
Undeflected
10
3
20
8
11
4
21
8
62
0
0
LINE
8
Deflected
10
3.29087
20
8.02394
11
4.27211
21
7.99078
62
1
0
LINE
8
Undeflected
10
4
20
8
11
5
21
8
62
0
0
LINE
8
Deflected
10
4.27211
20
7.99078
11
5.25336
21
7.95876
62
1
0
LINE
8
Undeflected
10
5
20
8
11
6
21
8
62
0
0
LINE
8
Deflected
10
5.25336
20
7.95876
11
6.2346
21
7.92716
62
1
0
LINE
8
Undeflected
10
6
20
8
11
7
21
8
62
0
0
LINE
8
Deflected
10
6.2346
20
7.92716
11
7.21585
21
7.89523
62
1
0
LINE
8
Undeflected
10
7
20
8
11
8
21
8
62
0
0
LINE
8
Deflected
10
7.21585
20
7.89523
11
8.19709
21
7.86223
62
1
0
LINE
8
Undeflected
10
8
20
8
11
8
21
7.5
62
0
0
LINE
8
Deflected
10
8.19709
20
7.86223
11
8.18001
21
7.36594
62
1
0
LINE
8
Undeflected
10
8
20
7.5
11
8
21
7
62
0
0
LINE
8
Deflected
10
8.18001
20
7.36594
11
8.16272
21
6.86964
62
1
0
LINE
8
Undeflected
10
8
20
7
11
8
21
6.5
62
0
0
LINE
8
Deflected
10
8.16272
20
6.86964
11
8.14544
21
6.37335
62
1
0
LINE
8
Undeflected
10
8
20
6.5
11
8
21
6
62
0
0
LINE
8
Deflected
10
8.14544
20
6.37335
11
8.12841
21
5.87705
62
1
0
LINE
8
Undeflected
10
8
20
6
11
8
21
5.5
62
0
0
LINE
8
Deflected
10
8.12841
20
5.87705
11
8.11186
21
5.38076
62
1
0
LINE
8
Undeflected
10
8
20
5.5
11
8
21
5
62
0
0
LINE
8
Deflected
10
8.11186
20
5.38076
11
8.09604
21
4.88446
62
1
0
LINE
8
Undeflected
10
8
20
5
11
8
21
4.5
62
0
0
LINE
8
Deflected
10
8.09604
20
4.88446
11
8.08117
21
4.38817
62
1
0
LINE
8
Undeflected
10
8
20
4.5
11
8
21
4
62
0
0
LINE
8
Deflected
10
8.08117
20
4.38817
11
8.06749
21
3.89187
62
1
0
LINE
8
Undeflected
10
8
20
4
11
8
21
3.5
62
0
0
LINE
8
Deflected
10
8.06749
20
3.89187
11
8.05463
21
3.40539
62
1
0
LINE
8
Undeflected
10
8
20
3.5
11
8
21
3
62
0
0
LINE
8
Deflected
10
8.05463
20
3.40539
11
8.04231
21
2.9189
62
1
0
LINE
8
Undeflected
10
8
20
3
11
8
21
2.5
62
0
0
LINE
8
Deflected
10
8.04231
20
2.9189
11
8.03089
21
2.43242
62
1
0
LINE
8
Undeflected
10
8
20
2.5
11
8
21
2
62
0
0
LINE
8
Deflected
10
8.03089
20
2.43242
11
8.02073
21
1.94594
62
1
0
LINE
8
Undeflected
10
8
20
2
11
8
21
1.5
62
0
0
LINE
8
Deflected
10
8.02073
20
1.94594
11
8.01221
21
1.45945
62
1
0
LINE
8
Undeflected
10
8
20
1.5
11
8
21
1
62
0
0
LINE
8
Deflected
10
8.01221
20
1.45945
11
8.00567
21
0.972968
62
1
0
LINE
8
Undeflected
10
8
20
1
11
8
21
0.5
62
0
0
LINE
8
Deflected
10
8.00567
20
0.972968
11
8.00148
21
0.486484
62
1
0
LINE
8
Undeflected
10
8
20
0.5
11
8
21
0
62
0
0
LINE
8
Deflected
10
8.00148
20
0.486484
11
8
21
0
62
1
0
LINE
8
Undeflected
10
0
20
4
11
1
21
4
62
0
0
LINE
8
Deflected
10
0.149172
20
4.10813
11
1.13896
21
4.06419
62
1
0
LINE
8
Undeflected
10
1
20
4
11
2
21
4
62
0
0
LINE
8
Deflected
10
1.13896
20
4.06419
11
2.12875
21
4.029
62
1
0
LINE
8
Undeflected
10
2
20
4
11
3
21
4
62
0
0
LINE
8
Deflected
10
2.12875
20
4.029
11
3.11854
21
4.0006
62
1
0
LINE
8
Undeflected
10
3
20
4
11
4
21
4
62
0
0
LINE
8
Deflected
10
3.11854
20
4.0006
11
4.10833
21
3.97704
62
1
0
LINE
8
Undeflected
10
4
20
4
11
5
21
4
62
0
0
LINE
8
Deflected
10
4.10833
20
3.97704
11
5.09812
21
3.95635
62
1
0
LINE
8
Undeflected
10
5
20
4
11
6
21
4
62
0
0
LINE
8
Deflected
10
5.09812
20
3.95635
11
6.08791
21
3.93657
62
1
0
LINE
8
Undeflected
10
6
20
4
11
7
21
4
62
0
0
LINE
8
Deflected
10
6.08791
20
3.93657
11
7.0777
21
3.91573
62
1
0
LINE
8
Undeflected
10
7
20
4
11
8
21
4
62
0
0
LINE
8
Deflected
10
7.0777
20
3.91573
11
8.06749
21
3.89187
62
1
0
CIRCLE
8
Undeflected
10
0
20
0
40
0.0133333
62
0
0
CIRCLE
8
Deflected
10
0
20
0
40
0.0133333
62
1
0
CIRCLE
8
Undeflected
10
0
20
0.5
40
0.0133333
62
0
0
CIRCLE
8
Deflected
10
0.00398651
20
0.513516
40
0.0133333
62
1
0
CIRCLE
8
Undeflected
10
0
20
1
40
0.0133333
62
0
0
CIRCLE
8
Deflected
10
0.0148749
20
1.02703
40
0.0133333
62
1
0
CIRCLE
8
Undeflected
10
0
20
1.5
40
0.0133333
62
0
0
CIRCLE
8
Deflected
10
0.0311523
20
1.54055
40
0.0133333
62
1
0
CIRCLE
8
Undeflected
10
0
20
2
40
0.0133333
62
0
0
CIRCLE
8
Deflected
10
0.0514308
20
2.05406
40
0.0133333
62
1
0
CIRCLE
8
Undeflected
10
0
20
2.5
40
0.0133333
62
0
0
CIRCLE
8
Deflected
10
0.0744474
20
2.56758
40
0.0133333
62
1
0
CIRCLE
8
Undeflected
10
0
20
3
40
0.0133333
62
0
0
CIRCLE
8
Deflected
10
0.0990642
20
3.0811
40
0.0133333
62
1
0
CIRCLE
8
Undeflected
10
0
20
3.5
40
0.0133333
62
0
0
CIRCLE
8
Deflected
10
0.124268
20
3.59461
40
0.0133333
62
1
0
CIRCLE
8
Undeflected
10
0
20
4
40
0.0133333
62
0
0
CIRCLE
8
Deflected
10
0.149172
20
4.10813
40
0.0133333
62
1
0
CIRCLE
8
Undeflected
10
0
20
4.5
40
0.0133333
62
0
0
CIRCLE
8
Deflected
10
0.17433
20
4.61183
40
0.0133333
62
1
0
CIRCLE
8
Undeflected
10
0
20
5
40
0.0133333
62
0
0
CIRCLE
8
Deflected
10
0.200339
20
5.11554
40
0.0133333
62
1
0
CIRCLE
8
Undeflected
10
0
20
5.5
40
0.0133333
62
0
0
CIRCLE
8
Deflected
10
0.226558
20
5.61924
40
0.0133333
62
1
0
CIRCLE
8
Undeflected
10
0
20
6
40
0.0133333
62
0
0
CIRCLE
8
Deflected
10
0.252471
20
6.12295
40
0.0133333
62
1
0
CIRCLE
8
Undeflected
10
0
20
6.5
40
0.0133333
62
0
0
CIRCLE
8
Deflected
10
0.277688
20
6.62665
40
0.0133333
62
1
0
CIRCLE
8
Undeflected
10
0
20
7
40
0.0133333
62
0
0
CIRCLE
8
Deflected
10
0.301944
20
7.13036
40
0.0133333
62
1
0
CIRCLE
8
Undeflected
10
0
20
7.5
40
0.0133333
62
0
0
CIRCLE
8
Deflected
10
0.325097
20
7.63406
40
0.0133333
62
1
0
CIRCLE
8
Undeflected
10
0
20
8
40
0.0133333
62
0
0
CIRCLE
8
Deflected
10
0.347133
20
8.13777
40
0.0133333
62
1
0
CIRCLE
8
Undeflected
10
1
20
8
40
0.0133333
62
0
0
CIRCLE
8
Deflected
10
1.32838
20
8.0967
40
0.0133333
62
1
0
CIRCLE
8
Undeflected
10
2
20
8
40
0.0133333
62
0
0
CIRCLE
8
Deflected
10
2.30962
20
8.059
40
0.0133333
62
1
0
CIRCLE
8
Undeflected
10
3
20
8
40
0.0133333
62
0
0
CIRCLE
8
Deflected
10
3.29087
20
8.02394
40
0.0133333
62
1
0
CIRCLE
8
Undeflected
10
4
20
8
40
0.0133333
62
0
0
CIRCLE
8
Deflected
10
4.27211
20
7.99078
40
0.0133333
62
1
0
CIRCLE
8
Undeflected
10
5
20
8
40
0.0133333
62
0
0
CIRCLE
8
Deflected
10
5.25336
20
7.95876
40
0.0133333
62
1
0
CIRCLE
8
Undeflected
10
6
20
8
40
0.0133333
62
0
0
CIRCLE
8
Deflected
10
6.2346
20
7.92716
40
0.0133333
62
1
0
CIRCLE
8
Undeflected
10
7
20
8
40
0.0133333
62
0
0
CIRCLE
8
Deflected
10
7.21585
20
7.89523
40
0.0133333
62
1
0
CIRCLE
8
Undeflected
10
8
20
8
40
0.0133333
62
0
0
CIRCLE
8
Deflected
10
8.19709
20
7.86223
40
0.0133333
62
1
0
CIRCLE
8
Undeflected
10
8
20
7.5
40
0.0133333
62
0
0
CIRCLE
8
Deflected
10
8.18001
20
7.36594
40
0.0133333
62
1
0
CIRCLE
8
Undeflected
10
8
20
7
40
0.0133333
62
0
0
CIRCLE
8
Deflected
10
8.16272
20
6.86964
40
0.0133333
62
1
0
CIRCLE
8
Undeflected
10
8
20
6.5
40
0.0133333
62
0
0
CIRCLE
8
Deflected
10
8.14544
20
6.37335
40
0.0133333
62
1
0
CIRCLE
8
Undeflected
10
8
20
6
40
0.0133333
62
0
0
CIRCLE
8
Deflected
10
8.12841
20
5.87705
40
0.0133333
62
1
0
CIRCLE
8
Undeflected
10
8
20
5.5
40
0.0133333
62
0
0
CIRCLE
8
Deflected
10
8.11186
20
5.38076
40
0.0133333
62
1
0
CIRCLE
8
Undeflected
10
8
20
5
40
0.0133333
62
0
0
CIRCLE
8
Deflected
10
8.09604
20
4.88446
40
0.0133333
62
1
0
CIRCLE
8
Undeflected
10
8
20
4.5
40
0.0133333
62
0
0
CIRCLE
8
Deflected
10
8.08117
20
4.38817
40
0.0133333
62
1
0
CIRCLE
8
Undeflected
10
8
20
4
40
0.0133333
62
0
0
CIRCLE
8
Deflected
10
8.06749
20
3.89187
40
0.0133333
62
1
0
CIRCLE
8
Undeflected
10
8
20
3.5
40
0.0133333
62
0
0
CIRCLE
8
Deflected
10
8.05463
20
3.40539
40
0.0133333
62
1
0
CIRCLE
8
Undeflected
10
8
20
3
40
0.0133333
62
0
0
CIRCLE
8
Deflected
10
8.04231
20
2.9189
40
0.0133333
62
1
0
CIRCLE
8
Undeflected
10
8
20
2.5
40
0.0133333
62
0
0
CIRCLE
8
Deflected
10
8.03089
20
2.43242
40
0.0133333
62
1
0
CIRCLE
8
Undeflected
10
8
20
2
40
0.0133333
62
0
0
CIRCLE
8
Deflected
10
8.02073
20
1.94594
40
0.0133333
62
1
0
CIRCLE
8
Undeflected
10
8
20
1.5
40
0.0133333
62
0
0
CIRCLE
8
Deflected
10
8.01221
20
1.45945
40
0.0133333
62
1
0
CIRCLE
8
Undeflected
10
8
20
1
40
0.0133333
62
0
0
CIRCLE
8
Deflected
10
8.00567
20
0.972968
40
0.0133333
62
1
0
CIRCLE
8
Undeflected
10
8
20
0.5
40
0.0133333
62
0
0
CIRCLE
8
Deflected
10
8.00148
20
0.486484
40
0.0133333
62
1
0
CIRCLE
8
Undeflected
10
8
20
0
40
0.0133333
62
0
0
CIRCLE
8
Deflected
10
8
20
0
40
0.0133333
62
1
0
CIRCLE
8
Undeflected
10
1
20
4
40
0.0133333
62
0
0
CIRCLE
8
Deflected
10
1.13896
20
4.06419
40
0.0133333
62
1
0
CIRCLE
8
Undeflected
10
2
20
4
40
0.0133333
62
0
0
CIRCLE
8
Deflected
10
2.12875
20
4.029
40
0.0133333
62
1
0
CIRCLE
8
Undeflected
10
3
20
4
40
0.0133333
62
0
0
CIRCLE
8
Deflected
10
3.11854
20
4.0006
40
0.0133333
62
1
0
CIRCLE
8
Undeflected
10
4
20
4
40
0.0133333
62
0
0
CIRCLE
8
Deflected
10
4.10833
20
3.97704
40
0.0133333
62
1
0
CIRCLE
8
Undeflected
10
5
20
4
40
0.0133333
62
0
0
CIRCLE
8
Deflected
10
5.09812
20
3.95635
40
0.0133333
62
1
0
CIRCLE
8
Undeflected
10
6
20
4
40
0.0133333
62
0
0
CIRCLE
8
Deflected
10
6.08791
20
3.93657
40
0.0133333
62
1
0
CIRCLE
8
Undeflected
10
7
20
4
40
0.0133333
62
0
0
CIRCLE
8
Deflected
10
7.0777
20
3.91573
40
0.0133333
62
1
0
TEXT
8
Information
1
0
10
0
20
0.25
40
0.0333333
62
0
0
TEXT
8
Information
1
1
10
0
20
0.75
40
0.0333333
62
0
0
TEXT
8
Information
1
2
10
0
20
1.25
40
0.0333333
62
0
0
TEXT
8
Information
1
3
10
0
20
1.75
40
0.0333333
62
0
0
TEXT
8
Information
1
4
10
0
20
2.25
40
0.0333333
62
0
0
TEXT
8
Information
1
5
10
0
20
2.75
40
0.0333333
62
0
0
TEXT
8
Information
1
6
10
0
20
3.25
40
0.0333333
62
0
0
TEXT
8
Information
1
7
10
0
20
3.75
40
0.0333333
62
0
0
TEXT
8
Information
1
8
10
0
20
4.25
40
0.0333333
62
0
0
TEXT
8
Information
1
9
10
0
20
4.75
40
0.0333333
62
0
0
TEXT
8
Information
1
10
10
0
20
5.25
40
0.0333333
62
0
0
TEXT
8
Information
1
11
10
0
20
5.75
40
0.0333333
62
0
0
TEXT
8
Information
1
12
10
0
20
6.25
40
0.0333333
62
0
0
TEXT
8
Information
1
13
10
0
20
6.75
40
0.0333333
62
0
0
TEXT
8
Information
1
14
10
0
20
7.25
40
0.0333333
62
0
0
TEXT
8
Information
1
15
10
0
20
7.75
40
0.0333333
62
0
0
TEXT
8
Information
1
16
10
0.5
20
8
40
0.0333333
62
0
0
TEXT
8
Information
1
17
10
1.5
20
8
40
0.0333333
62
0
0
TEXT
8
Information
1
18
10
2.5
20
8
40
0.0333333
62
0
0
TEXT
8
Information
1
19
10
3.5
20
8
40
0.0333333
62
0
0
TEXT
8
Information
1
20
10
4.5
20
8
40
0.0333333
62
0
0
TEXT
8
Information
1
21
10
5.5
20
8
40
0.0333333
62
0
0
TEXT
8
Information
1
22
10
6.5
20
8
40
0.0333333
62
0
0
TEXT
8
Information
1
23
10
7.5
20
8
40
0.0333333
62
0
0
TEXT
8
Information
1
24
10
8
20
7.75
40
0.0333333
62
0
0
TEXT
8
Information
1
25
10
8
20
7.25
40
0.0333333
62
0
0
TEXT
8
Information
1
26
10
8
20
6.75
40
0.0333333
62
0
0
TEXT
8
Information
1
27
10
8
20
6.25
40
0.0333333
62
0
0
TEXT
8
Information
1
28
10
8
20
5.75
40
0.0333333
62
0
0
TEXT
8
Information
1
29
10
8
20
5.25
40
0.0333333
62
0
0
TEXT
8
Information
1
30
10
8
20
4.75
40
0.0333333
62
0
0
TEXT
8
Information
1
31
10
8
20
4.25
40
0.0333333
62
0
0
TEXT
8
Information
1
32
10
8
20
3.75
40
0.0333333
62
0
0
TEXT
8
Information
1
33
10
8
20
3.25
40
0.0333333
62
0
0
TEXT
8
Information
1
34
10
8
20
2.75
40
0.0333333
62
0
0
TEXT
8
Information
1
35
10
8
20
2.25
40
0.0333333
62
0
0
TEXT
8
Information
1
36
10
8
20
1.75
40
0.0333333
62
0
0
TEXT
8
Information
1
37
10
8
20
1.25
40
0.0333333
62
0
0
TEXT
8
Information
1
38
10
8
20
0.75
40
0.0333333
62
0
0
TEXT
8
Information
1
39
10
8
20
0.25
40
0.0333333
62
0
0
TEXT
8
Information
1
40
10
0.5
20
4
40
0.0333333
62
0
0
TEXT
8
Information
1
41
10
1.5
20
4
40
0.0333333
62
0
0
TEXT
8
Information
1
42
10
2.5
20
4
40
0.0333333
62
0
0
TEXT
8
Information
1
43
10
3.5
20
4
40
0.0333333
62
0
0
TEXT
8
Information
1
44
10
4.5
20
4
40
0.0333333
62
0
0
TEXT
8
Information
1
45
10
5.5
20
4
40
0.0333333
62
0
0
TEXT
8
Information
1
46
10
6.5
20
4
40
0.0333333
62
0
0
TEXT
8
Information
1
47
10
7.5
20
4
40
0.0333333
62
0
0
TEXT
8
Information
1
0
10
0.0333333
20
0.0333333
40
0.0333333
62
5
0
TEXT
8
Information
1
1
10
0.0333333
20
0.533333
40
0.0333333
62
5
0
TEXT
8
Information
1
2
10
0.0333333
20
1.03333
40
0.0333333
62
5
0
TEXT
8
Information
1
3
10
0.0333333
20
1.53333
40
0.0333333
62
5
0
TEXT
8
Information
1
4
10
0.0333333
20
2.03333
40
0.0333333
62
5
0
TEXT
8
Information
1
5
10
0.0333333
20
2.53333
40
0.0333333
62
5
0
TEXT
8
Information
1
6
10
0.0333333
20
3.03333
40
0.0333333
62
5
0
TEXT
8
Information
1
7
10
0.0333333
20
3.53333
40
0.0333333
62
5
0
TEXT
8
Information
1
8
10
0.0333333
20
4.03333
40
0.0333333
62
5
0
TEXT
8
Information
1
9
10
0.0333333
20
4.53333
40
0.0333333
62
5
0
TEXT
8
Information
1
10
10
0.0333333
20
5.03333
40
0.0333333
62
5
0
TEXT
8
Information
1
11
10
0.0333333
20
5.53333
40
0.0333333
62
5
0
TEXT
8
Information
1
12
10
0.0333333
20
6.03333
40
0.0333333
62
5
0
TEXT
8
Information
1
13
10
0.0333333
20
6.53333
40
0.0333333
62
5
0
TEXT
8
Information
1
14
10
0.0333333
20
7.03333
40
0.0333333
62
5
0
TEXT
8
Information
1
15
10
0.0333333
20
7.53333
40
0.0333333
62
5
0
TEXT
8
Information
1
16
10
0.0333333
20
8.03333
40
0.0333333
62
5
0
TEXT
8
Information
1
17
10
1.03333
20
8.03333
40
0.0333333
62
5
0
TEXT
8
Information
1
18
10
2.03333
20
8.03333
40
0.0333333
62
5
0
TEXT
8
Information
1
19
10
3.03333
20
8.03333
40
0.0333333
62
5
0
TEXT
8
Information
1
20
10
4.03333
20
8.03333
40
0.0333333
62
5
0
TEXT
8
Information
1
21
10
5.03333
20
8.03333
40
0.0333333
62
5
0
TEXT
8
Information
1
22
10
6.03333
20
8.03333
40
0.0333333
62
5
0
TEXT
8
Information
1
23
10
7.03333
20
8.03333
40
0.0333333
62
5
0
TEXT
8
Information
1
24
10
8.03333
20
8.03333
40
0.0333333
62
5
0
TEXT
8
Information
1
25
10
8.03333
20
7.53333
40
0.0333333
62
5
0
TEXT
8
Information
1
26
10
8.03333
20
7.03333
40
0.0333333
62
5
0
TEXT
8
Information
1
27
10
8.03333
20
6.53333
40
0.0333333
62
5
0
TEXT
8
Information
1
28
10
8.03333
20
6.03333
40
0.0333333
62
5
0
TEXT
8
Information
1
29
10
8.03333
20
5.53333
40
0.0333333
62
5
0
TEXT
8
Information
1
30
10
8.03333
20
5.03333
40
0.0333333
62
5
0
TEXT
8
Information
1
31
10
8.03333
20
4.53333
40
0.0333333
62
5
0
TEXT
8
Information
1
32
10
8.03333
20
4.03333
40
0.0333333
62
5
0
TEXT
8
Information
1
33
10
8.03333
20
3.53333
40
0.0333333
62
5
0
TEXT
8
Information
1
34
10
8.03333
20
3.03333
40
0.0333333
62
5
0
TEXT
8
Information
1
35
10
8.03333
20
2.53333
40
0.0333333
62
5
0
TEXT
8
Information
1
36
10
8.03333
20
2.03333
40
0.0333333
62
5
0
TEXT
8
Information
1
37
10
8.03333
20
1.53333
40
0.0333333
62
5
0
TEXT
8
Information
1
38
10
8.03333
20
1.03333
40
0.0333333
62
5
0
TEXT
8
Information
1
39
10
8.03333
20
0.533333
40
0.0333333
62
5
0
TEXT
8
Information
1
40
10
8.03333
20
0.0333333
40
0.0333333
62
5
0
TEXT
8
Information
1
41
10
1.03333
20
4.03333
40
0.0333333
62
5
0
TEXT
8
Information
1
42
10
2.03333
20
4.03333
40
0.0333333
62
5
0
TEXT
8
Information
1
43
10
3.03333
20
4.03333
40
0.0333333
62
5
0
TEXT
8
Information
1
44
10
4.03333
20
4.03333
40
0.0333333
62
5
0
TEXT
8
Information
1
45
10
5.03333
20
4.03333
40
0.0333333
62
5
0
TEXT
8
Information
1
46
10
6.03333
20
4.03333
40
0.0333333
62
5
0
TEXT
8
Information
1
47
10
7.03333
20
4.03333
40
0.0333333
62
5
0
LINE
8
Information
10
0
20
0.5
11
0.1
21
0.5
62
1
0
LINE
8
Information
10
0
20
1
11
0.1
21
1
62
1
0
LINE
8
Information
10
0
20
1.5
11
0.1
21
1.5
62
1
0
LINE
8
Information
10
0
20
2
11
0.1
21
2
62
1
0
LINE
8
Information
10
0
20
2.5
11
0.1
21
2.5
62
1
0
LINE
8
Information
10
0
20
3
11
0.1
21
3
62
1
0
LINE
8
Information
10
0
20
3.5
11
0.1
21
3.5
62
1
0
LINE
8
Information
10
0
20
4
11
0.1
21
4
62
1
0
LINE
8
Information
10
0
20
4.5
11
0.1
21
4.5
62
1
0
LINE
8
Information
10
0
20
5
11
0.1
21
5
62
1
0
LINE
8
Information
10
0
20
5.5
11
0.1
21
5.5
62
1
0
LINE
8
Information
10
0
20
6
11
0.1
21
6
62
1
0
LINE
8
Information
10
0
20
6.5
11
0.1
21
6.5
62
1
0
LINE
8
Information
10
0
20
7
11
0.1
21
7
62
1
0
LINE
8
Information
10
0
20
7.5
11
0.1
21
7.5
62
1
0
LINE
8
Information
10
0
20
8
11
0.1
21
8
62
1
0
ENDSEC
0
EOF
