0
SECTION
2
ENTITIES
0
LINE
8
BMD
10
0
20
0
11
-2.98626
21
0
62
4
0
LINE
8
BMD
10
-2.98626
20
0
11
-2.67087
21
0.5
62
4
0
LINE
8
BMD
10
-2.67087
20
0.5
11
0
21
0.5
62
4
0
LINE
8
BMD
10
0
20
0.5
11
-2.67087
21
0.5
62
4
0
LINE
8
BMD
10
-2.67087
20
0.5
11
-2.35548
21
1
62
4
0
LINE
8
BMD
10
-2.35548
20
1
11
0
21
1
62
4
0
LINE
8
BMD
10
0
20
1
11
-2.35548
21
1
62
4
0
LINE
8
BMD
10
-2.35548
20
1
11
-2.04009
21
1.5
62
4
0
LINE
8
BMD
10
-2.04009
20
1.5
11
0
21
1.5
62
4
0
LINE
8
BMD
10
0
20
1.5
11
-2.04009
21
1.5
62
4
0
LINE
8
BMD
10
-2.04009
20
1.5
11
-1.72471
21
2
62
4
0
LINE
8
BMD
10
-1.72471
20
2
11
0
21
2
62
4
0
LINE
8
BMD
10
0
20
2
11
-1.72471
21
2
62
4
0
LINE
8
BMD
10
-1.72471
20
2
11
-1.40932
21
2.5
62
4
0
LINE
8
BMD
10
-1.40932
20
2.5
11
0
21
2.5
62
4
0
LINE
8
BMD
10
0
20
2.5
11
-1.40932
21
2.5
62
4
0
LINE
8
BMD
10
-1.40932
20
2.5
11
-1.09393
21
3
62
4
0
LINE
8
BMD
10
-1.09393
20
3
11
0
21
3
62
4
0
LINE
8
BMD
10
0
20
3
11
-1.09393
21
3
62
4
0
LINE
8
BMD
10
-1.09393
20
3
11
-0.778547
21
3.5
62
4
0
LINE
8
BMD
10
-0.778547
20
3.5
11
0
21
3.5
62
4
0
LINE
8
BMD
10
0
20
3.5
11
-0.778547
21
3.5
62
4
0
LINE
8
BMD
10
-0.778547
20
3.5
11
-0.46316
21
4
62
4
0
LINE
8
BMD
10
-0.46316
20
4
11
0
21
4
62
4
0
LINE
8
BMD
10
0
20
4
11
-1.80588
21
4
62
4
0
LINE
8
BMD
10
-1.80588
20
4
11
-1.4446
21
4.5
62
4
0
LINE
8
BMD
10
-1.4446
20
4.5
11
0
21
4.5
62
4
0
LINE
8
BMD
10
0
20
4.5
11
-1.4446
21
4.5
62
4
0
LINE
8
BMD
10
-1.4446
20
4.5
11
-1.08333
21
5
62
4
0
LINE
8
BMD
10
-1.08333
20
5
11
0
21
5
62
4
0
LINE
8
BMD
10
0
20
5
11
-1.08333
21
5
62
4
0
LINE
8
BMD
10
-1.08333
20
5
11
-0.722059
21
5.5
62
4
0
LINE
8
BMD
10
-0.722059
20
5.5
11
0
21
5.5
62
4
0
LINE
8
BMD
10
0
20
5.5
11
-0.722059
21
5.5
62
4
0
LINE
8
BMD
10
-0.722059
20
5.5
11
-0.360786
21
6
62
4
0
LINE
8
BMD
10
-0.360786
20
6
11
0
21
6
62
4
0
LINE
8
BMD
10
0
20
6
11
-0.360786
21
6
62
4
0
LINE
8
BMD
10
-0.360786
20
6
11
0.00048634
21
6.5
62
4
0
LINE
8
BMD
10
0.00048634
20
6.5
11
0
21
6.5
62
4
0
LINE
8
BMD
10
0
20
6.5
11
0.00048634
21
6.5
62
4
0
LINE
8
BMD
10
0.00048634
20
6.5
11
0.361759
21
7
62
4
0
LINE
8
BMD
10
0.361759
20
7
11
0
21
7
62
4
0
LINE
8
BMD
10
0
20
7
11
0.361759
21
7
62
4
0
LINE
8
BMD
10
0.361759
20
7
11
0.723031
21
7.5
62
4
0
LINE
8
BMD
10
0.723031
20
7.5
11
0
21
7.5
62
4
0
LINE
8
BMD
10
0
20
7.5
11
0.723031
21
7.5
62
4
0
LINE
8
BMD
10
0.723031
20
7.5
11
1.0843
21
8
62
4
0
LINE
8
BMD
10
1.0843
20
8
11
0
21
8
62
4
0
LINE
8
BMD
10
0
20
8
11
6.63923e-017
21
6.9157
62
4
0
LINE
8
BMD
10
6.63923e-017
20
6.9157
11
1
21
7.08468
62
4
0
LINE
8
BMD
10
1
20
7.08468
11
1
21
8
62
4
0
LINE
8
BMD
10
1
20
8
11
1
21
7.08468
62
4
0
LINE
8
BMD
10
1
20
7.08468
11
2
21
7.25366
62
4
0
LINE
8
BMD
10
2
20
7.25366
11
2
21
8
62
4
0
LINE
8
BMD
10
2
20
8
11
2
21
7.25366
62
4
0
LINE
8
BMD
10
2
20
7.25366
11
3
21
7.42264
62
4
0
LINE
8
BMD
10
3
20
7.42264
11
3
21
8
62
4
0
LINE
8
BMD
10
3
20
8
11
3
21
7.42264
62
4
0
LINE
8
BMD
10
3
20
7.42264
11
4
21
7.59162
62
4
0
LINE
8
BMD
10
4
20
7.59162
11
4
21
8
62
4
0
LINE
8
BMD
10
4
20
8
11
4
21
7.59162
62
4
0
LINE
8
BMD
10
4
20
7.59162
11
5
21
7.7606
62
4
0
LINE
8
BMD
10
5
20
7.7606
11
5
21
8
62
4
0
LINE
8
BMD
10
5
20
8
11
5
21
7.7606
62
4
0
LINE
8
BMD
10
5
20
7.7606
11
6
21
7.92958
62
4
0
LINE
8
BMD
10
6
20
7.92958
11
6
21
8
62
4
0
LINE
8
BMD
10
6
20
8
11
6
21
7.92958
62
4
0
LINE
8
BMD
10
6
20
7.92958
11
7
21
8.09856
62
4
0
LINE
8
BMD
10
7
20
8.09856
11
7
21
8
62
4
0
LINE
8
BMD
10
7
20
8
11
7
21
8.09856
62
4
0
LINE
8
BMD
10
7
20
8.09856
11
8
21
8.26754
62
4
0
LINE
8
BMD
10
8
20
8.26754
11
8
21
8
62
4
0
LINE
8
BMD
10
8
20
8
11
7.73246
21
8
62
4
0
LINE
8
BMD
10
7.73246
20
8
11
7.87119
21
7.5
62
4
0
LINE
8
BMD
10
7.87119
20
7.5
11
8
21
7.5
62
4
0
LINE
8
BMD
10
8
20
7.5
11
7.87119
21
7.5
62
4
0
LINE
8
BMD
10
7.87119
20
7.5
11
8.00991
21
7
62
4
0
LINE
8
BMD
10
8.00991
20
7
11
8
21
7
62
4
0
LINE
8
BMD
10
8
20
7
11
8.00991
21
7
62
4
0
LINE
8
BMD
10
8.00991
20
7
11
8.14864
21
6.5
62
4
0
LINE
8
BMD
10
8.14864
20
6.5
11
8
21
6.5
62
4
0
LINE
8
BMD
10
8
20
6.5
11
8.14864
21
6.5
62
4
0
LINE
8
BMD
10
8.14864
20
6.5
11
8.28737
21
6
62
4
0
LINE
8
BMD
10
8.28737
20
6
11
8
21
6
62
4
0
LINE
8
BMD
10
8
20
6
11
8.28737
21
6
62
4
0
LINE
8
BMD
10
8.28737
20
6
11
8.4261
21
5.5
62
4
0
LINE
8
BMD
10
8.4261
20
5.5
11
8
21
5.5
62
4
0
LINE
8
BMD
10
8
20
5.5
11
8.4261
21
5.5
62
4
0
LINE
8
BMD
10
8.4261
20
5.5
11
8.56482
21
5
62
4
0
LINE
8
BMD
10
8.56482
20
5
11
8
21
5
62
4
0
LINE
8
BMD
10
8
20
5
11
8.56482
21
5
62
4
0
LINE
8
BMD
10
8.56482
20
5
11
8.70355
21
4.5
62
4
0
LINE
8
BMD
10
8.70355
20
4.5
11
8
21
4.5
62
4
0
LINE
8
BMD
10
8
20
4.5
11
8.70355
21
4.5
62
4
0
LINE
8
BMD
10
8.70355
20
4.5
11
8.84228
21
4
62
4
0
LINE
8
BMD
10
8.84228
20
4
11
8
21
4
62
4
0
LINE
8
BMD
10
8
20
4
11
8.24291
21
4
62
4
0
LINE
8
BMD
10
8.24291
20
4
11
8.42752
21
3.5
62
4
0
LINE
8
BMD
10
8.42752
20
3.5
11
8
21
3.5
62
4
0
LINE
8
BMD
10
8
20
3.5
11
8.42752
21
3.5
62
4
0
LINE
8
BMD
10
8.42752
20
3.5
11
8.61214
21
3
62
4
0
LINE
8
BMD
10
8.61214
20
3
11
8
21
3
62
4
0
LINE
8
BMD
10
8
20
3
11
8.61214
21
3
62
4
0
LINE
8
BMD
10
8.61214
20
3
11
8.79675
21
2.5
62
4
0
LINE
8
BMD
10
8.79675
20
2.5
11
8
21
2.5
62
4
0
LINE
8
BMD
10
8
20
2.5
11
8.79675
21
2.5
62
4
0
LINE
8
BMD
10
8.79675
20
2.5
11
8.98136
21
2
62
4
0
LINE
8
BMD
10
8.98136
20
2
11
8
21
2
62
4
0
LINE
8
BMD
10
8
20
2
11
8.98136
21
2
62
4
0
LINE
8
BMD
10
8.98136
20
2
11
9.16597
21
1.5
62
4
0
LINE
8
BMD
10
9.16597
20
1.5
11
8
21
1.5
62
4
0
LINE
8
BMD
10
8
20
1.5
11
9.16597
21
1.5
62
4
0
LINE
8
BMD
10
9.16597
20
1.5
11
9.35059
21
1
62
4
0
LINE
8
BMD
10
9.35059
20
1
11
8
21
1
62
4
0
LINE
8
BMD
10
8
20
1
11
9.35059
21
1
62
4
0
LINE
8
BMD
10
9.35059
20
1
11
9.5352
21
0.5
62
4
0
LINE
8
BMD
10
9.5352
20
0.5
11
8
21
0.5
62
4
0
LINE
8
BMD
10
8
20
0.5
11
9.5352
21
0.5
62
4
0
LINE
8
BMD
10
9.5352
20
0.5
11
9.71981
21
0
62
4
0
LINE
8
BMD
10
9.71981
20
0
11
8
21
0
62
4
0
LINE
8
BMD
10
0
20
4
11
8.2215e-017
21
2.65728
62
4
0
LINE
8
BMD
10
8.2215e-017
20
2.65728
11
1
21
2.90004
62
4
0
LINE
8
BMD
10
1
20
2.90004
11
1
21
4
62
4
0
LINE
8
BMD
10
1
20
4
11
1
21
2.90004
62
4
0
LINE
8
BMD
10
1
20
2.90004
11
2
21
3.14281
62
4
0
LINE
8
BMD
10
2
20
3.14281
11
2
21
4
62
4
0
LINE
8
BMD
10
2
20
4
11
2
21
3.14281
62
4
0
LINE
8
BMD
10
2
20
3.14281
11
3
21
3.38557
62
4
0
LINE
8
BMD
10
3
20
3.38557
11
3
21
4
62
4
0
LINE
8
BMD
10
3
20
4
11
3
21
3.38557
62
4
0
LINE
8
BMD
10
3
20
3.38557
11
4
21
3.62833
62
4
0
LINE
8
BMD
10
4
20
3.62833
11
4
21
4
62
4
0
LINE
8
BMD
10
4
20
4
11
4
21
3.62833
62
4
0
LINE
8
BMD
10
4
20
3.62833
11
5
21
3.87109
62
4
0
LINE
8
BMD
10
5
20
3.87109
11
5
21
4
62
4
0
LINE
8
BMD
10
5
20
4
11
5
21
3.87109
62
4
0
LINE
8
BMD
10
5
20
3.87109
11
6
21
4.11385
62
4
0
LINE
8
BMD
10
6
20
4.11385
11
6
21
4
62
4
0
LINE
8
BMD
10
6
20
4
11
6
21
4.11385
62
4
0
LINE
8
BMD
10
6
20
4.11385
11
7
21
4.35661
62
4
0
LINE
8
BMD
10
7
20
4.35661
11
7
21
4
62
4
0
LINE
8
BMD
10
7
20
4
11
7
21
4.35661
62
4
0
LINE
8
BMD
10
7
20
4.35661
11
8
21
4.59937
62
4
0
LINE
8
BMD
10
8
20
4.59937
11
8
21
4
62
4
0
LINE
8
Undeflected
10
0
20
0
11
0
21
0.5
62
0
0
LINE
8
Deflected
10
0
20
0
11
0.00360141
21
0.520587
62
1
0
LINE
8
Undeflected
10
0
20
0.5
11
0
21
1
62
0
0
LINE
8
Deflected
10
0.00360141
20
0.520587
11
0.01388
21
1.04117
62
1
0
LINE
8
Undeflected
10
0
20
1
11
0
21
1.5
62
0
0
LINE
8
Deflected
10
0.01388
20
1.04117
11
0.0300473
21
1.56176
62
1
0
LINE
8
Undeflected
10
0
20
1.5
11
0
21
2
62
0
0
LINE
8
Deflected
10
0.0300473
20
1.56176
11
0.0513148
21
2.08235
62
1
0
LINE
8
Undeflected
10
0
20
2
11
0
21
2.5
62
0
0
LINE
8
Deflected
10
0.0513148
20
2.08235
11
0.0768941
21
2.60294
62
1
0
LINE
8
Undeflected
10
0
20
2.5
11
0
21
3
62
0
0
LINE
8
Deflected
10
0.0768941
20
2.60294
11
0.105997
21
3.12352
62
1
0
LINE
8
Undeflected
10
0
20
3
11
0
21
3.5
62
0
0
LINE
8
Deflected
10
0.105997
20
3.12352
11
0.137834
21
3.64411
62
1
0
LINE
8
Undeflected
10
0
20
3.5
11
0
21
4
62
0
0
LINE
8
Deflected
10
0.137834
20
3.64411
11
0.171618
21
4.1647
62
1
0
LINE
8
Undeflected
10
0
20
4
11
0
21
4.5
62
0
0
LINE
8
Deflected
10
0.171618
20
4.1647
11
0.208219
21
4.67315
62
1
0
LINE
8
Undeflected
10
0
20
4.5
11
0
21
5
62
0
0
LINE
8
Deflected
10
0.208219
20
4.67315
11
0.248431
21
5.18159
62
1
0
LINE
8
Undeflected
10
0
20
5
11
0
21
5.5
62
0
0
LINE
8
Deflected
10
0.248431
20
5.18159
11
0.291352
21
5.69004
62
1
0
LINE
8
Undeflected
10
0
20
5.5
11
0
21
6
62
0
0
LINE
8
Deflected
10
0.291352
20
5.69004
11
0.336078
21
6.19849
62
1
0
LINE
8
Undeflected
10
0
20
6
11
0
21
6.5
62
0
0
LINE
8
Deflected
10
0.336078
20
6.19849
11
0.381706
21
6.70694
62
1
0
LINE
8
Undeflected
10
0
20
6.5
11
0
21
7
62
0
0
LINE
8
Deflected
10
0.381706
20
6.70694
11
0.427333
21
7.21539
62
1
0
LINE
8
Undeflected
10
0
20
7
11
0
21
7.5
62
0
0
LINE
8
Deflected
10
0.427333
20
7.21539
11
0.472055
21
7.72384
62
1
0
LINE
8
Undeflected
10
0
20
7.5
11
0
21
8
62
0
0
LINE
8
Deflected
10
0.472055
20
7.72384
11
0.51497
21
8.23229
62
1
0
LINE
8
Undeflected
10
0
20
8
11
1
21
8
62
0
0
LINE
8
Deflected
10
0.51497
20
8.23229
11
1.48722
21
8.15401
62
1
0
LINE
8
Undeflected
10
1
20
8
11
2
21
8
62
0
0
LINE
8
Deflected
10
1.48722
20
8.15401
11
2.45948
21
8.08488
62
1
0
LINE
8
Undeflected
10
2
20
8
11
3
21
8
62
0
0
LINE
8
Deflected
10
2.45948
20
8.08488
11
3.43173
21
8.02322
62
1
0
LINE
8
Undeflected
10
3
20
8
11
4
21
8
62
0
0
LINE
8
Deflected
10
3.43173
20
8.02322
11
4.40399
21
7.96733
62
1
0
LINE
8
Undeflected
10
4
20
8
11
5
21
8
62
0
0
LINE
8
Deflected
10
4.40399
20
7.96733
11
5.37624
21
7.91552
62
1
0
LINE
8
Undeflected
10
5
20
8
11
6
21
8
62
0
0
LINE
8
Deflected
10
5.37624
20
7.91552
11
6.3485
21
7.86611
62
1
0
LINE
8
Undeflected
10
6
20
8
11
7
21
8
62
0
0
LINE
8
Deflected
10
6.3485
20
7.86611
11
7.32075
21
7.8174
62
1
0
LINE
8
Undeflected
10
7
20
8
11
8
21
8
62
0
0
LINE
8
Deflected
10
7.32075
20
7.8174
11
8.29301
21
7.76771
62
1
0
LINE
8
Undeflected
10
8
20
8
11
8
21
7.5
62
0
0
LINE
8
Deflected
10
8.29301
20
7.76771
11
8.26735
21
7.27616
62
1
0
LINE
8
Undeflected
10
8
20
7.5
11
8
21
7
62
0
0
LINE
8
Deflected
10
8.26735
20
7.27616
11
8.24138
21
6.78461
62
1
0
LINE
8
Undeflected
10
8
20
7
11
8
21
6.5
62
0
0
LINE
8
Deflected
10
8.24138
20
6.78461
11
8.21543
21
6.29306
62
1
0
LINE
8
Undeflected
10
8
20
6.5
11
8
21
6
62
0
0
LINE
8
Deflected
10
8.21543
20
6.29306
11
8.18986
21
5.80151
62
1
0
LINE
8
Undeflected
10
8
20
6
11
8
21
5.5
62
0
0
LINE
8
Deflected
10
8.18986
20
5.80151
11
8.165
21
5.30996
62
1
0
LINE
8
Undeflected
10
8
20
5.5
11
8
21
5
62
0
0
LINE
8
Deflected
10
8.165
20
5.30996
11
8.1412
21
4.81841
62
1
0
LINE
8
Undeflected
10
8
20
5
11
8
21
4.5
62
0
0
LINE
8
Deflected
10
8.1412
20
4.81841
11
8.11882
21
4.32685
62
1
0
LINE
8
Undeflected
10
8
20
4.5
11
8
21
4
62
0
0
LINE
8
Deflected
10
8.11882
20
4.32685
11
8.0982
21
3.8353
62
1
0
LINE
8
Undeflected
10
8
20
4
11
8
21
3.5
62
0
0
LINE
8
Deflected
10
8.0982
20
3.8353
11
8.07895
21
3.35589
62
1
0
LINE
8
Undeflected
10
8
20
3.5
11
8
21
3
62
0
0
LINE
8
Deflected
10
8.07895
20
3.35589
11
8.06078
21
2.87648
62
1
0
LINE
8
Undeflected
10
8
20
3
11
8
21
2.5
62
0
0
LINE
8
Deflected
10
8.06078
20
2.87648
11
8.04413
21
2.39706
62
1
0
LINE
8
Undeflected
10
8
20
2.5
11
8
21
2
62
0
0
LINE
8
Deflected
10
8.04413
20
2.39706
11
8.02947
21
1.91765
62
1
0
LINE
8
Undeflected
10
8
20
2
11
8
21
1.5
62
0
0
LINE
8
Deflected
10
8.02947
20
1.91765
11
8.01727
21
1.43824
62
1
0
LINE
8
Undeflected
10
8
20
1.5
11
8
21
1
62
0
0
LINE
8
Deflected
10
8.01727
20
1.43824
11
8.00798
21
0.958826
62
1
0
LINE
8
Undeflected
10
8
20
1
11
8
21
0.5
62
0
0
LINE
8
Deflected
10
8.00798
20
0.958826
11
8.00207
21
0.479413
62
1
0
LINE
8
Undeflected
10
8
20
0.5
11
8
21
0
62
0
0
LINE
8
Deflected
10
8.00207
20
0.479413
11
8
21
0
62
1
0
LINE
8
Undeflected
10
0
20
4
11
1
21
4
62
0
0
LINE
8
Deflected
10
0.171618
20
4.1647
11
1.16244
21
4.10202
62
1
0
LINE
8
Undeflected
10
1
20
4
11
2
21
4
62
0
0
LINE
8
Deflected
10
1.16244
20
4.10202
11
2.15326
21
4.05034
62
1
0
LINE
8
Undeflected
10
2
20
4
11
3
21
4
62
0
0
LINE
8
Deflected
10
2.15326
20
4.05034
11
3.14409
21
4.00723
62
1
0
LINE
8
Undeflected
10
3
20
4
11
4
21
4
62
0
0
LINE
8
Deflected
10
3.14409
20
4.00723
11
4.13491
21
3.97027
62
1
0
LINE
8
Undeflected
10
4
20
4
11
5
21
4
62
0
0
LINE
8
Deflected
10
4.13491
20
3.97027
11
5.12573
21
3.93702
62
1
0
LINE
8
Undeflected
10
5
20
4
11
6
21
4
62
0
0
LINE
8
Deflected
10
5.12573
20
3.93702
11
6.11656
21
3.90506
62
1
0
LINE
8
Undeflected
10
6
20
4
11
7
21
4
62
0
0
LINE
8
Deflected
10
6.11656
20
3.90506
11
7.10738
21
3.87197
62
1
0
LINE
8
Undeflected
10
7
20
4
11
8
21
4
62
0
0
LINE
8
Deflected
10
7.10738
20
3.87197
11
8.0982
21
3.8353
62
1
0
CIRCLE
8
Undeflected
10
0
20
0
40
0.0133333
62
0
0
CIRCLE
8
Deflected
10
0
20
0
40
0.0133333
62
1
0
CIRCLE
8
Undeflected
10
0
20
0.5
40
0.0133333
62
0
0
CIRCLE
8
Deflected
10
0.00360141
20
0.520587
40
0.0133333
62
1
0
CIRCLE
8
Undeflected
10
0
20
1
40
0.0133333
62
0
0
CIRCLE
8
Deflected
10
0.01388
20
1.04117
40
0.0133333
62
1
0
CIRCLE
8
Undeflected
10
0
20
1.5
40
0.0133333
62
0
0
CIRCLE
8
Deflected
10
0.0300473
20
1.56176
40
0.0133333
62
1
0
CIRCLE
8
Undeflected
10
0
20
2
40
0.0133333
62
0
0
CIRCLE
8
Deflected
10
0.0513148
20
2.08235
40
0.0133333
62
1
0
CIRCLE
8
Undeflected
10
0
20
2.5
40
0.0133333
62
0
0
CIRCLE
8
Deflected
10
0.0768941
20
2.60294
40
0.0133333
62
1
0
CIRCLE
8
Undeflected
10
0
20
3
40
0.0133333
62
0
0
CIRCLE
8
Deflected
10
0.105997
20
3.12352
40
0.0133333
62
1
0
CIRCLE
8
Undeflected
10
0
20
3.5
40
0.0133333
62
0
0
CIRCLE
8
Deflected
10
0.137834
20
3.64411
40
0.0133333
62
1
0
CIRCLE
8
Undeflected
10
0
20
4
40
0.0133333
62
0
0
CIRCLE
8
Deflected
10
0.171618
20
4.1647
40
0.0133333
62
1
0
CIRCLE
8
Undeflected
10
0
20
4.5
40
0.0133333
62
0
0
CIRCLE
8
Deflected
10
0.208219
20
4.67315
40
0.0133333
62
1
0
CIRCLE
8
Undeflected
10
0
20
5
40
0.0133333
62
0
0
CIRCLE
8
Deflected
10
0.248431
20
5.18159
40
0.0133333
62
1
0
CIRCLE
8
Undeflected
10
0
20
5.5
40
0.0133333
62
0
0
CIRCLE
8
Deflected
10
0.291352
20
5.69004
40
0.0133333
62
1
0
CIRCLE
8
Undeflected
10
0
20
6
40
0.0133333
62
0
0
CIRCLE
8
Deflected
10
0.336078
20
6.19849
40
0.0133333
62
1
0
CIRCLE
8
Undeflected
10
0
20
6.5
40
0.0133333
62
0
0
CIRCLE
8
Deflected
10
0.381706
20
6.70694
40
0.0133333
62
1
0
CIRCLE
8
Undeflected
10
0
20
7
40
0.0133333
62
0
0
CIRCLE
8
Deflected
10
0.427333
20
7.21539
40
0.0133333
62
1
0
CIRCLE
8
Undeflected
10
0
20
7.5
40
0.0133333
62
0
0
CIRCLE
8
Deflected
10
0.472055
20
7.72384
40
0.0133333
62
1
0
CIRCLE
8
Undeflected
10
0
20
8
40
0.0133333
62
0
0
CIRCLE
8
Deflected
10
0.51497
20
8.23229
40
0.0133333
62
1
0
CIRCLE
8
Undeflected
10
1
20
8
40
0.0133333
62
0
0
CIRCLE
8
Deflected
10
1.48722
20
8.15401
40
0.0133333
62
1
0
CIRCLE
8
Undeflected
10
2
20
8
40
0.0133333
62
0
0
CIRCLE
8
Deflected
10
2.45948
20
8.08488
40
0.0133333
62
1
0
CIRCLE
8
Undeflected
10
3
20
8
40
0.0133333
62
0
0
CIRCLE
8
Deflected
10
3.43173
20
8.02322
40
0.0133333
62
1
0
CIRCLE
8
Undeflected
10
4
20
8
40
0.0133333
62
0
0
CIRCLE
8
Deflected
10
4.40399
20
7.96733
40
0.0133333
62
1
0
CIRCLE
8
Undeflected
10
5
20
8
40
0.0133333
62
0
0
CIRCLE
8
Deflected
10
5.37624
20
7.91552
40
0.0133333
62
1
0
CIRCLE
8
Undeflected
10
6
20
8
40
0.0133333
62
0
0
CIRCLE
8
Deflected
10
6.3485
20
7.86611
40
0.0133333
62
1
0
CIRCLE
8
Undeflected
10
7
20
8
40
0.0133333
62
0
0
CIRCLE
8
Deflected
10
7.32075
20
7.8174
40
0.0133333
62
1
0
CIRCLE
8
Undeflected
10
8
20
8
40
0.0133333
62
0
0
CIRCLE
8
Deflected
10
8.29301
20
7.76771
40
0.0133333
62
1
0
CIRCLE
8
Undeflected
10
8
20
7.5
40
0.0133333
62
0
0
CIRCLE
8
Deflected
10
8.26735
20
7.27616
40
0.0133333
62
1
0
CIRCLE
8
Undeflected
10
8
20
7
40
0.0133333
62
0
0
CIRCLE
8
Deflected
10
8.24138
20
6.78461
40
0.0133333
62
1
0
CIRCLE
8
Undeflected
10
8
20
6.5
40
0.0133333
62
0
0
CIRCLE
8
Deflected
10
8.21543
20
6.29306
40
0.0133333
62
1
0
CIRCLE
8
Undeflected
10
8
20
6
40
0.0133333
62
0
0
CIRCLE
8
Deflected
10
8.18986
20
5.80151
40
0.0133333
62
1
0
CIRCLE
8
Undeflected
10
8
20
5.5
40
0.0133333
62
0
0
CIRCLE
8
Deflected
10
8.165
20
5.30996
40
0.0133333
62
1
0
CIRCLE
8
Undeflected
10
8
20
5
40
0.0133333
62
0
0
CIRCLE
8
Deflected
10
8.1412
20
4.81841
40
0.0133333
62
1
0
CIRCLE
8
Undeflected
10
8
20
4.5
40
0.0133333
62
0
0
CIRCLE
8
Deflected
10
8.11882
20
4.32685
40
0.0133333
62
1
0
CIRCLE
8
Undeflected
10
8
20
4
40
0.0133333
62
0
0
CIRCLE
8
Deflected
10
8.0982
20
3.8353
40
0.0133333
62
1
0
CIRCLE
8
Undeflected
10
8
20
3.5
40
0.0133333
62
0
0
CIRCLE
8
Deflected
10
8.07895
20
3.35589
40
0.0133333
62
1
0
CIRCLE
8
Undeflected
10
8
20
3
40
0.0133333
62
0
0
CIRCLE
8
Deflected
10
8.06078
20
2.87648
40
0.0133333
62
1
0
CIRCLE
8
Undeflected
10
8
20
2.5
40
0.0133333
62
0
0
CIRCLE
8
Deflected
10
8.04413
20
2.39706
40
0.0133333
62
1
0
CIRCLE
8
Undeflected
10
8
20
2
40
0.0133333
62
0
0
CIRCLE
8
Deflected
10
8.02947
20
1.91765
40
0.0133333
62
1
0
CIRCLE
8
Undeflected
10
8
20
1.5
40
0.0133333
62
0
0
CIRCLE
8
Deflected
10
8.01727
20
1.43824
40
0.0133333
62
1
0
CIRCLE
8
Undeflected
10
8
20
1
40
0.0133333
62
0
0
CIRCLE
8
Deflected
10
8.00798
20
0.958826
40
0.0133333
62
1
0
CIRCLE
8
Undeflected
10
8
20
0.5
40
0.0133333
62
0
0
CIRCLE
8
Deflected
10
8.00207
20
0.479413
40
0.0133333
62
1
0
CIRCLE
8
Undeflected
10
8
20
0
40
0.0133333
62
0
0
CIRCLE
8
Deflected
10
8
20
0
40
0.0133333
62
1
0
CIRCLE
8
Undeflected
10
1
20
4
40
0.0133333
62
0
0
CIRCLE
8
Deflected
10
1.16244
20
4.10202
40
0.0133333
62
1
0
CIRCLE
8
Undeflected
10
2
20
4
40
0.0133333
62
0
0
CIRCLE
8
Deflected
10
2.15326
20
4.05034
40
0.0133333
62
1
0
CIRCLE
8
Undeflected
10
3
20
4
40
0.0133333
62
0
0
CIRCLE
8
Deflected
10
3.14409
20
4.00723
40
0.0133333
62
1
0
CIRCLE
8
Undeflected
10
4
20
4
40
0.0133333
62
0
0
CIRCLE
8
Deflected
10
4.13491
20
3.97027
40
0.0133333
62
1
0
CIRCLE
8
Undeflected
10
5
20
4
40
0.0133333
62
0
0
CIRCLE
8
Deflected
10
5.12573
20
3.93702
40
0.0133333
62
1
0
CIRCLE
8
Undeflected
10
6
20
4
40
0.0133333
62
0
0
CIRCLE
8
Deflected
10
6.11656
20
3.90506
40
0.0133333
62
1
0
CIRCLE
8
Undeflected
10
7
20
4
40
0.0133333
62
0
0
CIRCLE
8
Deflected
10
7.10738
20
3.87197
40
0.0133333
62
1
0
TEXT
8
Information
1
0
10
0
20
0.25
40
0.0333333
62
0
0
TEXT
8
Information
1
1
10
0
20
0.75
40
0.0333333
62
0
0
TEXT
8
Information
1
2
10
0
20
1.25
40
0.0333333
62
0
0
TEXT
8
Information
1
3
10
0
20
1.75
40
0.0333333
62
0
0
TEXT
8
Information
1
4
10
0
20
2.25
40
0.0333333
62
0
0
TEXT
8
Information
1
5
10
0
20
2.75
40
0.0333333
62
0
0
TEXT
8
Information
1
6
10
0
20
3.25
40
0.0333333
62
0
0
TEXT
8
Information
1
7
10
0
20
3.75
40
0.0333333
62
0
0
TEXT
8
Information
1
8
10
0
20
4.25
40
0.0333333
62
0
0
TEXT
8
Information
1
9
10
0
20
4.75
40
0.0333333
62
0
0
TEXT
8
Information
1
10
10
0
20
5.25
40
0.0333333
62
0
0
TEXT
8
Information
1
11
10
0
20
5.75
40
0.0333333
62
0
0
TEXT
8
Information
1
12
10
0
20
6.25
40
0.0333333
62
0
0
TEXT
8
Information
1
13
10
0
20
6.75
40
0.0333333
62
0
0
TEXT
8
Information
1
14
10
0
20
7.25
40
0.0333333
62
0
0
TEXT
8
Information
1
15
10
0
20
7.75
40
0.0333333
62
0
0
TEXT
8
Information
1
16
10
0.5
20
8
40
0.0333333
62
0
0
TEXT
8
Information
1
17
10
1.5
20
8
40
0.0333333
62
0
0
TEXT
8
Information
1
18
10
2.5
20
8
40
0.0333333
62
0
0
TEXT
8
Information
1
19
10
3.5
20
8
40
0.0333333
62
0
0
TEXT
8
Information
1
20
10
4.5
20
8
40
0.0333333
62
0
0
TEXT
8
Information
1
21
10
5.5
20
8
40
0.0333333
62
0
0
TEXT
8
Information
1
22
10
6.5
20
8
40
0.0333333
62
0
0
TEXT
8
Information
1
23
10
7.5
20
8
40
0.0333333
62
0
0
TEXT
8
Information
1
24
10
8
20
7.75
40
0.0333333
62
0
0
TEXT
8
Information
1
25
10
8
20
7.25
40
0.0333333
62
0
0
TEXT
8
Information
1
26
10
8
20
6.75
40
0.0333333
62
0
0
TEXT
8
Information
1
27
10
8
20
6.25
40
0.0333333
62
0
0
TEXT
8
Information
1
28
10
8
20
5.75
40
0.0333333
62
0
0
TEXT
8
Information
1
29
10
8
20
5.25
40
0.0333333
62
0
0
TEXT
8
Information
1
30
10
8
20
4.75
40
0.0333333
62
0
0
TEXT
8
Information
1
31
10
8
20
4.25
40
0.0333333
62
0
0
TEXT
8
Information
1
32
10
8
20
3.75
40
0.0333333
62
0
0
TEXT
8
Information
1
33
10
8
20
3.25
40
0.0333333
62
0
0
TEXT
8
Information
1
34
10
8
20
2.75
40
0.0333333
62
0
0
TEXT
8
Information
1
35
10
8
20
2.25
40
0.0333333
62
0
0
TEXT
8
Information
1
36
10
8
20
1.75
40
0.0333333
62
0
0
TEXT
8
Information
1
37
10
8
20
1.25
40
0.0333333
62
0
0
TEXT
8
Information
1
38
10
8
20
0.75
40
0.0333333
62
0
0
TEXT
8
Information
1
39
10
8
20
0.25
40
0.0333333
62
0
0
TEXT
8
Information
1
40
10
0.5
20
4
40
0.0333333
62
0
0
TEXT
8
Information
1
41
10
1.5
20
4
40
0.0333333
62
0
0
TEXT
8
Information
1
42
10
2.5
20
4
40
0.0333333
62
0
0
TEXT
8
Information
1
43
10
3.5
20
4
40
0.0333333
62
0
0
TEXT
8
Information
1
44
10
4.5
20
4
40
0.0333333
62
0
0
TEXT
8
Information
1
45
10
5.5
20
4
40
0.0333333
62
0
0
TEXT
8
Information
1
46
10
6.5
20
4
40
0.0333333
62
0
0
TEXT
8
Information
1
47
10
7.5
20
4
40
0.0333333
62
0
0
TEXT
8
Information
1
0
10
0.0333333
20
0.0333333
40
0.0333333
62
5
0
TEXT
8
Information
1
1
10
0.0333333
20
0.533333
40
0.0333333
62
5
0
TEXT
8
Information
1
2
10
0.0333333
20
1.03333
40
0.0333333
62
5
0
TEXT
8
Information
1
3
10
0.0333333
20
1.53333
40
0.0333333
62
5
0
TEXT
8
Information
1
4
10
0.0333333
20
2.03333
40
0.0333333
62
5
0
TEXT
8
Information
1
5
10
0.0333333
20
2.53333
40
0.0333333
62
5
0
TEXT
8
Information
1
6
10
0.0333333
20
3.03333
40
0.0333333
62
5
0
TEXT
8
Information
1
7
10
0.0333333
20
3.53333
40
0.0333333
62
5
0
TEXT
8
Information
1
8
10
0.0333333
20
4.03333
40
0.0333333
62
5
0
TEXT
8
Information
1
9
10
0.0333333
20
4.53333
40
0.0333333
62
5
0
TEXT
8
Information
1
10
10
0.0333333
20
5.03333
40
0.0333333
62
5
0
TEXT
8
Information
1
11
10
0.0333333
20
5.53333
40
0.0333333
62
5
0
TEXT
8
Information
1
12
10
0.0333333
20
6.03333
40
0.0333333
62
5
0
TEXT
8
Information
1
13
10
0.0333333
20
6.53333
40
0.0333333
62
5
0
TEXT
8
Information
1
14
10
0.0333333
20
7.03333
40
0.0333333
62
5
0
TEXT
8
Information
1
15
10
0.0333333
20
7.53333
40
0.0333333
62
5
0
TEXT
8
Information
1
16
10
0.0333333
20
8.03333
40
0.0333333
62
5
0
TEXT
8
Information
1
17
10
1.03333
20
8.03333
40
0.0333333
62
5
0
TEXT
8
Information
1
18
10
2.03333
20
8.03333
40
0.0333333
62
5
0
TEXT
8
Information
1
19
10
3.03333
20
8.03333
40
0.0333333
62
5
0
TEXT
8
Information
1
20
10
4.03333
20
8.03333
40
0.0333333
62
5
0
TEXT
8
Information
1
21
10
5.03333
20
8.03333
40
0.0333333
62
5
0
TEXT
8
Information
1
22
10
6.03333
20
8.03333
40
0.0333333
62
5
0
TEXT
8
Information
1
23
10
7.03333
20
8.03333
40
0.0333333
62
5
0
TEXT
8
Information
1
24
10
8.03333
20
8.03333
40
0.0333333
62
5
0
TEXT
8
Information
1
25
10
8.03333
20
7.53333
40
0.0333333
62
5
0
TEXT
8
Information
1
26
10
8.03333
20
7.03333
40
0.0333333
62
5
0
TEXT
8
Information
1
27
10
8.03333
20
6.53333
40
0.0333333
62
5
0
TEXT
8
Information
1
28
10
8.03333
20
6.03333
40
0.0333333
62
5
0
TEXT
8
Information
1
29
10
8.03333
20
5.53333
40
0.0333333
62
5
0
TEXT
8
Information
1
30
10
8.03333
20
5.03333
40
0.0333333
62
5
0
TEXT
8
Information
1
31
10
8.03333
20
4.53333
40
0.0333333
62
5
0
TEXT
8
Information
1
32
10
8.03333
20
4.03333
40
0.0333333
62
5
0
TEXT
8
Information
1
33
10
8.03333
20
3.53333
40
0.0333333
62
5
0
TEXT
8
Information
1
34
10
8.03333
20
3.03333
40
0.0333333
62
5
0
TEXT
8
Information
1
35
10
8.03333
20
2.53333
40
0.0333333
62
5
0
TEXT
8
Information
1
36
10
8.03333
20
2.03333
40
0.0333333
62
5
0
TEXT
8
Information
1
37
10
8.03333
20
1.53333
40
0.0333333
62
5
0
TEXT
8
Information
1
38
10
8.03333
20
1.03333
40
0.0333333
62
5
0
TEXT
8
Information
1
39
10
8.03333
20
0.533333
40
0.0333333
62
5
0
TEXT
8
Information
1
40
10
8.03333
20
0.0333333
40
0.0333333
62
5
0
TEXT
8
Information
1
41
10
1.03333
20
4.03333
40
0.0333333
62
5
0
TEXT
8
Information
1
42
10
2.03333
20
4.03333
40
0.0333333
62
5
0
TEXT
8
Information
1
43
10
3.03333
20
4.03333
40
0.0333333
62
5
0
TEXT
8
Information
1
44
10
4.03333
20
4.03333
40
0.0333333
62
5
0
TEXT
8
Information
1
45
10
5.03333
20
4.03333
40
0.0333333
62
5
0
TEXT
8
Information
1
46
10
6.03333
20
4.03333
40
0.0333333
62
5
0
TEXT
8
Information
1
47
10
7.03333
20
4.03333
40
0.0333333
62
5
0
LINE
8
Information
10
0
20
8
11
-1
21
8
62
1
0
ENDSEC
0
EOF
