0
SECTION
2
ENTITIES
0
LINE
8
BMD
10
0
20
0
11
-4.2043
21
0
62
4
0
LINE
8
BMD
10
-4.2043
20
0
11
-2.55401
21
3
62
4
0
LINE
8
BMD
10
-2.55401
20
3
11
0
21
3
62
4
0
LINE
8
BMD
10
0
20
3
11
-2.55401
21
3
62
4
0
LINE
8
BMD
10
-2.55401
20
3
11
-1.20372
21
6
62
4
0
LINE
8
BMD
10
-1.20372
20
6
11
0
21
6
62
4
0
LINE
8
BMD
10
0
20
6
11
-1.20372
21
6
62
4
0
LINE
8
BMD
10
-1.20372
20
6
11
-0.153423
21
9
62
4
0
LINE
8
BMD
10
-0.153423
20
9
11
0
21
9
62
4
0
LINE
8
BMD
10
0
20
9
11
-0.153423
21
9
62
4
0
LINE
8
BMD
10
-0.153423
20
9
11
0.846969
21
13
62
4
0
LINE
8
BMD
10
0.846969
20
13
11
0
21
13
62
4
0
LINE
8
BMD
10
0
20
13
11
0.846969
21
13
62
4
0
LINE
8
BMD
10
0.846969
20
13
11
1.29726
21
16
62
4
0
LINE
8
BMD
10
1.29726
20
16
11
0
21
16
62
4
0
LINE
8
BMD
10
0
20
16
11
1.29726
21
16
62
4
0
LINE
8
BMD
10
1.29726
20
16
11
1.44756
21
19
62
4
0
LINE
8
BMD
10
1.44756
20
19
11
0
21
19
62
4
0
LINE
8
BMD
10
0
20
19
11
1.44756
21
19
62
4
0
LINE
8
BMD
10
1.44756
20
19
11
1.29785
21
22
62
4
0
LINE
8
BMD
10
1.29785
20
22
11
0
21
22
62
4
0
LINE
8
BMD
10
0
20
22
11
1.29785
21
22
62
4
0
LINE
8
BMD
10
1.29785
20
22
11
0.848143
21
25
62
4
0
LINE
8
BMD
10
0.848143
20
25
11
0
21
25
62
4
0
LINE
8
BMD
10
8
20
0
11
5.19379
21
0
62
4
0
LINE
8
BMD
10
5.19379
20
0
11
5.87425
21
3
62
4
0
LINE
8
BMD
10
5.87425
20
3
11
8
21
3
62
4
0
LINE
8
BMD
10
8
20
3
11
5.87425
21
3
62
4
0
LINE
8
BMD
10
5.87425
20
3
11
6.5547
21
6
62
4
0
LINE
8
BMD
10
6.5547
20
6
11
8
21
6
62
4
0
LINE
8
BMD
10
8
20
6
11
6.5547
21
6
62
4
0
LINE
8
BMD
10
6.5547
20
6
11
7.23516
21
9
62
4
0
LINE
8
BMD
10
7.23516
20
9
11
8
21
9
62
4
0
LINE
8
BMD
10
8
20
9
11
7.23516
21
9
62
4
0
LINE
8
BMD
10
7.23516
20
9
11
8.14243
21
13
62
4
0
LINE
8
BMD
10
8.14243
20
13
11
8
21
13
62
4
0
LINE
8
BMD
10
8
20
13
11
8.14243
21
13
62
4
0
LINE
8
BMD
10
8.14243
20
13
11
8.82289
21
16
62
4
0
LINE
8
BMD
10
8.82289
20
16
11
8
21
16
62
4
0
LINE
8
BMD
10
8
20
16
11
8.82289
21
16
62
4
0
LINE
8
BMD
10
8.82289
20
16
11
9.50334
21
19
62
4
0
LINE
8
BMD
10
9.50334
20
19
11
8
21
19
62
4
0
LINE
8
BMD
10
8
20
19
11
9.50334
21
19
62
4
0
LINE
8
BMD
10
9.50334
20
19
11
10.1838
21
22
62
4
0
LINE
8
BMD
10
10.1838
20
22
11
8
21
22
62
4
0
LINE
8
BMD
10
8
20
22
11
10.1838
21
22
62
4
0
LINE
8
BMD
10
10.1838
20
22
11
10.8643
21
25
62
4
0
LINE
8
BMD
10
10.8643
20
25
11
8
21
25
62
4
0
LINE
8
BMD
10
13
20
0
11
5.0552
21
0
62
4
0
LINE
8
BMD
10
5.0552
20
0
11
6.59623
21
3
62
4
0
LINE
8
BMD
10
6.59623
20
3
11
13
21
3
62
4
0
LINE
8
BMD
10
13
20
3
11
6.59623
21
3
62
4
0
LINE
8
BMD
10
6.59623
20
3
11
8.13726
21
6
62
4
0
LINE
8
BMD
10
8.13726
20
6
11
13
21
6
62
4
0
LINE
8
BMD
10
13
20
6
11
8.13726
21
6
62
4
0
LINE
8
BMD
10
8.13726
20
6
11
9.6783
21
9
62
4
0
LINE
8
BMD
10
9.6783
20
9
11
13
21
9
62
4
0
LINE
8
BMD
10
13
20
9
11
9.6783
21
9
62
4
0
LINE
8
BMD
10
9.6783
20
9
11
11.733
21
13
62
4
0
LINE
8
BMD
10
11.733
20
13
11
13
21
13
62
4
0
LINE
8
BMD
10
13
20
13
11
11.733
21
13
62
4
0
LINE
8
BMD
10
11.733
20
13
11
13.274
21
16
62
4
0
LINE
8
BMD
10
13.274
20
16
11
13
21
16
62
4
0
LINE
8
BMD
10
13
20
16
11
13.274
21
16
62
4
0
LINE
8
BMD
10
13.274
20
16
11
14.8151
21
19
62
4
0
LINE
8
BMD
10
14.8151
20
19
11
13
21
19
62
4
0
LINE
8
BMD
10
13
20
19
11
14.8151
21
19
62
4
0
LINE
8
BMD
10
14.8151
20
19
11
16.3561
21
22
62
4
0
LINE
8
BMD
10
16.3561
20
22
11
13
21
22
62
4
0
LINE
8
BMD
10
13
20
22
11
16.3561
21
22
62
4
0
LINE
8
BMD
10
16.3561
20
22
11
17.8971
21
25
62
4
0
LINE
8
BMD
10
17.8971
20
25
11
13
21
25
62
4
0
LINE
8
BMD
10
13
20
25
11
11.1618
21
25
62
4
0
LINE
8
BMD
10
11.1618
20
25
11
12.6336
21
28
62
4
0
LINE
8
BMD
10
12.6336
20
28
11
13
21
28
62
4
0
LINE
8
BMD
10
13
20
28
11
12.6336
21
28
62
4
0
LINE
8
BMD
10
12.6336
20
28
11
13.8054
21
31
62
4
0
LINE
8
BMD
10
13.8054
20
31
11
13
21
31
62
4
0
LINE
8
BMD
10
13
20
31
11
13.8054
21
31
62
4
0
LINE
8
BMD
10
13.8054
20
31
11
14.6772
21
34
62
4
0
LINE
8
BMD
10
14.6772
20
34
11
13
21
34
62
4
0
LINE
8
BMD
10
13
20
34
11
14.6772
21
34
62
4
0
LINE
8
BMD
10
14.6772
20
34
11
15.4396
21
38
62
4
0
LINE
8
BMD
10
15.4396
20
38
11
13
21
38
62
4
0
LINE
8
BMD
10
13
20
38
11
15.4396
21
38
62
4
0
LINE
8
BMD
10
15.4396
20
38
11
15.7113
21
41
62
4
0
LINE
8
BMD
10
15.7113
20
41
11
13
21
41
62
4
0
LINE
8
BMD
10
13
20
41
11
15.7113
21
41
62
4
0
LINE
8
BMD
10
15.7113
20
41
11
15.6831
21
44
62
4
0
LINE
8
BMD
10
15.6831
20
44
11
13
21
44
62
4
0
LINE
8
BMD
10
13
20
44
11
15.6831
21
44
62
4
0
LINE
8
BMD
10
15.6831
20
44
11
15.3549
21
47
62
4
0
LINE
8
BMD
10
15.3549
20
47
11
13
21
47
62
4
0
LINE
8
BMD
10
13
20
47
11
15.3549
21
47
62
4
0
LINE
8
BMD
10
15.3549
20
47
11
14.7267
21
50
62
4
0
LINE
8
BMD
10
14.7267
20
50
11
13
21
50
62
4
0
LINE
8
BMD
10
24
20
0
11
21.3398
21
0
62
4
0
LINE
8
BMD
10
21.3398
20
0
11
21.6867
21
3
62
4
0
LINE
8
BMD
10
21.6867
20
3
11
24
21
3
62
4
0
LINE
8
BMD
10
24
20
3
11
21.6867
21
3
62
4
0
LINE
8
BMD
10
21.6867
20
3
11
22.0336
21
6
62
4
0
LINE
8
BMD
10
22.0336
20
6
11
24
21
6
62
4
0
LINE
8
BMD
10
24
20
6
11
22.0336
21
6
62
4
0
LINE
8
BMD
10
22.0336
20
6
11
22.3805
21
9
62
4
0
LINE
8
BMD
10
22.3805
20
9
11
24
21
9
62
4
0
LINE
8
BMD
10
24
20
9
11
22.3805
21
9
62
4
0
LINE
8
BMD
10
22.3805
20
9
11
22.8431
21
13
62
4
0
LINE
8
BMD
10
22.8431
20
13
11
24
21
13
62
4
0
LINE
8
BMD
10
24
20
13
11
22.8431
21
13
62
4
0
LINE
8
BMD
10
22.8431
20
13
11
23.19
21
16
62
4
0
LINE
8
BMD
10
23.19
20
16
11
24
21
16
62
4
0
LINE
8
BMD
10
24
20
16
11
23.19
21
16
62
4
0
LINE
8
BMD
10
23.19
20
16
11
23.5369
21
19
62
4
0
LINE
8
BMD
10
23.5369
20
19
11
24
21
19
62
4
0
LINE
8
BMD
10
24
20
19
11
23.5369
21
19
62
4
0
LINE
8
BMD
10
23.5369
20
19
11
23.8838
21
22
62
4
0
LINE
8
BMD
10
23.8838
20
22
11
24
21
22
62
4
0
LINE
8
BMD
10
24
20
22
11
23.8838
21
22
62
4
0
LINE
8
BMD
10
23.8838
20
22
11
24.2307
21
25
62
4
0
LINE
8
BMD
10
24.2307
20
25
11
24
21
25
62
4
0
LINE
8
BMD
10
24
20
25
11
19.7916
21
25
62
4
0
LINE
8
BMD
10
19.7916
20
25
11
20.7198
21
28
62
4
0
LINE
8
BMD
10
20.7198
20
28
11
24
21
28
62
4
0
LINE
8
BMD
10
24
20
28
11
20.7198
21
28
62
4
0
LINE
8
BMD
10
20.7198
20
28
11
21.648
21
31
62
4
0
LINE
8
BMD
10
21.648
20
31
11
24
21
31
62
4
0
LINE
8
BMD
10
24
20
31
11
21.648
21
31
62
4
0
LINE
8
BMD
10
21.648
20
31
11
22.5762
21
34
62
4
0
LINE
8
BMD
10
22.5762
20
34
11
24
21
34
62
4
0
LINE
8
BMD
10
24
20
34
11
22.5762
21
34
62
4
0
LINE
8
BMD
10
22.5762
20
34
11
23.8138
21
38
62
4
0
LINE
8
BMD
10
23.8138
20
38
11
24
21
38
62
4
0
LINE
8
BMD
10
24
20
38
11
23.8138
21
38
62
4
0
LINE
8
BMD
10
23.8138
20
38
11
24.7421
21
41
62
4
0
LINE
8
BMD
10
24.7421
20
41
11
24
21
41
62
4
0
LINE
8
BMD
10
24
20
41
11
24.7421
21
41
62
4
0
LINE
8
BMD
10
24.7421
20
41
11
25.6703
21
44
62
4
0
LINE
8
BMD
10
25.6703
20
44
11
24
21
44
62
4
0
LINE
8
BMD
10
24
20
44
11
25.6703
21
44
62
4
0
LINE
8
BMD
10
25.6703
20
44
11
26.5985
21
47
62
4
0
LINE
8
BMD
10
26.5985
20
47
11
24
21
47
62
4
0
LINE
8
BMD
10
24
20
47
11
26.5985
21
47
62
4
0
LINE
8
BMD
10
26.5985
20
47
11
27.5267
21
50
62
4
0
LINE
8
BMD
10
27.5267
20
50
11
24
21
50
62
4
0
LINE
8
BMD
10
30
20
0
11
28.6245
21
0
62
4
0
LINE
8
BMD
10
28.6245
20
0
11
28.967
21
3
62
4
0
LINE
8
BMD
10
28.967
20
3
11
30
21
3
62
4
0
LINE
8
BMD
10
30
20
3
11
28.967
21
3
62
4
0
LINE
8
BMD
10
28.967
20
3
11
29.3096
21
6
62
4
0
LINE
8
BMD
10
29.3096
20
6
11
30
21
6
62
4
0
LINE
8
BMD
10
30
20
6
11
29.3096
21
6
62
4
0
LINE
8
BMD
10
29.3096
20
6
11
29.6521
21
9
62
4
0
LINE
8
BMD
10
29.6521
20
9
11
30
21
9
62
4
0
LINE
8
BMD
10
30
20
9
11
29.6521
21
9
62
4
0
LINE
8
BMD
10
29.6521
20
9
11
30.1089
21
13
62
4
0
LINE
8
BMD
10
30.1089
20
13
11
30
21
13
62
4
0
LINE
8
BMD
10
30
20
13
11
30.1089
21
13
62
4
0
LINE
8
BMD
10
30.1089
20
13
11
30.4514
21
16
62
4
0
LINE
8
BMD
10
30.4514
20
16
11
30
21
16
62
4
0
LINE
8
BMD
10
30
20
16
11
30.4514
21
16
62
4
0
LINE
8
BMD
10
30.4514
20
16
11
30.794
21
19
62
4
0
LINE
8
BMD
10
30.794
20
19
11
30
21
19
62
4
0
LINE
8
BMD
10
30
20
19
11
30.794
21
19
62
4
0
LINE
8
BMD
10
30.794
20
19
11
31.1365
21
22
62
4
0
LINE
8
BMD
10
31.1365
20
22
11
30
21
22
62
4
0
LINE
8
BMD
10
30
20
22
11
31.1365
21
22
62
4
0
LINE
8
BMD
10
31.1365
20
22
11
31.4791
21
25
62
4
0
LINE
8
BMD
10
31.4791
20
25
11
30
21
25
62
4
0
LINE
8
BMD
10
38
20
0
11
36.9129
21
0
62
4
0
LINE
8
BMD
10
36.9129
20
0
11
37.1516
21
3
62
4
0
LINE
8
BMD
10
37.1516
20
3
11
38
21
3
62
4
0
LINE
8
BMD
10
38
20
3
11
37.1516
21
3
62
4
0
LINE
8
BMD
10
37.1516
20
3
11
37.3904
21
6
62
4
0
LINE
8
BMD
10
37.3904
20
6
11
38
21
6
62
4
0
LINE
8
BMD
10
38
20
6
11
37.3904
21
6
62
4
0
LINE
8
BMD
10
37.3904
20
6
11
37.6292
21
9
62
4
0
LINE
8
BMD
10
37.6292
20
9
11
38
21
9
62
4
0
LINE
8
BMD
10
38
20
9
11
37.6292
21
9
62
4
0
LINE
8
BMD
10
37.6292
20
9
11
37.9475
21
13
62
4
0
LINE
8
BMD
10
37.9475
20
13
11
38
21
13
62
4
0
LINE
8
BMD
10
38
20
13
11
37.9475
21
13
62
4
0
LINE
8
BMD
10
37.9475
20
13
11
38.1863
21
16
62
4
0
LINE
8
BMD
10
38.1863
20
16
11
38
21
16
62
4
0
LINE
8
BMD
10
38
20
16
11
38.1863
21
16
62
4
0
LINE
8
BMD
10
38.1863
20
16
11
38.425
21
19
62
4
0
LINE
8
BMD
10
38.425
20
19
11
38
21
19
62
4
0
LINE
8
BMD
10
38
20
19
11
38.425
21
19
62
4
0
LINE
8
BMD
10
38.425
20
19
11
38.6638
21
22
62
4
0
LINE
8
BMD
10
38.6638
20
22
11
38
21
22
62
4
0
LINE
8
BMD
10
38
20
22
11
38.6638
21
22
62
4
0
LINE
8
BMD
10
38.6638
20
22
11
38.9026
21
25
62
4
0
LINE
8
BMD
10
38.9026
20
25
11
38
21
25
62
4
0
LINE
8
BMD
10
0
20
25
11
5.19321e-017
21
24.1519
62
4
0
LINE
8
BMD
10
5.19321e-017
20
24.1519
11
2
21
24.4211
62
4
0
LINE
8
BMD
10
2
20
24.4211
11
2
21
25
62
4
0
LINE
8
BMD
10
2
20
25
11
2
21
24.4211
62
4
0
LINE
8
BMD
10
2
20
24.4211
11
4
21
24.6903
62
4
0
LINE
8
BMD
10
4
20
24.6903
11
4
21
25
62
4
0
LINE
8
BMD
10
4
20
25
11
4
21
24.6903
62
4
0
LINE
8
BMD
10
4
20
24.6903
11
6
21
24.9595
62
4
0
LINE
8
BMD
10
6
20
24.9595
11
6
21
25
62
4
0
LINE
8
BMD
10
6
20
25
11
6
21
24.9595
62
4
0
LINE
8
BMD
10
6
20
24.9595
11
8
21
25.2287
62
4
0
LINE
8
BMD
10
8
20
25.2287
11
8
21
25
62
4
0
LINE
8
BMD
10
8
20
25
11
8
21
22.3645
62
4
0
LINE
8
BMD
10
8
20
22.3645
11
9
21
24.2387
62
4
0
LINE
8
BMD
10
9
20
24.2387
11
9
21
25
62
4
0
LINE
8
BMD
10
9
20
25
11
9
21
24.2387
62
4
0
LINE
8
BMD
10
9
20
24.2387
11
11
21
27.987
62
4
0
LINE
8
BMD
10
11
20
27.987
11
11
21
25
62
4
0
LINE
8
BMD
10
11
20
25
11
11
21
27.987
62
4
0
LINE
8
BMD
10
11
20
27.987
11
13
21
31.7353
62
4
0
LINE
8
BMD
10
13
20
31.7353
11
13
21
25
62
4
0
LINE
8
BMD
10
13
20
50
11
13
21
48.2733
62
4
0
LINE
8
BMD
10
13
20
48.2733
11
15
21
49.2285
62
4
0
LINE
8
BMD
10
15
20
49.2285
11
15
21
50
62
4
0
LINE
8
BMD
10
15
20
50
11
15
21
49.2285
62
4
0
LINE
8
BMD
10
15
20
49.2285
11
17
21
50.1836
62
4
0
LINE
8
BMD
10
17
20
50.1836
11
17
21
50
62
4
0
LINE
8
BMD
10
17
20
50
11
17
21
50.1836
62
4
0
LINE
8
BMD
10
17
20
50.1836
11
19
21
51.1388
62
4
0
LINE
8
BMD
10
19
20
51.1388
11
19
21
50
62
4
0
LINE
8
BMD
10
19
20
50
11
19
21
51.1388
62
4
0
LINE
8
BMD
10
19
20
51.1388
11
21
21
52.094
62
4
0
LINE
8
BMD
10
21
20
52.094
11
21
21
50
62
4
0
LINE
8
BMD
10
21
20
50
11
21
21
52.094
62
4
0
LINE
8
BMD
10
21
20
52.094
11
23
21
53.0491
62
4
0
LINE
8
BMD
10
23
20
53.0491
11
23
21
50
62
4
0
LINE
8
BMD
10
23
20
50
11
23
21
53.0491
62
4
0
LINE
8
BMD
10
23
20
53.0491
11
24
21
53.5267
62
4
0
LINE
8
BMD
10
24
20
53.5267
11
24
21
50
62
4
0
LINE
8
BMD
10
24
20
25
11
24
21
20.5609
62
4
0
LINE
8
BMD
10
24
20
20.5609
11
26
21
22.5329
62
4
0
LINE
8
BMD
10
26
20
22.5329
11
26
21
25
62
4
0
LINE
8
BMD
10
26
20
25
11
26
21
22.5329
62
4
0
LINE
8
BMD
10
26
20
22.5329
11
28
21
24.5049
62
4
0
LINE
8
BMD
10
28
20
24.5049
11
28
21
25
62
4
0
LINE
8
BMD
10
28
20
25
11
28
21
24.5049
62
4
0
LINE
8
BMD
10
28
20
24.5049
11
30
21
26.4769
62
4
0
LINE
8
BMD
10
30
20
26.4769
11
30
21
25
62
4
0
LINE
8
BMD
10
30
20
25
11
30
21
24.9978
62
4
0
LINE
8
BMD
10
30
20
24.9978
11
32
21
25.224
62
4
0
LINE
8
BMD
10
32
20
25.224
11
32
21
25
62
4
0
LINE
8
BMD
10
32
20
25
11
32
21
25.224
62
4
0
LINE
8
BMD
10
32
20
25.224
11
34
21
25.4502
62
4
0
LINE
8
BMD
10
34
20
25.4502
11
34
21
25
62
4
0
LINE
8
BMD
10
34
20
25
11
34
21
25.4502
62
4
0
LINE
8
BMD
10
34
20
25.4502
11
36
21
25.6764
62
4
0
LINE
8
BMD
10
36
20
25.6764
11
36
21
25
62
4
0
LINE
8
BMD
10
36
20
25
11
36
21
25.6764
62
4
0
LINE
8
BMD
10
36
20
25.6764
11
38
21
25.9026
62
4
0
LINE
8
BMD
10
38
20
25.9026
11
38
21
25
62
4
0
LINE
8
Undeflected
10
0
20
0
11
0
21
3
62
0
0
LINE
8
Deflected
10
0
20
0
11
0.000164439
21
3
62
1
0
LINE
8
Undeflected
10
0
20
3
11
0
21
6
62
0
0
LINE
8
Deflected
10
0.000164439
20
3
11
0.000563239
21
6
62
1
0
LINE
8
Undeflected
10
0
20
6
11
0
21
9
62
0
0
LINE
8
Deflected
10
0.000563239
20
6
11
0.00107487
21
9
62
1
0
LINE
8
Undeflected
10
0
20
9
11
0
21
13
62
0
0
LINE
8
Deflected
10
0.00107487
20
9
11
0.00177286
21
13
62
1
0
LINE
8
Undeflected
10
0
20
13
11
0
21
16
62
0
0
LINE
8
Deflected
10
0.00177286
20
13
11
0.00222067
21
16
62
1
0
LINE
8
Undeflected
10
0
20
16
11
0
21
19
62
0
0
LINE
8
Deflected
10
0.00222067
20
16
11
0.00255623
21
19
62
1
0
LINE
8
Undeflected
10
0
20
19
11
0
21
22
62
0
0
LINE
8
Deflected
10
0.00255623
20
19
11
0.00276601
21
22
62
1
0
LINE
8
Undeflected
10
0
20
22
11
0
21
25
62
0
0
LINE
8
Deflected
10
0.00276601
20
22
11
0.00286348
21
25
62
1
0
LINE
8
Undeflected
10
8
20
0
11
8
21
3
62
0
0
LINE
8
Deflected
10
8
20
0
11
8.00012
21
3
62
1
0
LINE
8
Undeflected
10
8
20
3
11
8
21
6
62
0
0
LINE
8
Deflected
10
8.00012
20
3
11
8.00042
21
6
62
1
0
LINE
8
Undeflected
10
8
20
6
11
8
21
9
62
0
0
LINE
8
Deflected
10
8.00042
20
6
11
8.00086
21
9.00001
62
1
0
LINE
8
Undeflected
10
8
20
9
11
8
21
13
62
0
0
LINE
8
Deflected
10
8.00086
20
9.00001
11
8.00154
21
13
62
1
0
LINE
8
Undeflected
10
8
20
13
11
8
21
16
62
0
0
LINE
8
Deflected
10
8.00154
20
13
11
8.00204
21
16
62
1
0
LINE
8
Undeflected
10
8
20
16
11
8
21
19
62
0
0
LINE
8
Deflected
10
8.00204
20
16
11
8.00247
21
19
62
1
0
LINE
8
Undeflected
10
8
20
19
11
8
21
22
62
0
0
LINE
8
Deflected
10
8.00247
20
19
11
8.00277
21
22
62
1
0
LINE
8
Undeflected
10
8
20
22
11
8
21
25
62
0
0
LINE
8
Deflected
10
8.00277
20
22
11
8.00286
21
25
62
1
0
LINE
8
Undeflected
10
13
20
0
11
13
21
3
62
0
0
LINE
8
Deflected
10
13
20
0
11
13.0001
21
3
62
1
0
LINE
8
Undeflected
10
13
20
3
11
13
21
6
62
0
0
LINE
8
Deflected
10
13.0001
20
3
11
13.0003
21
6
62
1
0
LINE
8
Undeflected
10
13
20
6
11
13
21
9
62
0
0
LINE
8
Deflected
10
13.0003
20
6
11
13.0006
21
9
62
1
0
LINE
8
Undeflected
10
13
20
9
11
13
21
13
62
0
0
LINE
8
Deflected
10
13.0006
20
9
11
13.0012
21
13
62
1
0
LINE
8
Undeflected
10
13
20
13
11
13
21
16
62
0
0
LINE
8
Deflected
10
13.0012
20
13
11
13.0017
21
16
62
1
0
LINE
8
Undeflected
10
13
20
16
11
13
21
19
62
0
0
LINE
8
Deflected
10
13.0017
20
16
11
13.0021
21
19
62
1
0
LINE
8
Undeflected
10
13
20
19
11
13
21
22
62
0
0
LINE
8
Deflected
10
13.0021
20
19
11
13.0025
21
22
62
1
0
LINE
8
Undeflected
10
13
20
22
11
13
21
25
62
0
0
LINE
8
Deflected
10
13.0025
20
22
11
13.0029
21
25
62
1
0
LINE
8
Undeflected
10
13
20
25
11
13
21
28
62
0
0
LINE
8
Deflected
10
13.0029
20
25
11
13.0032
21
28
62
1
0
LINE
8
Undeflected
10
13
20
28
11
13
21
31
62
0
0
LINE
8
Deflected
10
13.0032
20
28
11
13.0035
21
31
62
1
0
LINE
8
Undeflected
10
13
20
31
11
13
21
34
62
0
0
LINE
8
Deflected
10
13.0035
20
31
11
13.0038
21
34
62
1
0
LINE
8
Undeflected
10
13
20
34
11
13
21
38
62
0
0
LINE
8
Deflected
10
13.0038
20
34
11
13.0041
21
38
62
1
0
LINE
8
Undeflected
10
13
20
38
11
13
21
41
62
0
0
LINE
8
Deflected
10
13.0041
20
38
11
13.0043
21
41
62
1
0
LINE
8
Undeflected
10
13
20
41
11
13
21
44
62
0
0
LINE
8
Deflected
10
13.0043
20
41
11
13.0044
21
44
62
1
0
LINE
8
Undeflected
10
13
20
44
11
13
21
47
62
0
0
LINE
8
Deflected
10
13.0044
20
44
11
13.0045
21
47
62
1
0
LINE
8
Undeflected
10
13
20
47
11
13
21
50
62
0
0
LINE
8
Deflected
10
13.0045
20
47
11
13.0045
21
50
62
1
0
LINE
8
Undeflected
10
24
20
0
11
24
21
3
62
0
0
LINE
8
Deflected
10
24
20
0
11
24
21
3
62
1
0
LINE
8
Undeflected
10
24
20
3
11
24
21
6
62
0
0
LINE
8
Deflected
10
24
20
3
11
24.0001
21
6
62
1
0
LINE
8
Undeflected
10
24
20
6
11
24
21
9
62
0
0
LINE
8
Deflected
10
24.0001
20
6
11
24.0002
21
9
62
1
0
LINE
8
Undeflected
10
24
20
9
11
24
21
13
62
0
0
LINE
8
Deflected
10
24.0002
20
9
11
24.0005
21
13
62
1
0
LINE
8
Undeflected
10
24
20
13
11
24
21
16
62
0
0
LINE
8
Deflected
10
24.0005
20
13
11
24.0007
21
16
62
1
0
LINE
8
Undeflected
10
24
20
16
11
24
21
19
62
0
0
LINE
8
Deflected
10
24.0007
20
16
11
24.0009
21
19
62
1
0
LINE
8
Undeflected
10
24
20
19
11
24
21
22
62
0
0
LINE
8
Deflected
10
24.0009
20
19
11
24.0011
21
22
62
1
0
LINE
8
Undeflected
10
24
20
22
11
24
21
25
62
0
0
LINE
8
Deflected
10
24.0011
20
22
11
24.0013
21
25
62
1
0
LINE
8
Undeflected
10
24
20
25
11
24
21
28
62
0
0
LINE
8
Deflected
10
24.0013
20
25
11
24.0016
21
28
62
1
0
LINE
8
Undeflected
10
24
20
28
11
24
21
31
62
0
0
LINE
8
Deflected
10
24.0016
20
28
11
24.0019
21
31
62
1
0
LINE
8
Undeflected
10
24
20
31
11
24
21
34
62
0
0
LINE
8
Deflected
10
24.0019
20
31
11
24.0023
21
34
62
1
0
LINE
8
Undeflected
10
24
20
34
11
24
21
38
62
0
0
LINE
8
Deflected
10
24.0023
20
34
11
24.0029
21
38
62
1
0
LINE
8
Undeflected
10
24
20
38
11
24
21
41
62
0
0
LINE
8
Deflected
10
24.0029
20
38
11
24.0034
21
41
62
1
0
LINE
8
Undeflected
10
24
20
41
11
24
21
44
62
0
0
LINE
8
Deflected
10
24.0034
20
41
11
24.0038
21
44
62
1
0
LINE
8
Undeflected
10
24
20
44
11
24
21
47
62
0
0
LINE
8
Deflected
10
24.0038
20
44
11
24.0042
21
47
62
1
0
LINE
8
Undeflected
10
24
20
47
11
24
21
50
62
0
0
LINE
8
Deflected
10
24.0042
20
47
11
24.0045
21
50
62
1
0
LINE
8
Undeflected
10
30
20
0
11
30
21
3
62
0
0
LINE
8
Deflected
10
30
20
0
11
30.0001
21
3
62
1
0
LINE
8
Undeflected
10
30
20
3
11
30
21
6
62
0
0
LINE
8
Deflected
10
30.0001
20
3
11
30.0002
21
6
62
1
0
LINE
8
Undeflected
10
30
20
6
11
30
21
9
62
0
0
LINE
8
Deflected
10
30.0002
20
6
11
30.0004
21
9
62
1
0
LINE
8
Undeflected
10
30
20
9
11
30
21
13
62
0
0
LINE
8
Deflected
10
30.0004
20
9
11
30.0007
21
13
62
1
0
LINE
8
Undeflected
10
30
20
13
11
30
21
16
62
0
0
LINE
8
Deflected
10
30.0007
20
13
11
30.001
21
16
62
1
0
LINE
8
Undeflected
10
30
20
16
11
30
21
19
62
0
0
LINE
8
Deflected
10
30.001
20
16
11
30.0012
21
19
62
1
0
LINE
8
Undeflected
10
30
20
19
11
30
21
22
62
0
0
LINE
8
Deflected
10
30.0012
20
19
11
30.0013
21
22
62
1
0
LINE
8
Undeflected
10
30
20
22
11
30
21
25
62
0
0
LINE
8
Deflected
10
30.0013
20
22
11
30.0013
21
25
62
1
0
LINE
8
Undeflected
10
38
20
0
11
38
21
3
62
0
0
LINE
8
Deflected
10
38
20
0
11
38
21
3
62
1
0
LINE
8
Undeflected
10
38
20
3
11
38
21
6
62
0
0
LINE
8
Deflected
10
38
20
3
11
38.0002
21
6
62
1
0
LINE
8
Undeflected
10
38
20
6
11
38
21
9
62
0
0
LINE
8
Deflected
10
38.0002
20
6
11
38.0003
21
9
62
1
0
LINE
8
Undeflected
10
38
20
9
11
38
21
13
62
0
0
LINE
8
Deflected
10
38.0003
20
9
11
38.0006
21
13
62
1
0
LINE
8
Undeflected
10
38
20
13
11
38
21
16
62
0
0
LINE
8
Deflected
10
38.0006
20
13
11
38.0008
21
16
62
1
0
LINE
8
Undeflected
10
38
20
16
11
38
21
19
62
0
0
LINE
8
Deflected
10
38.0008
20
16
11
38.0011
21
19
62
1
0
LINE
8
Undeflected
10
38
20
19
11
38
21
22
62
0
0
LINE
8
Deflected
10
38.0011
20
19
11
38.0012
21
22
62
1
0
LINE
8
Undeflected
10
38
20
22
11
38
21
25
62
0
0
LINE
8
Deflected
10
38.0012
20
22
11
38.0013
21
25
62
1
0
LINE
8
Undeflected
10
0
20
25
11
2
21
25
62
0
0
LINE
8
Deflected
10
0.00286348
20
25
11
2.00286
21
25
62
1
0
LINE
8
Undeflected
10
2
20
25
11
4
21
25
62
0
0
LINE
8
Deflected
10
2.00286
20
25
11
4.00286
21
25
62
1
0
LINE
8
Undeflected
10
4
20
25
11
6
21
25
62
0
0
LINE
8
Deflected
10
4.00286
20
25
11
6.00286
21
25
62
1
0
LINE
8
Undeflected
10
6
20
25
11
8
21
25
62
0
0
LINE
8
Deflected
10
6.00286
20
25
11
8.00286
21
25
62
1
0
LINE
8
Undeflected
10
8
20
25
11
9
21
25
62
0
0
LINE
8
Deflected
10
8.00286
20
25
11
9.00286
21
25
62
1
0
LINE
8
Undeflected
10
9
20
25
11
11
21
25
62
0
0
LINE
8
Deflected
10
9.00286
20
25
11
11.0029
21
25.0001
62
1
0
LINE
8
Undeflected
10
11
20
25
11
13
21
25
62
0
0
LINE
8
Deflected
10
11.0029
20
25.0001
11
13.0029
21
25
62
1
0
LINE
8
Undeflected
10
13
20
50
11
15
21
50
62
0
0
LINE
8
Deflected
10
13.0045
20
50
11
15.0045
21
50
62
1
0
LINE
8
Undeflected
10
15
20
50
11
17
21
50
62
0
0
LINE
8
Deflected
10
15.0045
20
50
11
17.0045
21
50.0001
62
1
0
LINE
8
Undeflected
10
17
20
50
11
19
21
50
62
0
0
LINE
8
Deflected
10
17.0045
20
50.0001
11
19.0045
21
50.0001
62
1
0
LINE
8
Undeflected
10
19
20
50
11
21
21
50
62
0
0
LINE
8
Deflected
10
19.0045
20
50.0001
11
21.0045
21
50.0002
62
1
0
LINE
8
Undeflected
10
21
20
50
11
23
21
50
62
0
0
LINE
8
Deflected
10
21.0045
20
50.0002
11
23.0045
21
50.0001
62
1
0
LINE
8
Undeflected
10
23
20
50
11
24
21
50
62
0
0
LINE
8
Deflected
10
23.0045
20
50.0001
11
24.0045
21
50
62
1
0
LINE
8
Undeflected
10
24
20
25
11
26
21
25
62
0
0
LINE
8
Deflected
10
24.0013
20
25
11
26.0013
21
24.9999
62
1
0
LINE
8
Undeflected
10
26
20
25
11
28
21
25
62
0
0
LINE
8
Deflected
10
26.0013
20
24.9999
11
28.0013
21
24.9999
62
1
0
LINE
8
Undeflected
10
28
20
25
11
30
21
25
62
0
0
LINE
8
Deflected
10
28.0013
20
24.9999
11
30.0013
21
25
62
1
0
LINE
8
Undeflected
10
30
20
25
11
32
21
25
62
0
0
LINE
8
Deflected
10
30.0013
20
25
11
32.0013
21
25
62
1
0
LINE
8
Undeflected
10
32
20
25
11
34
21
25
62
0
0
LINE
8
Deflected
10
32.0013
20
25
11
34.0013
21
25
62
1
0
LINE
8
Undeflected
10
34
20
25
11
36
21
25
62
0
0
LINE
8
Deflected
10
34.0013
20
25
11
36.0013
21
25
62
1
0
LINE
8
Undeflected
10
36
20
25
11
38
21
25
62
0
0
LINE
8
Deflected
10
36.0013
20
25
11
38.0013
21
25
62
1
0
CIRCLE
8
Undeflected
10
0
20
0
40
0.0566667
62
0
0
CIRCLE
8
Deflected
10
0
20
0
40
0.0566667
62
1
0
CIRCLE
8
Undeflected
10
0
20
3
40
0.0566667
62
0
0
CIRCLE
8
Deflected
10
0.000164439
20
3
40
0.0566667
62
1
0
CIRCLE
8
Undeflected
10
0
20
6
40
0.0566667
62
0
0
CIRCLE
8
Deflected
10
0.000563239
20
6
40
0.0566667
62
1
0
CIRCLE
8
Undeflected
10
0
20
9
40
0.0566667
62
0
0
CIRCLE
8
Deflected
10
0.00107487
20
9
40
0.0566667
62
1
0
CIRCLE
8
Undeflected
10
0
20
13
40
0.0566667
62
0
0
CIRCLE
8
Deflected
10
0.00177286
20
13
40
0.0566667
62
1
0
CIRCLE
8
Undeflected
10
0
20
16
40
0.0566667
62
0
0
CIRCLE
8
Deflected
10
0.00222067
20
16
40
0.0566667
62
1
0
CIRCLE
8
Undeflected
10
0
20
19
40
0.0566667
62
0
0
CIRCLE
8
Deflected
10
0.00255623
20
19
40
0.0566667
62
1
0
CIRCLE
8
Undeflected
10
0
20
22
40
0.0566667
62
0
0
CIRCLE
8
Deflected
10
0.00276601
20
22
40
0.0566667
62
1
0
CIRCLE
8
Undeflected
10
0
20
25
40
0.0566667
62
0
0
CIRCLE
8
Deflected
10
0.00286348
20
25
40
0.0566667
62
1
0
CIRCLE
8
Undeflected
10
8
20
0
40
0.0566667
62
0
0
CIRCLE
8
Deflected
10
8
20
0
40
0.0566667
62
1
0
CIRCLE
8
Undeflected
10
8
20
3
40
0.0566667
62
0
0
CIRCLE
8
Deflected
10
8.00012
20
3
40
0.0566667
62
1
0
CIRCLE
8
Undeflected
10
8
20
6
40
0.0566667
62
0
0
CIRCLE
8
Deflected
10
8.00042
20
6
40
0.0566667
62
1
0
CIRCLE
8
Undeflected
10
8
20
9
40
0.0566667
62
0
0
CIRCLE
8
Deflected
10
8.00086
20
9.00001
40
0.0566667
62
1
0
CIRCLE
8
Undeflected
10
8
20
13
40
0.0566667
62
0
0
CIRCLE
8
Deflected
10
8.00154
20
13
40
0.0566667
62
1
0
CIRCLE
8
Undeflected
10
8
20
16
40
0.0566667
62
0
0
CIRCLE
8
Deflected
10
8.00204
20
16
40
0.0566667
62
1
0
CIRCLE
8
Undeflected
10
8
20
19
40
0.0566667
62
0
0
CIRCLE
8
Deflected
10
8.00247
20
19
40
0.0566667
62
1
0
CIRCLE
8
Undeflected
10
8
20
22
40
0.0566667
62
0
0
CIRCLE
8
Deflected
10
8.00277
20
22
40
0.0566667
62
1
0
CIRCLE
8
Undeflected
10
8
20
25
40
0.0566667
62
0
0
CIRCLE
8
Deflected
10
8.00286
20
25
40
0.0566667
62
1
0
CIRCLE
8
Undeflected
10
13
20
0
40
0.0566667
62
0
0
CIRCLE
8
Deflected
10
13
20
0
40
0.0566667
62
1
0
CIRCLE
8
Undeflected
10
13
20
3
40
0.0566667
62
0
0
CIRCLE
8
Deflected
10
13.0001
20
3
40
0.0566667
62
1
0
CIRCLE
8
Undeflected
10
13
20
6
40
0.0566667
62
0
0
CIRCLE
8
Deflected
10
13.0003
20
6
40
0.0566667
62
1
0
CIRCLE
8
Undeflected
10
13
20
9
40
0.0566667
62
0
0
CIRCLE
8
Deflected
10
13.0006
20
9
40
0.0566667
62
1
0
CIRCLE
8
Undeflected
10
13
20
13
40
0.0566667
62
0
0
CIRCLE
8
Deflected
10
13.0012
20
13
40
0.0566667
62
1
0
CIRCLE
8
Undeflected
10
13
20
16
40
0.0566667
62
0
0
CIRCLE
8
Deflected
10
13.0017
20
16
40
0.0566667
62
1
0
CIRCLE
8
Undeflected
10
13
20
19
40
0.0566667
62
0
0
CIRCLE
8
Deflected
10
13.0021
20
19
40
0.0566667
62
1
0
CIRCLE
8
Undeflected
10
13
20
22
40
0.0566667
62
0
0
CIRCLE
8
Deflected
10
13.0025
20
22
40
0.0566667
62
1
0
CIRCLE
8
Undeflected
10
13
20
25
40
0.0566667
62
0
0
CIRCLE
8
Deflected
10
13.0029
20
25
40
0.0566667
62
1
0
CIRCLE
8
Undeflected
10
13
20
28
40
0.0566667
62
0
0
CIRCLE
8
Deflected
10
13.0032
20
28
40
0.0566667
62
1
0
CIRCLE
8
Undeflected
10
13
20
31
40
0.0566667
62
0
0
CIRCLE
8
Deflected
10
13.0035
20
31
40
0.0566667
62
1
0
CIRCLE
8
Undeflected
10
13
20
34
40
0.0566667
62
0
0
CIRCLE
8
Deflected
10
13.0038
20
34
40
0.0566667
62
1
0
CIRCLE
8
Undeflected
10
13
20
38
40
0.0566667
62
0
0
CIRCLE
8
Deflected
10
13.0041
20
38
40
0.0566667
62
1
0
CIRCLE
8
Undeflected
10
13
20
41
40
0.0566667
62
0
0
CIRCLE
8
Deflected
10
13.0043
20
41
40
0.0566667
62
1
0
CIRCLE
8
Undeflected
10
13
20
44
40
0.0566667
62
0
0
CIRCLE
8
Deflected
10
13.0044
20
44
40
0.0566667
62
1
0
CIRCLE
8
Undeflected
10
13
20
47
40
0.0566667
62
0
0
CIRCLE
8
Deflected
10
13.0045
20
47
40
0.0566667
62
1
0
CIRCLE
8
Undeflected
10
13
20
50
40
0.0566667
62
0
0
CIRCLE
8
Deflected
10
13.0045
20
50
40
0.0566667
62
1
0
CIRCLE
8
Undeflected
10
24
20
0
40
0.0566667
62
0
0
CIRCLE
8
Deflected
10
24
20
0
40
0.0566667
62
1
0
CIRCLE
8
Undeflected
10
24
20
3
40
0.0566667
62
0
0
CIRCLE
8
Deflected
10
24
20
3
40
0.0566667
62
1
0
CIRCLE
8
Undeflected
10
24
20
6
40
0.0566667
62
0
0
CIRCLE
8
Deflected
10
24.0001
20
6
40
0.0566667
62
1
0
CIRCLE
8
Undeflected
10
24
20
9
40
0.0566667
62
0
0
CIRCLE
8
Deflected
10
24.0002
20
9
40
0.0566667
62
1
0
CIRCLE
8
Undeflected
10
24
20
13
40
0.0566667
62
0
0
CIRCLE
8
Deflected
10
24.0005
20
13
40
0.0566667
62
1
0
CIRCLE
8
Undeflected
10
24
20
16
40
0.0566667
62
0
0
CIRCLE
8
Deflected
10
24.0007
20
16
40
0.0566667
62
1
0
CIRCLE
8
Undeflected
10
24
20
19
40
0.0566667
62
0
0
CIRCLE
8
Deflected
10
24.0009
20
19
40
0.0566667
62
1
0
CIRCLE
8
Undeflected
10
24
20
22
40
0.0566667
62
0
0
CIRCLE
8
Deflected
10
24.0011
20
22
40
0.0566667
62
1
0
CIRCLE
8
Undeflected
10
24
20
25
40
0.0566667
62
0
0
CIRCLE
8
Deflected
10
24.0013
20
25
40
0.0566667
62
1
0
CIRCLE
8
Undeflected
10
24
20
28
40
0.0566667
62
0
0
CIRCLE
8
Deflected
10
24.0016
20
28
40
0.0566667
62
1
0
CIRCLE
8
Undeflected
10
24
20
31
40
0.0566667
62
0
0
CIRCLE
8
Deflected
10
24.0019
20
31
40
0.0566667
62
1
0
CIRCLE
8
Undeflected
10
24
20
34
40
0.0566667
62
0
0
CIRCLE
8
Deflected
10
24.0023
20
34
40
0.0566667
62
1
0
CIRCLE
8
Undeflected
10
24
20
38
40
0.0566667
62
0
0
CIRCLE
8
Deflected
10
24.0029
20
38
40
0.0566667
62
1
0
CIRCLE
8
Undeflected
10
24
20
41
40
0.0566667
62
0
0
CIRCLE
8
Deflected
10
24.0034
20
41
40
0.0566667
62
1
0
CIRCLE
8
Undeflected
10
24
20
44
40
0.0566667
62
0
0
CIRCLE
8
Deflected
10
24.0038
20
44
40
0.0566667
62
1
0
CIRCLE
8
Undeflected
10
24
20
47
40
0.0566667
62
0
0
CIRCLE
8
Deflected
10
24.0042
20
47
40
0.0566667
62
1
0
CIRCLE
8
Undeflected
10
24
20
50
40
0.0566667
62
0
0
CIRCLE
8
Deflected
10
24.0045
20
50
40
0.0566667
62
1
0
CIRCLE
8
Undeflected
10
30
20
0
40
0.0566667
62
0
0
CIRCLE
8
Deflected
10
30
20
0
40
0.0566667
62
1
0
CIRCLE
8
Undeflected
10
30
20
3
40
0.0566667
62
0
0
CIRCLE
8
Deflected
10
30.0001
20
3
40
0.0566667
62
1
0
CIRCLE
8
Undeflected
10
30
20
6
40
0.0566667
62
0
0
CIRCLE
8
Deflected
10
30.0002
20
6
40
0.0566667
62
1
0
CIRCLE
8
Undeflected
10
30
20
9
40
0.0566667
62
0
0
CIRCLE
8
Deflected
10
30.0004
20
9
40
0.0566667
62
1
0
CIRCLE
8
Undeflected
10
30
20
13
40
0.0566667
62
0
0
CIRCLE
8
Deflected
10
30.0007
20
13
40
0.0566667
62
1
0
CIRCLE
8
Undeflected
10
30
20
16
40
0.0566667
62
0
0
CIRCLE
8
Deflected
10
30.001
20
16
40
0.0566667
62
1
0
CIRCLE
8
Undeflected
10
30
20
19
40
0.0566667
62
0
0
CIRCLE
8
Deflected
10
30.0012
20
19
40
0.0566667
62
1
0
CIRCLE
8
Undeflected
10
30
20
22
40
0.0566667
62
0
0
CIRCLE
8
Deflected
10
30.0013
20
22
40
0.0566667
62
1
0
CIRCLE
8
Undeflected
10
30
20
25
40
0.0566667
62
0
0
CIRCLE
8
Deflected
10
30.0013
20
25
40
0.0566667
62
1
0
CIRCLE
8
Undeflected
10
38
20
0
40
0.0566667
62
0
0
CIRCLE
8
Deflected
10
38
20
0
40
0.0566667
62
1
0
CIRCLE
8
Undeflected
10
38
20
3
40
0.0566667
62
0
0
CIRCLE
8
Deflected
10
38
20
3
40
0.0566667
62
1
0
CIRCLE
8
Undeflected
10
38
20
6
40
0.0566667
62
0
0
CIRCLE
8
Deflected
10
38.0002
20
6
40
0.0566667
62
1
0
CIRCLE
8
Undeflected
10
38
20
9
40
0.0566667
62
0
0
CIRCLE
8
Deflected
10
38.0003
20
9
40
0.0566667
62
1
0
CIRCLE
8
Undeflected
10
38
20
13
40
0.0566667
62
0
0
CIRCLE
8
Deflected
10
38.0006
20
13
40
0.0566667
62
1
0
CIRCLE
8
Undeflected
10
38
20
16
40
0.0566667
62
0
0
CIRCLE
8
Deflected
10
38.0008
20
16
40
0.0566667
62
1
0
CIRCLE
8
Undeflected
10
38
20
19
40
0.0566667
62
0
0
CIRCLE
8
Deflected
10
38.0011
20
19
40
0.0566667
62
1
0
CIRCLE
8
Undeflected
10
38
20
22
40
0.0566667
62
0
0
CIRCLE
8
Deflected
10
38.0012
20
22
40
0.0566667
62
1
0
CIRCLE
8
Undeflected
10
38
20
25
40
0.0566667
62
0
0
CIRCLE
8
Deflected
10
38.0013
20
25
40
0.0566667
62
1
0
CIRCLE
8
Undeflected
10
2
20
25
40
0.0566667
62
0
0
CIRCLE
8
Deflected
10
2.00286
20
25
40
0.0566667
62
1
0
CIRCLE
8
Undeflected
10
4
20
25
40
0.0566667
62
0
0
CIRCLE
8
Deflected
10
4.00286
20
25
40
0.0566667
62
1
0
CIRCLE
8
Undeflected
10
6
20
25
40
0.0566667
62
0
0
CIRCLE
8
Deflected
10
6.00286
20
25
40
0.0566667
62
1
0
CIRCLE
8
Undeflected
10
9
20
25
40
0.0566667
62
0
0
CIRCLE
8
Deflected
10
9.00286
20
25
40
0.0566667
62
1
0
CIRCLE
8
Undeflected
10
11
20
25
40
0.0566667
62
0
0
CIRCLE
8
Deflected
10
11.0029
20
25.0001
40
0.0566667
62
1
0
CIRCLE
8
Undeflected
10
15
20
50
40
0.0566667
62
0
0
CIRCLE
8
Deflected
10
15.0045
20
50
40
0.0566667
62
1
0
CIRCLE
8
Undeflected
10
17
20
50
40
0.0566667
62
0
0
CIRCLE
8
Deflected
10
17.0045
20
50.0001
40
0.0566667
62
1
0
CIRCLE
8
Undeflected
10
19
20
50
40
0.0566667
62
0
0
CIRCLE
8
Deflected
10
19.0045
20
50.0001
40
0.0566667
62
1
0
CIRCLE
8
Undeflected
10
21
20
50
40
0.0566667
62
0
0
CIRCLE
8
Deflected
10
21.0045
20
50.0002
40
0.0566667
62
1
0
CIRCLE
8
Undeflected
10
23
20
50
40
0.0566667
62
0
0
CIRCLE
8
Deflected
10
23.0045
20
50.0001
40
0.0566667
62
1
0
CIRCLE
8
Undeflected
10
26
20
25
40
0.0566667
62
0
0
CIRCLE
8
Deflected
10
26.0013
20
24.9999
40
0.0566667
62
1
0
CIRCLE
8
Undeflected
10
28
20
25
40
0.0566667
62
0
0
CIRCLE
8
Deflected
10
28.0013
20
24.9999
40
0.0566667
62
1
0
CIRCLE
8
Undeflected
10
32
20
25
40
0.0566667
62
0
0
CIRCLE
8
Deflected
10
32.0013
20
25
40
0.0566667
62
1
0
CIRCLE
8
Undeflected
10
34
20
25
40
0.0566667
62
0
0
CIRCLE
8
Deflected
10
34.0013
20
25
40
0.0566667
62
1
0
CIRCLE
8
Undeflected
10
36
20
25
40
0.0566667
62
0
0
CIRCLE
8
Deflected
10
36.0013
20
25
40
0.0566667
62
1
0
TEXT
8
Information
1
0
10
0
20
1.5
40
0.141667
62
0
0
TEXT
8
Information
1
1
10
0
20
4.5
40
0.141667
62
0
0
TEXT
8
Information
1
2
10
0
20
7.5
40
0.141667
62
0
0
TEXT
8
Information
1
3
10
0
20
11
40
0.141667
62
0
0
TEXT
8
Information
1
4
10
0
20
14.5
40
0.141667
62
0
0
TEXT
8
Information
1
5
10
0
20
17.5
40
0.141667
62
0
0
TEXT
8
Information
1
6
10
0
20
20.5
40
0.141667
62
0
0
TEXT
8
Information
1
7
10
0
20
23.5
40
0.141667
62
0
0
TEXT
8
Information
1
8
10
8
20
1.5
40
0.141667
62
0
0
TEXT
8
Information
1
9
10
8
20
4.5
40
0.141667
62
0
0
TEXT
8
Information
1
10
10
8
20
7.5
40
0.141667
62
0
0
TEXT
8
Information
1
11
10
8
20
11
40
0.141667
62
0
0
TEXT
8
Information
1
12
10
8
20
14.5
40
0.141667
62
0
0
TEXT
8
Information
1
13
10
8
20
17.5
40
0.141667
62
0
0
TEXT
8
Information
1
14
10
8
20
20.5
40
0.141667
62
0
0
TEXT
8
Information
1
15
10
8
20
23.5
40
0.141667
62
0
0
TEXT
8
Information
1
16
10
13
20
1.5
40
0.141667
62
0
0
TEXT
8
Information
1
17
10
13
20
4.5
40
0.141667
62
0
0
TEXT
8
Information
1
18
10
13
20
7.5
40
0.141667
62
0
0
TEXT
8
Information
1
19
10
13
20
11
40
0.141667
62
0
0
TEXT
8
Information
1
20
10
13
20
14.5
40
0.141667
62
0
0
TEXT
8
Information
1
21
10
13
20
17.5
40
0.141667
62
0
0
TEXT
8
Information
1
22
10
13
20
20.5
40
0.141667
62
0
0
TEXT
8
Information
1
23
10
13
20
23.5
40
0.141667
62
0
0
TEXT
8
Information
1
24
10
13
20
26.5
40
0.141667
62
0
0
TEXT
8
Information
1
25
10
13
20
29.5
40
0.141667
62
0
0
TEXT
8
Information
1
26
10
13
20
32.5
40
0.141667
62
0
0
TEXT
8
Information
1
27
10
13
20
36
40
0.141667
62
0
0
TEXT
8
Information
1
28
10
13
20
39.5
40
0.141667
62
0
0
TEXT
8
Information
1
29
10
13
20
42.5
40
0.141667
62
0
0
TEXT
8
Information
1
30
10
13
20
45.5
40
0.141667
62
0
0
TEXT
8
Information
1
31
10
13
20
48.5
40
0.141667
62
0
0
TEXT
8
Information
1
32
10
24
20
1.5
40
0.141667
62
0
0
TEXT
8
Information
1
33
10
24
20
4.5
40
0.141667
62
0
0
TEXT
8
Information
1
34
10
24
20
7.5
40
0.141667
62
0
0
TEXT
8
Information
1
35
10
24
20
11
40
0.141667
62
0
0
TEXT
8
Information
1
36
10
24
20
14.5
40
0.141667
62
0
0
TEXT
8
Information
1
37
10
24
20
17.5
40
0.141667
62
0
0
TEXT
8
Information
1
38
10
24
20
20.5
40
0.141667
62
0
0
TEXT
8
Information
1
39
10
24
20
23.5
40
0.141667
62
0
0
TEXT
8
Information
1
40
10
24
20
26.5
40
0.141667
62
0
0
TEXT
8
Information
1
41
10
24
20
29.5
40
0.141667
62
0
0
TEXT
8
Information
1
42
10
24
20
32.5
40
0.141667
62
0
0
TEXT
8
Information
1
43
10
24
20
36
40
0.141667
62
0
0
TEXT
8
Information
1
44
10
24
20
39.5
40
0.141667
62
0
0
TEXT
8
Information
1
45
10
24
20
42.5
40
0.141667
62
0
0
TEXT
8
Information
1
46
10
24
20
45.5
40
0.141667
62
0
0
TEXT
8
Information
1
47
10
24
20
48.5
40
0.141667
62
0
0
TEXT
8
Information
1
48
10
30
20
1.5
40
0.141667
62
0
0
TEXT
8
Information
1
49
10
30
20
4.5
40
0.141667
62
0
0
TEXT
8
Information
1
50
10
30
20
7.5
40
0.141667
62
0
0
TEXT
8
Information
1
51
10
30
20
11
40
0.141667
62
0
0
TEXT
8
Information
1
52
10
30
20
14.5
40
0.141667
62
0
0
TEXT
8
Information
1
53
10
30
20
17.5
40
0.141667
62
0
0
TEXT
8
Information
1
54
10
30
20
20.5
40
0.141667
62
0
0
TEXT
8
Information
1
55
10
30
20
23.5
40
0.141667
62
0
0
TEXT
8
Information
1
56
10
38
20
1.5
40
0.141667
62
0
0
TEXT
8
Information
1
57
10
38
20
4.5
40
0.141667
62
0
0
TEXT
8
Information
1
58
10
38
20
7.5
40
0.141667
62
0
0
TEXT
8
Information
1
59
10
38
20
11
40
0.141667
62
0
0
TEXT
8
Information
1
60
10
38
20
14.5
40
0.141667
62
0
0
TEXT
8
Information
1
61
10
38
20
17.5
40
0.141667
62
0
0
TEXT
8
Information
1
62
10
38
20
20.5
40
0.141667
62
0
0
TEXT
8
Information
1
63
10
38
20
23.5
40
0.141667
62
0
0
TEXT
8
Information
1
64
10
1
20
25
40
0.141667
62
0
0
TEXT
8
Information
1
65
10
3
20
25
40
0.141667
62
0
0
TEXT
8
Information
1
66
10
5
20
25
40
0.141667
62
0
0
TEXT
8
Information
1
67
10
7
20
25
40
0.141667
62
0
0
TEXT
8
Information
1
68
10
8.5
20
25
40
0.141667
62
0
0
TEXT
8
Information
1
69
10
10
20
25
40
0.141667
62
0
0
TEXT
8
Information
1
70
10
12
20
25
40
0.141667
62
0
0
TEXT
8
Information
1
71
10
14
20
50
40
0.141667
62
0
0
TEXT
8
Information
1
72
10
16
20
50
40
0.141667
62
0
0
TEXT
8
Information
1
73
10
18
20
50
40
0.141667
62
0
0
TEXT
8
Information
1
74
10
20
20
50
40
0.141667
62
0
0
TEXT
8
Information
1
75
10
22
20
50
40
0.141667
62
0
0
TEXT
8
Information
1
76
10
23.5
20
50
40
0.141667
62
0
0
TEXT
8
Information
1
77
10
25
20
25
40
0.141667
62
0
0
TEXT
8
Information
1
78
10
27
20
25
40
0.141667
62
0
0
TEXT
8
Information
1
79
10
29
20
25
40
0.141667
62
0
0
TEXT
8
Information
1
80
10
31
20
25
40
0.141667
62
0
0
TEXT
8
Information
1
81
10
33
20
25
40
0.141667
62
0
0
TEXT
8
Information
1
82
10
35
20
25
40
0.141667
62
0
0
TEXT
8
Information
1
83
10
37
20
25
40
0.141667
62
0
0
TEXT
8
Information
1
0
10
0.141667
20
0.141667
40
0.141667
62
5
0
TEXT
8
Information
1
1
10
0.141667
20
3.14167
40
0.141667
62
5
0
TEXT
8
Information
1
2
10
0.141667
20
6.14167
40
0.141667
62
5
0
TEXT
8
Information
1
3
10
0.141667
20
9.14167
40
0.141667
62
5
0
TEXT
8
Information
1
4
10
0.141667
20
13.1417
40
0.141667
62
5
0
TEXT
8
Information
1
5
10
0.141667
20
16.1417
40
0.141667
62
5
0
TEXT
8
Information
1
6
10
0.141667
20
19.1417
40
0.141667
62
5
0
TEXT
8
Information
1
7
10
0.141667
20
22.1417
40
0.141667
62
5
0
TEXT
8
Information
1
8
10
0.141667
20
25.1417
40
0.141667
62
5
0
TEXT
8
Information
1
9
10
8.14167
20
0.141667
40
0.141667
62
5
0
TEXT
8
Information
1
10
10
8.14167
20
3.14167
40
0.141667
62
5
0
TEXT
8
Information
1
11
10
8.14167
20
6.14167
40
0.141667
62
5
0
TEXT
8
Information
1
12
10
8.14167
20
9.14167
40
0.141667
62
5
0
TEXT
8
Information
1
13
10
8.14167
20
13.1417
40
0.141667
62
5
0
TEXT
8
Information
1
14
10
8.14167
20
16.1417
40
0.141667
62
5
0
TEXT
8
Information
1
15
10
8.14167
20
19.1417
40
0.141667
62
5
0
TEXT
8
Information
1
16
10
8.14167
20
22.1417
40
0.141667
62
5
0
TEXT
8
Information
1
17
10
8.14167
20
25.1417
40
0.141667
62
5
0
TEXT
8
Information
1
18
10
13.1417
20
0.141667
40
0.141667
62
5
0
TEXT
8
Information
1
19
10
13.1417
20
3.14167
40
0.141667
62
5
0
TEXT
8
Information
1
20
10
13.1417
20
6.14167
40
0.141667
62
5
0
TEXT
8
Information
1
21
10
13.1417
20
9.14167
40
0.141667
62
5
0
TEXT
8
Information
1
22
10
13.1417
20
13.1417
40
0.141667
62
5
0
TEXT
8
Information
1
23
10
13.1417
20
16.1417
40
0.141667
62
5
0
TEXT
8
Information
1
24
10
13.1417
20
19.1417
40
0.141667
62
5
0
TEXT
8
Information
1
25
10
13.1417
20
22.1417
40
0.141667
62
5
0
TEXT
8
Information
1
26
10
13.1417
20
25.1417
40
0.141667
62
5
0
TEXT
8
Information
1
27
10
13.1417
20
28.1417
40
0.141667
62
5
0
TEXT
8
Information
1
28
10
13.1417
20
31.1417
40
0.141667
62
5
0
TEXT
8
Information
1
29
10
13.1417
20
34.1417
40
0.141667
62
5
0
TEXT
8
Information
1
30
10
13.1417
20
38.1417
40
0.141667
62
5
0
TEXT
8
Information
1
31
10
13.1417
20
41.1417
40
0.141667
62
5
0
TEXT
8
Information
1
32
10
13.1417
20
44.1417
40
0.141667
62
5
0
TEXT
8
Information
1
33
10
13.1417
20
47.1417
40
0.141667
62
5
0
TEXT
8
Information
1
34
10
13.1417
20
50.1417
40
0.141667
62
5
0
TEXT
8
Information
1
35
10
24.1417
20
0.141667
40
0.141667
62
5
0
TEXT
8
Information
1
36
10
24.1417
20
3.14167
40
0.141667
62
5
0
TEXT
8
Information
1
37
10
24.1417
20
6.14167
40
0.141667
62
5
0
TEXT
8
Information
1
38
10
24.1417
20
9.14167
40
0.141667
62
5
0
TEXT
8
Information
1
39
10
24.1417
20
13.1417
40
0.141667
62
5
0
TEXT
8
Information
1
40
10
24.1417
20
16.1417
40
0.141667
62
5
0
TEXT
8
Information
1
41
10
24.1417
20
19.1417
40
0.141667
62
5
0
TEXT
8
Information
1
42
10
24.1417
20
22.1417
40
0.141667
62
5
0
TEXT
8
Information
1
43
10
24.1417
20
25.1417
40
0.141667
62
5
0
TEXT
8
Information
1
44
10
24.1417
20
28.1417
40
0.141667
62
5
0
TEXT
8
Information
1
45
10
24.1417
20
31.1417
40
0.141667
62
5
0
TEXT
8
Information
1
46
10
24.1417
20
34.1417
40
0.141667
62
5
0
TEXT
8
Information
1
47
10
24.1417
20
38.1417
40
0.141667
62
5
0
TEXT
8
Information
1
48
10
24.1417
20
41.1417
40
0.141667
62
5
0
TEXT
8
Information
1
49
10
24.1417
20
44.1417
40
0.141667
62
5
0
TEXT
8
Information
1
50
10
24.1417
20
47.1417
40
0.141667
62
5
0
TEXT
8
Information
1
51
10
24.1417
20
50.1417
40
0.141667
62
5
0
TEXT
8
Information
1
52
10
30.1417
20
0.141667
40
0.141667
62
5
0
TEXT
8
Information
1
53
10
30.1417
20
3.14167
40
0.141667
62
5
0
TEXT
8
Information
1
54
10
30.1417
20
6.14167
40
0.141667
62
5
0
TEXT
8
Information
1
55
10
30.1417
20
9.14167
40
0.141667
62
5
0
TEXT
8
Information
1
56
10
30.1417
20
13.1417
40
0.141667
62
5
0
TEXT
8
Information
1
57
10
30.1417
20
16.1417
40
0.141667
62
5
0
TEXT
8
Information
1
58
10
30.1417
20
19.1417
40
0.141667
62
5
0
TEXT
8
Information
1
59
10
30.1417
20
22.1417
40
0.141667
62
5
0
TEXT
8
Information
1
60
10
30.1417
20
25.1417
40
0.141667
62
5
0
TEXT
8
Information
1
61
10
38.1417
20
0.141667
40
0.141667
62
5
0
TEXT
8
Information
1
62
10
38.1417
20
3.14167
40
0.141667
62
5
0
TEXT
8
Information
1
63
10
38.1417
20
6.14167
40
0.141667
62
5
0
TEXT
8
Information
1
64
10
38.1417
20
9.14167
40
0.141667
62
5
0
TEXT
8
Information
1
65
10
38.1417
20
13.1417
40
0.141667
62
5
0
TEXT
8
Information
1
66
10
38.1417
20
16.1417
40
0.141667
62
5
0
TEXT
8
Information
1
67
10
38.1417
20
19.1417
40
0.141667
62
5
0
TEXT
8
Information
1
68
10
38.1417
20
22.1417
40
0.141667
62
5
0
TEXT
8
Information
1
69
10
38.1417
20
25.1417
40
0.141667
62
5
0
TEXT
8
Information
1
70
10
2.14167
20
25.1417
40
0.141667
62
5
0
TEXT
8
Information
1
71
10
4.14167
20
25.1417
40
0.141667
62
5
0
TEXT
8
Information
1
72
10
6.14167
20
25.1417
40
0.141667
62
5
0
TEXT
8
Information
1
73
10
9.14167
20
25.1417
40
0.141667
62
5
0
TEXT
8
Information
1
74
10
11.1417
20
25.1417
40
0.141667
62
5
0
TEXT
8
Information
1
75
10
15.1417
20
50.1417
40
0.141667
62
5
0
TEXT
8
Information
1
76
10
17.1417
20
50.1417
40
0.141667
62
5
0
TEXT
8
Information
1
77
10
19.1417
20
50.1417
40
0.141667
62
5
0
TEXT
8
Information
1
78
10
21.1417
20
50.1417
40
0.141667
62
5
0
TEXT
8
Information
1
79
10
23.1417
20
50.1417
40
0.141667
62
5
0
TEXT
8
Information
1
80
10
26.1417
20
25.1417
40
0.141667
62
5
0
TEXT
8
Information
1
81
10
28.1417
20
25.1417
40
0.141667
62
5
0
TEXT
8
Information
1
82
10
32.1417
20
25.1417
40
0.141667
62
5
0
TEXT
8
Information
1
83
10
34.1417
20
25.1417
40
0.141667
62
5
0
TEXT
8
Information
1
84
10
36.1417
20
25.1417
40
0.141667
62
5
0
LINE
8
Information
10
0
20
3
11
-0.1
21
3
62
1
0
LINE
8
Information
10
0
20
6
11
-0.1
21
6
62
1
0
LINE
8
Information
10
0
20
9
11
-0.1
21
9
62
1
0
LINE
8
Information
10
0
20
13
11
-0.1
21
13
62
1
0
LINE
8
Information
10
0
20
16
11
-0.1
21
16
62
1
0
LINE
8
Information
10
0
20
19
11
-0.1
21
19
62
1
0
LINE
8
Information
10
0
20
22
11
-0.1
21
22
62
1
0
LINE
8
Information
10
0
20
25
11
-0.1
21
25
62
1
0
LINE
8
Information
10
13
20
28
11
12.9
21
28
62
1
0
LINE
8
Information
10
13
20
31
11
12.9
21
31
62
1
0
LINE
8
Information
10
13
20
34
11
12.9
21
34
62
1
0
LINE
8
Information
10
13
20
38
11
12.9
21
38
62
1
0
LINE
8
Information
10
13
20
41
11
12.9
21
41
62
1
0
LINE
8
Information
10
13
20
44
11
12.9
21
44
62
1
0
LINE
8
Information
10
13
20
47
11
12.9
21
47
62
1
0
LINE
8
Information
10
13
20
50
11
12.9
21
50
62
1
0
ENDSEC
0
EOF
