0
SECTION
2
ENTITIES
0
LINE
8
BMD
10
0
20
0
11
-31.8873
21
0
62
4
0
LINE
8
BMD
10
-31.8873
20
0
11
-30.3232
21
20
62
4
0
LINE
8
BMD
10
-30.3232
20
20
11
0
21
20
62
4
0
LINE
8
BMD
10
0
20
20
11
-30.3232
21
20
62
4
0
LINE
8
BMD
10
-30.3232
20
20
11
-28.7592
21
40
62
4
0
LINE
8
BMD
10
-28.7592
20
40
11
0
21
40
62
4
0
LINE
8
BMD
10
0
20
40
11
-28.7592
21
40
62
4
0
LINE
8
BMD
10
-28.7592
20
40
11
-27.1951
21
60
62
4
0
LINE
8
BMD
10
-27.1951
20
60
11
0
21
60
62
4
0
LINE
8
BMD
10
0
20
60
11
-27.1951
21
60
62
4
0
LINE
8
BMD
10
-27.1951
20
60
11
-25.6311
21
80
62
4
0
LINE
8
BMD
10
-25.6311
20
80
11
0
21
80
62
4
0
LINE
8
BMD
10
0
20
80
11
-25.6311
21
80
62
4
0
LINE
8
BMD
10
-25.6311
20
80
11
-24.067
21
100
62
4
0
LINE
8
BMD
10
-24.067
20
100
11
0
21
100
62
4
0
LINE
8
BMD
10
0
20
100
11
-24.067
21
100
62
4
0
LINE
8
BMD
10
-24.067
20
100
11
-22.503
21
120
62
4
0
LINE
8
BMD
10
-22.503
20
120
11
0
21
120
62
4
0
LINE
8
BMD
10
0
20
120
11
-22.503
21
120
62
4
0
LINE
8
BMD
10
-22.503
20
120
11
-20.9389
21
140
62
4
0
LINE
8
BMD
10
-20.9389
20
140
11
0
21
140
62
4
0
LINE
8
BMD
10
0
20
140
11
-20.9389
21
140
62
4
0
LINE
8
BMD
10
-20.9389
20
140
11
-19.3749
21
160
62
4
0
LINE
8
BMD
10
-19.3749
20
160
11
0
21
160
62
4
0
LINE
8
BMD
10
0
20
160
11
-19.3749
21
160
62
4
0
LINE
8
BMD
10
-19.3749
20
160
11
-17.8108
21
180
62
4
0
LINE
8
BMD
10
-17.8108
20
180
11
0
21
180
62
4
0
LINE
8
BMD
10
0
20
180
11
-17.8108
21
180
62
4
0
LINE
8
BMD
10
-17.8108
20
180
11
-16.2468
21
200
62
4
0
LINE
8
BMD
10
-16.2468
20
200
11
0
21
200
62
4
0
LINE
8
BMD
10
0
20
200
11
-9.94796e-016
21
216.247
62
4
0
LINE
8
BMD
10
-9.94796e-016
20
216.247
11
15
21
205.247
62
4
0
LINE
8
BMD
10
15
20
205.247
11
15
21
200
62
4
0
LINE
8
BMD
10
15
20
200
11
15
21
205.247
62
4
0
LINE
8
BMD
10
15
20
205.247
11
30
21
194.247
62
4
0
LINE
8
BMD
10
30
20
194.247
11
30
21
200
62
4
0
LINE
8
BMD
10
30
20
200
11
30
21
194.247
62
4
0
LINE
8
BMD
10
30
20
194.247
11
45
21
183.246
62
4
0
LINE
8
BMD
10
45
20
183.246
11
45
21
200
62
4
0
LINE
8
BMD
10
45
20
200
11
45
21
183.246
62
4
0
LINE
8
BMD
10
45
20
183.246
11
60
21
172.246
62
4
0
LINE
8
BMD
10
60
20
172.246
11
60
21
200
62
4
0
LINE
8
BMD
10
60
20
200
11
60
21
172.246
62
4
0
LINE
8
BMD
10
60
20
172.246
11
75
21
161.246
62
4
0
LINE
8
BMD
10
75
20
161.246
11
75
21
200
62
4
0
LINE
8
BMD
10
75
20
200
11
75
21
161.246
62
4
0
LINE
8
BMD
10
75
20
161.246
11
90
21
150.246
62
4
0
LINE
8
BMD
10
90
20
150.246
11
90
21
200
62
4
0
LINE
8
BMD
10
90
20
200
11
90
21
150.246
62
4
0
LINE
8
BMD
10
90
20
150.246
11
105
21
139.246
62
4
0
LINE
8
BMD
10
105
20
139.246
11
105
21
200
62
4
0
LINE
8
BMD
10
105
20
200
11
105
21
139.246
62
4
0
LINE
8
BMD
10
105
20
139.246
11
120
21
128.246
62
4
0
LINE
8
BMD
10
120
20
128.246
11
120
21
200
62
4
0
LINE
8
BMD
10
120
20
200
11
120
21
128.246
62
4
0
LINE
8
BMD
10
120
20
128.246
11
135
21
117.246
62
4
0
LINE
8
BMD
10
135
20
117.246
11
135
21
200
62
4
0
LINE
8
BMD
10
135
20
200
11
135
21
117.246
62
4
0
LINE
8
BMD
10
135
20
117.246
11
150
21
106.246
62
4
0
LINE
8
BMD
10
150
20
106.246
11
150
21
200
62
4
0
LINE
8
BMD
10
150
20
200
11
150
21
106.246
62
4
0
LINE
8
BMD
10
150
20
106.246
11
165
21
125.245
62
4
0
LINE
8
BMD
10
165
20
125.245
11
165
21
200
62
4
0
LINE
8
BMD
10
165
20
200
11
165
21
125.245
62
4
0
LINE
8
BMD
10
165
20
125.245
11
180
21
144.245
62
4
0
LINE
8
BMD
10
180
20
144.245
11
180
21
200
62
4
0
LINE
8
BMD
10
180
20
200
11
180
21
144.245
62
4
0
LINE
8
BMD
10
180
20
144.245
11
195
21
163.245
62
4
0
LINE
8
BMD
10
195
20
163.245
11
195
21
200
62
4
0
LINE
8
BMD
10
195
20
200
11
195
21
163.245
62
4
0
LINE
8
BMD
10
195
20
163.245
11
210
21
182.245
62
4
0
LINE
8
BMD
10
210
20
182.245
11
210
21
200
62
4
0
LINE
8
BMD
10
210
20
200
11
210
21
182.245
62
4
0
LINE
8
BMD
10
210
20
182.245
11
225
21
201.245
62
4
0
LINE
8
BMD
10
225
20
201.245
11
225
21
200
62
4
0
LINE
8
BMD
10
225
20
200
11
225
21
201.245
62
4
0
LINE
8
BMD
10
225
20
201.245
11
240
21
220.245
62
4
0
LINE
8
BMD
10
240
20
220.245
11
240
21
200
62
4
0
LINE
8
BMD
10
240
20
200
11
240
21
220.245
62
4
0
LINE
8
BMD
10
240
20
220.245
11
255
21
239.245
62
4
0
LINE
8
BMD
10
255
20
239.245
11
255
21
200
62
4
0
LINE
8
BMD
10
255
20
200
11
255
21
239.245
62
4
0
LINE
8
BMD
10
255
20
239.245
11
270
21
258.245
62
4
0
LINE
8
BMD
10
270
20
258.245
11
270
21
200
62
4
0
LINE
8
BMD
10
270
20
200
11
270
21
258.245
62
4
0
LINE
8
BMD
10
270
20
258.245
11
285
21
277.244
62
4
0
LINE
8
BMD
10
285
20
277.244
11
285
21
200
62
4
0
LINE
8
BMD
10
285
20
200
11
285
21
277.244
62
4
0
LINE
8
BMD
10
285
20
277.244
11
300
21
296.244
62
4
0
LINE
8
BMD
10
300
20
296.244
11
300
21
200
62
4
0
LINE
8
BMD
10
300
20
200
11
396.244
21
200
62
4
0
LINE
8
BMD
10
396.244
20
200
11
377.808
21
180
62
4
0
LINE
8
BMD
10
377.808
20
180
11
300
21
180
62
4
0
LINE
8
BMD
10
300
20
180
11
377.808
21
180
62
4
0
LINE
8
BMD
10
377.808
20
180
11
359.372
21
160
62
4
0
LINE
8
BMD
10
359.372
20
160
11
300
21
160
62
4
0
LINE
8
BMD
10
300
20
160
11
359.372
21
160
62
4
0
LINE
8
BMD
10
359.372
20
160
11
340.937
21
140
62
4
0
LINE
8
BMD
10
340.937
20
140
11
300
21
140
62
4
0
LINE
8
BMD
10
300
20
140
11
340.937
21
140
62
4
0
LINE
8
BMD
10
340.937
20
140
11
322.501
21
120
62
4
0
LINE
8
BMD
10
322.501
20
120
11
300
21
120
62
4
0
LINE
8
BMD
10
300
20
120
11
322.501
21
120
62
4
0
LINE
8
BMD
10
322.501
20
120
11
304.065
21
100
62
4
0
LINE
8
BMD
10
304.065
20
100
11
300
21
100
62
4
0
LINE
8
BMD
10
300
20
100
11
304.065
21
100
62
4
0
LINE
8
BMD
10
304.065
20
100
11
285.629
21
80
62
4
0
LINE
8
BMD
10
285.629
20
80
11
300
21
80
62
4
0
LINE
8
BMD
10
300
20
80
11
285.629
21
80
62
4
0
LINE
8
BMD
10
285.629
20
80
11
267.193
21
60
62
4
0
LINE
8
BMD
10
267.193
20
60
11
300
21
60
62
4
0
LINE
8
BMD
10
300
20
60
11
267.193
21
60
62
4
0
LINE
8
BMD
10
267.193
20
60
11
248.757
21
40
62
4
0
LINE
8
BMD
10
248.757
20
40
11
300
21
40
62
4
0
LINE
8
BMD
10
300
20
40
11
248.757
21
40
62
4
0
LINE
8
BMD
10
248.757
20
40
11
230.321
21
20
62
4
0
LINE
8
BMD
10
230.321
20
20
11
300
21
20
62
4
0
LINE
8
BMD
10
300
20
20
11
230.321
21
20
62
4
0
LINE
8
BMD
10
230.321
20
20
11
211.885
21
0
62
4
0
LINE
8
BMD
10
211.885
20
0
11
300
21
0
62
4
0
LINE
8
Undeflected
10
0
20
0
11
0
21
20
62
0
0
LINE
8
Deflected
10
0
20
0
11
0.904438
21
19.9982
62
1
0
LINE
8
Undeflected
10
0
20
20
11
0
21
40
62
0
0
LINE
8
Deflected
10
0.904438
20
19.9982
11
3.55762
21
39.9964
62
1
0
LINE
8
Undeflected
10
0
20
40
11
0
21
60
62
0
0
LINE
8
Deflected
10
3.55762
20
39.9964
11
7.86935
21
59.9946
62
1
0
LINE
8
Undeflected
10
0
20
60
11
0
21
80
62
0
0
LINE
8
Deflected
10
7.86935
20
59.9946
11
13.7494
21
79.9928
62
1
0
LINE
8
Undeflected
10
0
20
80
11
0
21
100
62
0
0
LINE
8
Deflected
10
13.7494
20
79.9928
11
21.1076
21
99.991
62
1
0
LINE
8
Undeflected
10
0
20
100
11
0
21
120
62
0
0
LINE
8
Deflected
10
21.1076
20
99.991
11
29.8538
21
119.989
62
1
0
LINE
8
Undeflected
10
0
20
120
11
0
21
140
62
0
0
LINE
8
Deflected
10
29.8538
20
119.989
11
39.8977
21
139.987
62
1
0
LINE
8
Undeflected
10
0
20
140
11
0
21
160
62
0
0
LINE
8
Deflected
10
39.8977
20
139.987
11
51.1492
21
159.986
62
1
0
LINE
8
Undeflected
10
0
20
160
11
0
21
180
62
0
0
LINE
8
Deflected
10
51.1492
20
159.986
11
63.518
21
179.984
62
1
0
LINE
8
Undeflected
10
0
20
180
11
0
21
200
62
0
0
LINE
8
Deflected
10
63.518
20
179.984
11
76.914
21
199.982
62
1
0
LINE
8
Undeflected
10
0
20
200
11
15
21
200
62
0
0
LINE
8
Deflected
10
76.914
20
199.982
11
91.9123
21
189.368
62
1
0
LINE
8
Undeflected
10
15
20
200
11
30
21
200
62
0
0
LINE
8
Deflected
10
91.9123
20
189.368
11
106.911
21
178.584
62
1
0
LINE
8
Undeflected
10
30
20
200
11
45
21
200
62
0
0
LINE
8
Deflected
10
106.911
20
178.584
11
121.909
21
167.987
62
1
0
LINE
8
Undeflected
10
45
20
200
11
60
21
200
62
0
0
LINE
8
Deflected
10
121.909
20
167.987
11
136.907
21
157.933
62
1
0
LINE
8
Undeflected
10
60
20
200
11
75
21
200
62
0
0
LINE
8
Deflected
10
136.907
20
157.933
11
151.906
21
148.78
62
1
0
LINE
8
Undeflected
10
75
20
200
11
90
21
200
62
0
0
LINE
8
Deflected
10
151.906
20
148.78
11
166.904
21
140.884
62
1
0
LINE
8
Undeflected
10
90
20
200
11
105
21
200
62
0
0
LINE
8
Deflected
10
166.904
20
140.884
11
181.902
21
134.601
62
1
0
LINE
8
Undeflected
10
105
20
200
11
120
21
200
62
0
0
LINE
8
Deflected
10
181.902
20
134.601
11
196.9
21
130.29
62
1
0
LINE
8
Undeflected
10
120
20
200
11
135
21
200
62
0
0
LINE
8
Deflected
10
196.9
20
130.29
11
211.899
21
128.306
62
1
0
LINE
8
Undeflected
10
135
20
200
11
150
21
200
62
0
0
LINE
8
Deflected
10
211.899
20
128.306
11
226.897
21
129.007
62
1
0
LINE
8
Undeflected
10
150
20
200
11
165
21
200
62
0
0
LINE
8
Deflected
10
226.897
20
129.007
11
241.895
21
132.587
62
1
0
LINE
8
Undeflected
10
165
20
200
11
180
21
200
62
0
0
LINE
8
Deflected
10
241.895
20
132.587
11
256.894
21
138.592
62
1
0
LINE
8
Undeflected
10
180
20
200
11
195
21
200
62
0
0
LINE
8
Deflected
10
256.894
20
138.592
11
271.892
21
146.405
62
1
0
LINE
8
Undeflected
10
195
20
200
11
210
21
200
62
0
0
LINE
8
Deflected
10
271.892
20
146.405
11
286.89
21
155.411
62
1
0
LINE
8
Undeflected
10
210
20
200
11
225
21
200
62
0
0
LINE
8
Deflected
10
286.89
20
155.411
11
301.888
21
164.993
62
1
0
LINE
8
Undeflected
10
225
20
200
11
240
21
200
62
0
0
LINE
8
Deflected
10
301.888
20
164.993
11
316.887
21
174.534
62
1
0
LINE
8
Undeflected
10
240
20
200
11
255
21
200
62
0
0
LINE
8
Deflected
10
316.887
20
174.534
11
331.885
21
183.419
62
1
0
LINE
8
Undeflected
10
255
20
200
11
270
21
200
62
0
0
LINE
8
Deflected
10
331.885
20
183.419
11
346.883
21
191.03
62
1
0
LINE
8
Undeflected
10
270
20
200
11
285
21
200
62
0
0
LINE
8
Deflected
10
346.883
20
191.03
11
361.882
21
196.752
62
1
0
LINE
8
Undeflected
10
285
20
200
11
300
21
200
62
0
0
LINE
8
Deflected
10
361.882
20
196.752
11
376.88
21
199.969
62
1
0
LINE
8
Undeflected
10
300
20
200
11
300
21
180
62
0
0
LINE
8
Deflected
10
376.88
20
199.969
11
376.626
21
179.972
62
1
0
LINE
8
Undeflected
10
300
20
180
11
300
21
160
62
0
0
LINE
8
Deflected
10
376.626
20
179.972
11
371.885
21
159.975
62
1
0
LINE
8
Undeflected
10
300
20
160
11
300
21
140
62
0
0
LINE
8
Deflected
10
371.885
20
159.975
11
363.72
21
139.978
62
1
0
LINE
8
Undeflected
10
300
20
140
11
300
21
120
62
0
0
LINE
8
Deflected
10
363.72
20
139.978
11
353.194
21
119.981
62
1
0
LINE
8
Undeflected
10
300
20
120
11
300
21
100
62
0
0
LINE
8
Deflected
10
353.194
20
119.981
11
341.37
21
99.9844
62
1
0
LINE
8
Undeflected
10
300
20
100
11
300
21
80
62
0
0
LINE
8
Deflected
10
341.37
20
99.9844
11
329.312
21
79.9875
62
1
0
LINE
8
Undeflected
10
300
20
80
11
300
21
60
62
0
0
LINE
8
Deflected
10
329.312
20
79.9875
11
318.083
21
59.9906
62
1
0
LINE
8
Undeflected
10
300
20
60
11
300
21
40
62
0
0
LINE
8
Deflected
10
318.083
20
59.9906
11
308.746
21
39.9938
62
1
0
LINE
8
Undeflected
10
300
20
40
11
300
21
20
62
0
0
LINE
8
Deflected
10
308.746
20
39.9938
11
302.364
21
19.9969
62
1
0
LINE
8
Undeflected
10
300
20
20
11
300
21
0
62
0
0
LINE
8
Deflected
10
302.364
20
19.9969
11
300
21
0
62
1
0
CIRCLE
8
Undeflected
10
0
20
0
40
0.35
62
0
0
CIRCLE
8
Deflected
10
0
20
0
40
0.35
62
1
0
CIRCLE
8
Undeflected
10
0
20
20
40
0.35
62
0
0
CIRCLE
8
Deflected
10
0.904438
20
19.9982
40
0.35
62
1
0
CIRCLE
8
Undeflected
10
0
20
40
40
0.35
62
0
0
CIRCLE
8
Deflected
10
3.55762
20
39.9964
40
0.35
62
1
0
CIRCLE
8
Undeflected
10
0
20
60
40
0.35
62
0
0
CIRCLE
8
Deflected
10
7.86935
20
59.9946
40
0.35
62
1
0
CIRCLE
8
Undeflected
10
0
20
80
40
0.35
62
0
0
CIRCLE
8
Deflected
10
13.7494
20
79.9928
40
0.35
62
1
0
CIRCLE
8
Undeflected
10
0
20
100
40
0.35
62
0
0
CIRCLE
8
Deflected
10
21.1076
20
99.991
40
0.35
62
1
0
CIRCLE
8
Undeflected
10
0
20
120
40
0.35
62
0
0
CIRCLE
8
Deflected
10
29.8538
20
119.989
40
0.35
62
1
0
CIRCLE
8
Undeflected
10
0
20
140
40
0.35
62
0
0
CIRCLE
8
Deflected
10
39.8977
20
139.987
40
0.35
62
1
0
CIRCLE
8
Undeflected
10
0
20
160
40
0.35
62
0
0
CIRCLE
8
Deflected
10
51.1492
20
159.986
40
0.35
62
1
0
CIRCLE
8
Undeflected
10
0
20
180
40
0.35
62
0
0
CIRCLE
8
Deflected
10
63.518
20
179.984
40
0.35
62
1
0
CIRCLE
8
Undeflected
10
0
20
200
40
0.35
62
0
0
CIRCLE
8
Deflected
10
76.914
20
199.982
40
0.35
62
1
0
CIRCLE
8
Undeflected
10
15
20
200
40
0.35
62
0
0
CIRCLE
8
Deflected
10
91.9123
20
189.368
40
0.35
62
1
0
CIRCLE
8
Undeflected
10
30
20
200
40
0.35
62
0
0
CIRCLE
8
Deflected
10
106.911
20
178.584
40
0.35
62
1
0
CIRCLE
8
Undeflected
10
45
20
200
40
0.35
62
0
0
CIRCLE
8
Deflected
10
121.909
20
167.987
40
0.35
62
1
0
CIRCLE
8
Undeflected
10
60
20
200
40
0.35
62
0
0
CIRCLE
8
Deflected
10
136.907
20
157.933
40
0.35
62
1
0
CIRCLE
8
Undeflected
10
75
20
200
40
0.35
62
0
0
CIRCLE
8
Deflected
10
151.906
20
148.78
40
0.35
62
1
0
CIRCLE
8
Undeflected
10
90
20
200
40
0.35
62
0
0
CIRCLE
8
Deflected
10
166.904
20
140.884
40
0.35
62
1
0
CIRCLE
8
Undeflected
10
105
20
200
40
0.35
62
0
0
CIRCLE
8
Deflected
10
181.902
20
134.601
40
0.35
62
1
0
CIRCLE
8
Undeflected
10
120
20
200
40
0.35
62
0
0
CIRCLE
8
Deflected
10
196.9
20
130.29
40
0.35
62
1
0
CIRCLE
8
Undeflected
10
135
20
200
40
0.35
62
0
0
CIRCLE
8
Deflected
10
211.899
20
128.306
40
0.35
62
1
0
CIRCLE
8
Undeflected
10
150
20
200
40
0.35
62
0
0
CIRCLE
8
Deflected
10
226.897
20
129.007
40
0.35
62
1
0
CIRCLE
8
Undeflected
10
165
20
200
40
0.35
62
0
0
CIRCLE
8
Deflected
10
241.895
20
132.587
40
0.35
62
1
0
CIRCLE
8
Undeflected
10
180
20
200
40
0.35
62
0
0
CIRCLE
8
Deflected
10
256.894
20
138.592
40
0.35
62
1
0
CIRCLE
8
Undeflected
10
195
20
200
40
0.35
62
0
0
CIRCLE
8
Deflected
10
271.892
20
146.405
40
0.35
62
1
0
CIRCLE
8
Undeflected
10
210
20
200
40
0.35
62
0
0
CIRCLE
8
Deflected
10
286.89
20
155.411
40
0.35
62
1
0
CIRCLE
8
Undeflected
10
225
20
200
40
0.35
62
0
0
CIRCLE
8
Deflected
10
301.888
20
164.993
40
0.35
62
1
0
CIRCLE
8
Undeflected
10
240
20
200
40
0.35
62
0
0
CIRCLE
8
Deflected
10
316.887
20
174.534
40
0.35
62
1
0
CIRCLE
8
Undeflected
10
255
20
200
40
0.35
62
0
0
CIRCLE
8
Deflected
10
331.885
20
183.419
40
0.35
62
1
0
CIRCLE
8
Undeflected
10
270
20
200
40
0.35
62
0
0
CIRCLE
8
Deflected
10
346.883
20
191.03
40
0.35
62
1
0
CIRCLE
8
Undeflected
10
285
20
200
40
0.35
62
0
0
CIRCLE
8
Deflected
10
361.882
20
196.752
40
0.35
62
1
0
CIRCLE
8
Undeflected
10
300
20
200
40
0.35
62
0
0
CIRCLE
8
Deflected
10
376.88
20
199.969
40
0.35
62
1
0
CIRCLE
8
Undeflected
10
300
20
180
40
0.35
62
0
0
CIRCLE
8
Deflected
10
376.626
20
179.972
40
0.35
62
1
0
CIRCLE
8
Undeflected
10
300
20
160
40
0.35
62
0
0
CIRCLE
8
Deflected
10
371.885
20
159.975
40
0.35
62
1
0
CIRCLE
8
Undeflected
10
300
20
140
40
0.35
62
0
0
CIRCLE
8
Deflected
10
363.72
20
139.978
40
0.35
62
1
0
CIRCLE
8
Undeflected
10
300
20
120
40
0.35
62
0
0
CIRCLE
8
Deflected
10
353.194
20
119.981
40
0.35
62
1
0
CIRCLE
8
Undeflected
10
300
20
100
40
0.35
62
0
0
CIRCLE
8
Deflected
10
341.37
20
99.9844
40
0.35
62
1
0
CIRCLE
8
Undeflected
10
300
20
80
40
0.35
62
0
0
CIRCLE
8
Deflected
10
329.312
20
79.9875
40
0.35
62
1
0
CIRCLE
8
Undeflected
10
300
20
60
40
0.35
62
0
0
CIRCLE
8
Deflected
10
318.083
20
59.9906
40
0.35
62
1
0
CIRCLE
8
Undeflected
10
300
20
40
40
0.35
62
0
0
CIRCLE
8
Deflected
10
308.746
20
39.9938
40
0.35
62
1
0
CIRCLE
8
Undeflected
10
300
20
20
40
0.35
62
0
0
CIRCLE
8
Deflected
10
302.364
20
19.9969
40
0.35
62
1
0
CIRCLE
8
Undeflected
10
300
20
0
40
0.35
62
0
0
CIRCLE
8
Deflected
10
300
20
0
40
0.35
62
1
0
TEXT
8
Information
1
0
10
0
20
10
40
0.875
62
0
0
TEXT
8
Information
1
1
10
0
20
30
40
0.875
62
0
0
TEXT
8
Information
1
2
10
0
20
50
40
0.875
62
0
0
TEXT
8
Information
1
3
10
0
20
70
40
0.875
62
0
0
TEXT
8
Information
1
4
10
0
20
90
40
0.875
62
0
0
TEXT
8
Information
1
5
10
0
20
110
40
0.875
62
0
0
TEXT
8
Information
1
6
10
0
20
130
40
0.875
62
0
0
TEXT
8
Information
1
7
10
0
20
150
40
0.875
62
0
0
TEXT
8
Information
1
8
10
0
20
170
40
0.875
62
0
0
TEXT
8
Information
1
9
10
0
20
190
40
0.875
62
0
0
TEXT
8
Information
1
10
10
7.5
20
200
40
0.875
62
0
0
TEXT
8
Information
1
11
10
22.5
20
200
40
0.875
62
0
0
TEXT
8
Information
1
12
10
37.5
20
200
40
0.875
62
0
0
TEXT
8
Information
1
13
10
52.5
20
200
40
0.875
62
0
0
TEXT
8
Information
1
14
10
67.5
20
200
40
0.875
62
0
0
TEXT
8
Information
1
15
10
82.5
20
200
40
0.875
62
0
0
TEXT
8
Information
1
16
10
97.5
20
200
40
0.875
62
0
0
TEXT
8
Information
1
17
10
112.5
20
200
40
0.875
62
0
0
TEXT
8
Information
1
18
10
127.5
20
200
40
0.875
62
0
0
TEXT
8
Information
1
19
10
142.5
20
200
40
0.875
62
0
0
TEXT
8
Information
1
20
10
157.5
20
200
40
0.875
62
0
0
TEXT
8
Information
1
21
10
172.5
20
200
40
0.875
62
0
0
TEXT
8
Information
1
22
10
187.5
20
200
40
0.875
62
0
0
TEXT
8
Information
1
23
10
202.5
20
200
40
0.875
62
0
0
TEXT
8
Information
1
24
10
217.5
20
200
40
0.875
62
0
0
TEXT
8
Information
1
25
10
232.5
20
200
40
0.875
62
0
0
TEXT
8
Information
1
26
10
247.5
20
200
40
0.875
62
0
0
TEXT
8
Information
1
27
10
262.5
20
200
40
0.875
62
0
0
TEXT
8
Information
1
28
10
277.5
20
200
40
0.875
62
0
0
TEXT
8
Information
1
29
10
292.5
20
200
40
0.875
62
0
0
TEXT
8
Information
1
30
10
300
20
190
40
0.875
62
0
0
TEXT
8
Information
1
31
10
300
20
170
40
0.875
62
0
0
TEXT
8
Information
1
32
10
300
20
150
40
0.875
62
0
0
TEXT
8
Information
1
33
10
300
20
130
40
0.875
62
0
0
TEXT
8
Information
1
34
10
300
20
110
40
0.875
62
0
0
TEXT
8
Information
1
35
10
300
20
90
40
0.875
62
0
0
TEXT
8
Information
1
36
10
300
20
70
40
0.875
62
0
0
TEXT
8
Information
1
37
10
300
20
50
40
0.875
62
0
0
TEXT
8
Information
1
38
10
300
20
30
40
0.875
62
0
0
TEXT
8
Information
1
39
10
300
20
10
40
0.875
62
0
0
TEXT
8
Information
1
0
10
0.875
20
0.875
40
0.875
62
5
0
TEXT
8
Information
1
1
10
0.875
20
20.875
40
0.875
62
5
0
TEXT
8
Information
1
2
10
0.875
20
40.875
40
0.875
62
5
0
TEXT
8
Information
1
3
10
0.875
20
60.875
40
0.875
62
5
0
TEXT
8
Information
1
4
10
0.875
20
80.875
40
0.875
62
5
0
TEXT
8
Information
1
5
10
0.875
20
100.875
40
0.875
62
5
0
TEXT
8
Information
1
6
10
0.875
20
120.875
40
0.875
62
5
0
TEXT
8
Information
1
7
10
0.875
20
140.875
40
0.875
62
5
0
TEXT
8
Information
1
8
10
0.875
20
160.875
40
0.875
62
5
0
TEXT
8
Information
1
9
10
0.875
20
180.875
40
0.875
62
5
0
TEXT
8
Information
1
10
10
0.875
20
200.875
40
0.875
62
5
0
TEXT
8
Information
1
11
10
15.875
20
200.875
40
0.875
62
5
0
TEXT
8
Information
1
12
10
30.875
20
200.875
40
0.875
62
5
0
TEXT
8
Information
1
13
10
45.875
20
200.875
40
0.875
62
5
0
TEXT
8
Information
1
14
10
60.875
20
200.875
40
0.875
62
5
0
TEXT
8
Information
1
15
10
75.875
20
200.875
40
0.875
62
5
0
TEXT
8
Information
1
16
10
90.875
20
200.875
40
0.875
62
5
0
TEXT
8
Information
1
17
10
105.875
20
200.875
40
0.875
62
5
0
TEXT
8
Information
1
18
10
120.875
20
200.875
40
0.875
62
5
0
TEXT
8
Information
1
19
10
135.875
20
200.875
40
0.875
62
5
0
TEXT
8
Information
1
20
10
150.875
20
200.875
40
0.875
62
5
0
TEXT
8
Information
1
21
10
165.875
20
200.875
40
0.875
62
5
0
TEXT
8
Information
1
22
10
180.875
20
200.875
40
0.875
62
5
0
TEXT
8
Information
1
23
10
195.875
20
200.875
40
0.875
62
5
0
TEXT
8
Information
1
24
10
210.875
20
200.875
40
0.875
62
5
0
TEXT
8
Information
1
25
10
225.875
20
200.875
40
0.875
62
5
0
TEXT
8
Information
1
26
10
240.875
20
200.875
40
0.875
62
5
0
TEXT
8
Information
1
27
10
255.875
20
200.875
40
0.875
62
5
0
TEXT
8
Information
1
28
10
270.875
20
200.875
40
0.875
62
5
0
TEXT
8
Information
1
29
10
285.875
20
200.875
40
0.875
62
5
0
TEXT
8
Information
1
30
10
300.875
20
200.875
40
0.875
62
5
0
TEXT
8
Information
1
31
10
300.875
20
180.875
40
0.875
62
5
0
TEXT
8
Information
1
32
10
300.875
20
160.875
40
0.875
62
5
0
TEXT
8
Information
1
33
10
300.875
20
140.875
40
0.875
62
5
0
TEXT
8
Information
1
34
10
300.875
20
120.875
40
0.875
62
5
0
TEXT
8
Information
1
35
10
300.875
20
100.875
40
0.875
62
5
0
TEXT
8
Information
1
36
10
300.875
20
80.875
40
0.875
62
5
0
TEXT
8
Information
1
37
10
300.875
20
60.875
40
0.875
62
5
0
TEXT
8
Information
1
38
10
300.875
20
40.875
40
0.875
62
5
0
TEXT
8
Information
1
39
10
300.875
20
20.875
40
0.875
62
5
0
TEXT
8
Information
1
40
10
300.875
20
0.875
40
0.875
62
5
0
LINE
8
Information
10
0
20
200
11
-1
21
200
62
1
0
LINE
8
Information
10
150
20
200
11
150
21
202
62
1
0
ENDSEC
0
EOF
