0
SECTION
2
ENTITIES
0
LINE
8
Undeflected
10
0
20
0
11
1
21
0
62
0
0
LINE
8
Deflected
10
0
20
0
11
1
21
-0.0671734
62
1
0
LINE
8
Undeflected
10
1
20
0
11
2
21
0
62
0
0
LINE
8
Deflected
10
1
20
-0.0671734
11
2
21
-0.155766
62
1
0
LINE
8
Undeflected
10
2
20
0
11
3
21
0
62
0
0
LINE
8
Deflected
10
2
20
-0.155766
11
3
21
-0.253318
62
1
0
LINE
8
Undeflected
10
3
20
0
11
4
21
0
62
0
0
LINE
8
Deflected
10
3
20
-0.253318
11
4
21
-0.354537
62
1
0
LINE
8
Undeflected
10
4
20
0
11
5
21
0
62
0
0
LINE
8
Deflected
10
4
20
-0.354537
11
5
21
-0.457066
62
1
0
LINE
8
Undeflected
10
5
20
0
11
6
21
0
62
0
0
LINE
8
Deflected
10
5
20
-0.457066
11
6
21
-0.559596
62
1
0
LINE
8
Undeflected
10
6
20
0
11
7
21
0
62
0
0
LINE
8
Deflected
10
6
20
-0.559596
11
7
21
-0.660815
62
1
0
LINE
8
Undeflected
10
7
20
0
11
8
21
0
62
0
0
LINE
8
Deflected
10
7
20
-0.660815
11
8
21
-0.758367
62
1
0
LINE
8
Undeflected
10
8
20
0
11
9
21
0
62
0
0
LINE
8
Deflected
10
8
20
-0.758367
11
9
21
-0.846959
62
1
0
LINE
8
Undeflected
10
9
20
0
11
10
21
0
62
0
0
LINE
8
Deflected
10
9
20
-0.846959
11
10
21
-0.914133
62
1
0
LINE
8
Undeflected
10
10
20
0
11
11
21
0
62
0
0
LINE
8
Deflected
10
10
20
-0.914133
11
11
21
-0.846959
62
1
0
LINE
8
Undeflected
10
11
20
0
11
12
21
0
62
0
0
LINE
8
Deflected
10
11
20
-0.846959
11
12
21
-0.758367
62
1
0
LINE
8
Undeflected
10
12
20
0
11
13
21
0
62
0
0
LINE
8
Deflected
10
12
20
-0.758367
11
13
21
-0.660815
62
1
0
LINE
8
Undeflected
10
13
20
0
11
14
21
0
62
0
0
LINE
8
Deflected
10
13
20
-0.660815
11
14
21
-0.559596
62
1
0
LINE
8
Undeflected
10
14
20
0
11
15
21
0
62
0
0
LINE
8
Deflected
10
14
20
-0.559596
11
15
21
-0.457066
62
1
0
LINE
8
Undeflected
10
15
20
0
11
16
21
0
62
0
0
LINE
8
Deflected
10
15
20
-0.457066
11
16
21
-0.354537
62
1
0
LINE
8
Undeflected
10
16
20
0
11
17
21
0
62
0
0
LINE
8
Deflected
10
16
20
-0.354537
11
17
21
-0.253318
62
1
0
LINE
8
Undeflected
10
17
20
0
11
18
21
0
62
0
0
LINE
8
Deflected
10
17
20
-0.253318
11
18
21
-0.155766
62
1
0
LINE
8
Undeflected
10
18
20
0
11
19
21
0
62
0
0
LINE
8
Deflected
10
18
20
-0.155766
11
19
21
-0.0671734
62
1
0
LINE
8
Undeflected
10
19
20
0
11
20
21
0
62
0
0
LINE
8
Deflected
10
19
20
-0.0671734
11
20
21
0
62
1
0
CIRCLE
8
Undeflected
10
0
20
0
40
0.02
62
0
0
CIRCLE
8
Deflected
10
0
20
0
40
0.02
62
1
0
CIRCLE
8
Undeflected
10
1
20
0
40
0.02
62
0
0
CIRCLE
8
Deflected
10
1
20
-0.0671734
40
0.02
62
1
0
CIRCLE
8
Undeflected
10
2
20
0
40
0.02
62
0
0
CIRCLE
8
Deflected
10
2
20
-0.155766
40
0.02
62
1
0
CIRCLE
8
Undeflected
10
3
20
0
40
0.02
62
0
0
CIRCLE
8
Deflected
10
3
20
-0.253318
40
0.02
62
1
0
CIRCLE
8
Undeflected
10
4
20
0
40
0.02
62
0
0
CIRCLE
8
Deflected
10
4
20
-0.354537
40
0.02
62
1
0
CIRCLE
8
Undeflected
10
5
20
0
40
0.02
62
0
0
CIRCLE
8
Deflected
10
5
20
-0.457066
40
0.02
62
1
0
CIRCLE
8
Undeflected
10
6
20
0
40
0.02
62
0
0
CIRCLE
8
Deflected
10
6
20
-0.559596
40
0.02
62
1
0
CIRCLE
8
Undeflected
10
7
20
0
40
0.02
62
0
0
CIRCLE
8
Deflected
10
7
20
-0.660815
40
0.02
62
1
0
CIRCLE
8
Undeflected
10
8
20
0
40
0.02
62
0
0
CIRCLE
8
Deflected
10
8
20
-0.758367
40
0.02
62
1
0
CIRCLE
8
Undeflected
10
9
20
0
40
0.02
62
0
0
CIRCLE
8
Deflected
10
9
20
-0.846959
40
0.02
62
1
0
CIRCLE
8
Undeflected
10
10
20
0
40
0.02
62
0
0
CIRCLE
8
Deflected
10
10
20
-0.914133
40
0.02
62
1
0
CIRCLE
8
Undeflected
10
11
20
0
40
0.02
62
0
0
CIRCLE
8
Deflected
10
11
20
-0.846959
40
0.02
62
1
0
CIRCLE
8
Undeflected
10
12
20
0
40
0.02
62
0
0
CIRCLE
8
Deflected
10
12
20
-0.758367
40
0.02
62
1
0
CIRCLE
8
Undeflected
10
13
20
0
40
0.02
62
0
0
CIRCLE
8
Deflected
10
13
20
-0.660815
40
0.02
62
1
0
CIRCLE
8
Undeflected
10
14
20
0
40
0.02
62
0
0
CIRCLE
8
Deflected
10
14
20
-0.559596
40
0.02
62
1
0
CIRCLE
8
Undeflected
10
15
20
0
40
0.02
62
0
0
CIRCLE
8
Deflected
10
15
20
-0.457066
40
0.02
62
1
0
CIRCLE
8
Undeflected
10
16
20
0
40
0.02
62
0
0
CIRCLE
8
Deflected
10
16
20
-0.354537
40
0.02
62
1
0
CIRCLE
8
Undeflected
10
17
20
0
40
0.02
62
0
0
CIRCLE
8
Deflected
10
17
20
-0.253318
40
0.02
62
1
0
CIRCLE
8
Undeflected
10
18
20
0
40
0.02
62
0
0
CIRCLE
8
Deflected
10
18
20
-0.155766
40
0.02
62
1
0
CIRCLE
8
Undeflected
10
19
20
0
40
0.02
62
0
0
CIRCLE
8
Deflected
10
19
20
-0.0671734
40
0.02
62
1
0
CIRCLE
8
Undeflected
10
20
20
0
40
0.02
62
0
0
CIRCLE
8
Deflected
10
20
20
0
40
0.02
62
1
0
TEXT
8
Information
1
0
10
0.5
20
0
40
0.05
62
0
0
TEXT
8
Information
1
1
10
1.5
20
0
40
0.05
62
0
0
TEXT
8
Information
1
2
10
2.5
20
0
40
0.05
62
0
0
TEXT
8
Information
1
3
10
3.5
20
0
40
0.05
62
0
0
TEXT
8
Information
1
4
10
4.5
20
0
40
0.05
62
0
0
TEXT
8
Information
1
5
10
5.5
20
0
40
0.05
62
0
0
TEXT
8
Information
1
6
10
6.5
20
0
40
0.05
62
0
0
TEXT
8
Information
1
7
10
7.5
20
0
40
0.05
62
0
0
TEXT
8
Information
1
8
10
8.5
20
0
40
0.05
62
0
0
TEXT
8
Information
1
9
10
9.5
20
0
40
0.05
62
0
0
TEXT
8
Information
1
10
10
10.5
20
0
40
0.05
62
0
0
TEXT
8
Information
1
11
10
11.5
20
0
40
0.05
62
0
0
TEXT
8
Information
1
12
10
12.5
20
0
40
0.05
62
0
0
TEXT
8
Information
1
13
10
13.5
20
0
40
0.05
62
0
0
TEXT
8
Information
1
14
10
14.5
20
0
40
0.05
62
0
0
TEXT
8
Information
1
15
10
15.5
20
0
40
0.05
62
0
0
TEXT
8
Information
1
16
10
16.5
20
0
40
0.05
62
0
0
TEXT
8
Information
1
17
10
17.5
20
0
40
0.05
62
0
0
TEXT
8
Information
1
18
10
18.5
20
0
40
0.05
62
0
0
TEXT
8
Information
1
19
10
19.5
20
0
40
0.05
62
0
0
TEXT
8
Information
1
0
10
0.05
20
0.05
40
0.05
62
5
0
TEXT
8
Information
1
1
10
1.05
20
0.05
40
0.05
62
5
0
TEXT
8
Information
1
2
10
2.05
20
0.05
40
0.05
62
5
0
TEXT
8
Information
1
3
10
3.05
20
0.05
40
0.05
62
5
0
TEXT
8
Information
1
4
10
4.05
20
0.05
40
0.05
62
5
0
TEXT
8
Information
1
5
10
5.05
20
0.05
40
0.05
62
5
0
TEXT
8
Information
1
6
10
6.05
20
0.05
40
0.05
62
5
0
TEXT
8
Information
1
7
10
7.05
20
0.05
40
0.05
62
5
0
TEXT
8
Information
1
8
10
8.05
20
0.05
40
0.05
62
5
0
TEXT
8
Information
1
9
10
9.05
20
0.05
40
0.05
62
5
0
TEXT
8
Information
1
10
10
10.05
20
0.05
40
0.05
62
5
0
TEXT
8
Information
1
11
10
11.05
20
0.05
40
0.05
62
5
0
TEXT
8
Information
1
12
10
12.05
20
0.05
40
0.05
62
5
0
TEXT
8
Information
1
13
10
13.05
20
0.05
40
0.05
62
5
0
TEXT
8
Information
1
14
10
14.05
20
0.05
40
0.05
62
5
0
TEXT
8
Information
1
15
10
15.05
20
0.05
40
0.05
62
5
0
TEXT
8
Information
1
16
10
16.05
20
0.05
40
0.05
62
5
0
TEXT
8
Information
1
17
10
17.05
20
0.05
40
0.05
62
5
0
TEXT
8
Information
1
18
10
18.05
20
0.05
40
0.05
62
5
0
TEXT
8
Information
1
19
10
19.05
20
0.05
40
0.05
62
5
0
TEXT
8
Information
1
20
10
20.05
20
0.05
40
0.05
62
5
0
LINE
8
Information
10
10
20
0
11
10
21
-1
62
1
0
ENDSEC
0
EOF
